<svg class="main-svg" xmlns="http://www.w3.org/2000/svg" xmlns:xlink="http://www.w3.org/1999/xlink" width="700" height="500" style="" viewBox="0 0 700 500"><rect x="0" y="0" width="700" height="500" style="fill: rgb(255, 255, 255); fill-opacity: 1;"/><defs id="defs-56238b"><g class="clips"><clipPath id="clip56238bxyplot" class="plotclip"><rect width="476" height="320"/></clipPath><clipPath class="axesclip" id="clip56238bx"><rect x="80" y="0" width="476" height="500"/></clipPath><clipPath class="axesclip" id="clip56238by"><rect x="0" y="100" width="700" height="320"/></clipPath><clipPath class="axesclip" id="clip56238bxy"><rect x="80" y="100" width="476" height="320"/></clipPath></g><g class="gradients"/><g class="patterns"/></defs><g class="bglayer"><rect class="bg" x="80" y="100" width="476" height="320" style="fill: rgb(229, 236, 246); fill-opacity: 1; stroke-width: 0;"/></g><g class="layer-below"><g class="imagelayer"/><g class="shapelayer"/></g><g class="cartesianlayer"><g class="subplot xy"><g class="layer-subplot"><g class="shapelayer"/><g class="imagelayer"/></g><g class="minor-gridlayer"><g class="x"/><g class="y"/></g><g class="gridlayer"><g class="x"><path class="xgrid crisp" transform="translate(202.05,0)" d="M0,100v320" style="stroke: rgb(255, 255, 255); stroke-opacity: 1; stroke-width: 1px;"/><path class="xgrid crisp" transform="translate(324.1,0)" d="M0,100v320" style="stroke: rgb(255, 255, 255); stroke-opacity: 1; stroke-width: 1px;"/><path class="xgrid crisp" transform="translate(446.15,0)" d="M0,100v320" style="stroke: rgb(255, 255, 255); stroke-opacity: 1; stroke-width: 1px;"/></g><g class="y"><path class="ygrid crisp" transform="translate(0,406.07)" d="M80,0h476" style="stroke: rgb(255, 255, 255); stroke-opacity: 1; stroke-width: 1px;"/><path class="ygrid crisp" transform="translate(0,369.07)" d="M80,0h476" style="stroke: rgb(255, 255, 255); stroke-opacity: 1; stroke-width: 1px;"/><path class="ygrid crisp" transform="translate(0,332.07)" d="M80,0h476" style="stroke: rgb(255, 255, 255); stroke-opacity: 1; stroke-width: 1px;"/><path class="ygrid crisp" transform="translate(0,295.08000000000004)" d="M80,0h476" style="stroke: rgb(255, 255, 255); stroke-opacity: 1; stroke-width: 1px;"/><path class="ygrid crisp" transform="translate(0,258.08000000000004)" d="M80,0h476" style="stroke: rgb(255, 255, 255); stroke-opacity: 1; stroke-width: 1px;"/><path class="ygrid crisp" transform="translate(0,221.07999999999998)" d="M80,0h476" style="stroke: rgb(255, 255, 255); stroke-opacity: 1; stroke-width: 1px;"/><path class="ygrid crisp" transform="translate(0,184.07999999999998)" d="M80,0h476" style="stroke: rgb(255, 255, 255); stroke-opacity: 1; stroke-width: 1px;"/><path class="ygrid crisp" transform="translate(0,147.07999999999998)" d="M80,0h476" style="stroke: rgb(255, 255, 255); stroke-opacity: 1; stroke-width: 1px;"/><path class="ygrid crisp" transform="translate(0,110.08)" d="M80,0h476" style="stroke: rgb(255, 255, 255); stroke-opacity: 1; stroke-width: 1px;"/></g></g><g class="zerolinelayer"/><path class="xlines-below"/><path class="ylines-below"/><g class="overlines-below"/><g class="xaxislayer-below"/><g class="yaxislayer-below"/><g class="overaxes-below"/><g class="plot" transform="translate(80,100)" clip-path="url(#clip56238bxyplot)"><g class="scatterlayer mlayer"><g class="trace scatter traceccf9ba" style="stroke-miterlimit: 2; opacity: 1;"><g class="fills"/><g class="errorbars"/><g class="lines"><path class="js-line" d="M0,174.21L6.1,151.42L12.21,178.5L18.31,191.89L24.41,203.36L30.51,220.6L36.62,221.2L42.72,228.37L48.82,195.3L54.92,191.89L61.03,184.94L67.13,188.05L73.23,224.82L79.33,216.39L85.44,221.2L91.54,214.09L97.64,171.03L103.74,182.13L109.85,186.12L115.95,190.27L122.05,151.42L128.15,171.4L134.26,178.72L140.36,172.06L146.46,182.2L152.56,188.79L158.67,178.66L164.77,185.38L170.87,189.01L176.97,188.19L183.08,181.46L189.18,177.24L195.28,180.65L201.38,175.32L207.49,208.39L213.59,178.13L219.69,126.85L225.79,145.87L231.9,127.51L238,130.62L244.1,143.99L250.21,133.14L256.31,132.18L262.41,138.76L268.51,140.83L274.62,145.42L280.72,130.62L286.82,138.47L292.92,126.63L299.03,130.1L305.13,128.7L311.23,128.55L317.33,131.07L323.44,129.66L329.54,138.01L335.64,128.55L341.74,131.14L347.85,126.4L353.95,123.96L360.05,127.14L366.15,142.09L372.26,136.25L378.36,140.91L384.46,142.24L390.56,137.13L396.67,139.13L402.77,132.62L408.87,141.8L414.97,127.95L421.08,127.66L427.18,136.25L433.28,126.63L439.38,127.51L445.49,140.02L451.59,133.36L457.69,130.18L463.79,135.21L469.9,134.99L476,132.47" style="vector-effect: none; fill: none; stroke: rgb(99, 110, 250); stroke-opacity: 1; stroke-width: 2px; opacity: 1;"/></g><g class="points"/><g class="text"/></g><g class="trace scatter tracef963d4" style="stroke-miterlimit: 2; opacity: 1;"><g class="fills"/><g class="errorbars"/><g class="lines"><path class="js-line" d="M0,94.29L6.1,82.75L12.21,83.56L18.31,61.79L24.41,31.69L30.51,33.54L36.62,17.18L42.72,22.51L48.82,16.67L54.92,18.37L61.03,22.73L67.13,19.33L73.23,24.88L79.33,19.77L85.44,23.18L91.54,19.4L97.64,19.7L103.74,17.51L109.85,20L115.95,17.11L122.05,19.03L134.26,22.44L140.36,17.85L146.46,23.18L152.56,17.26L158.67,18.96L164.77,21.85L170.87,17.92L176.97,16L183.08,19.92L189.18,18.62L195.28,18.81L201.38,45.97L207.49,32.5L213.59,31.24L219.69,41.38L225.79,41.38L231.9,23.62L238,32.8L244.1,22.36L250.21,24.07L256.31,21.48L262.41,21.18L268.51,26.06L274.62,27.69L280.72,31.11L286.82,27.69L292.92,22.07L299.03,22.36L305.13,23.4L311.23,17.92L317.33,17.92L323.44,21.77L329.54,19.48L335.64,28.51L341.74,29.62L347.85,21.03L353.95,19.92L360.05,44.49L366.15,50.48L372.26,48.19L378.36,49L384.46,46.56L390.56,45.45L396.67,62.69L402.77,46.27L408.87,47.08L414.97,49.08L421.08,46.12L427.18,36.72L433.28,41.6L439.38,36.87L445.49,37.46L463.79,34.65L469.9,35.91L476,40.35" style="vector-effect: none; fill: none; stroke: rgb(239, 85, 59); stroke-opacity: 1; stroke-width: 2px; opacity: 1;"/></g><g class="points"/><g class="text"/></g><g class="trace scatter trace3a082a" style="stroke-miterlimit: 2; opacity: 1;"><g class="fills"/><g class="errorbars"/><g class="lines"><path class="js-line" d="M0,231.48L6.1,239.55L12.21,237.48L18.31,238.66L24.41,227.93L30.51,231.74L36.62,228.97L42.72,230.67L48.82,237.4L54.92,252.28L61.03,252.79L67.13,205.06L73.23,211.72L79.33,198.85L85.44,224.67L91.54,201.14L97.64,221.12L103.74,202.18L109.85,205.14L115.95,192.56L122.05,227.41L128.15,204.03L134.26,204.1L140.36,194.93L146.46,196.33L152.56,203.51L158.67,216.31L164.77,203.44L170.87,192.93L176.97,214.61L183.08,193.89L189.18,192.71L195.28,193.74L201.38,204.32L207.49,197.81L219.69,206.54L225.79,212.61L231.9,192.78L238,193.67L244.1,205.29L250.21,208.69L256.31,203.73L262.41,195.08L268.51,194.48L274.62,201.51L280.72,207.88L286.82,196.63L292.92,197.07L299.03,198.33L305.13,195.45L311.23,207.21L317.33,193.08L323.44,197.07L329.54,195L335.64,197.81L341.74,216.9L347.85,209.58L353.95,200.85L360.05,201.36L366.15,199.96L372.26,192.49L378.36,215.2L384.46,194.11L390.56,196.63L396.67,195.37L402.77,199.74L408.87,193.97L414.97,194.71L421.08,194.56L427.18,197.66L433.28,202.4L439.38,194.11L445.49,208.17L451.59,198.7L457.69,195.37L463.79,195.22L469.9,196.63L476,205.95" style="vector-effect: none; fill: none; stroke: rgb(0, 204, 150); stroke-opacity: 1; stroke-width: 2px; opacity: 1;"/></g><g class="points"/><g class="text"/></g><g class="trace scatter trace454095" style="stroke-miterlimit: 2; opacity: 1;"><g class="fills"/><g class="errorbars"/><g class="lines"><path class="js-line" d="M0,240.07L6.1,237.4L12.21,249.24L18.31,239.25L24.41,232.74L30.51,235.03L36.62,216.53L42.72,248.58L48.82,243.47L54.92,229.56L61.03,229.34L67.13,223.31L73.23,220.53L79.33,218.98L85.44,211.87L91.54,238.36L97.64,246.65L103.74,260.64L109.85,255.01L115.95,258.12L122.05,254.94L128.15,259.38L134.26,248.06L140.36,234.66L146.46,243.2L152.56,225.64L158.67,204.92L164.77,219.49L170.87,213.35L176.97,200.99L183.08,200.48L189.18,213.35L195.28,204.32L201.38,201.81L207.49,304L213.59,297.86L219.69,209.87L225.79,209.13L231.9,210.16L238,210.39L244.1,217.94L250.21,222.31L256.31,216.9L262.41,210.61L268.51,206.17L274.62,211.58L280.72,206.62L286.82,200.4L292.92,211.8L299.03,219.79L305.13,205.95L311.23,200.18L317.33,211.28L323.44,209.28L329.54,205.14L335.64,209.28L341.74,219.86L347.85,211.65L353.95,201.44L360.05,207.8L366.15,212.32L372.26,207.36L378.36,219.05L384.46,215.28L390.56,204.4L396.67,202.1L402.77,208.53L408.87,202.33L414.97,209.28L421.08,212.76L427.18,217.27L433.28,212.24L439.38,220.23L445.49,214.24L451.59,210.39L457.69,209.36L463.79,227.34L469.9,220.09L476,210.98" style="vector-effect: none; fill: none; stroke: rgb(171, 99, 250); stroke-opacity: 1; stroke-width: 2px; opacity: 1;"/></g><g class="points"/><g class="text"/></g></g></g><g class="overplot"/><path class="xlines-above crisp" d="M0,0" style="fill: none;"/><path class="ylines-above crisp" d="M0,0" style="fill: none;"/><g class="overlines-above"/><g class="xaxislayer-above"><g class="xtick"><text text-anchor="middle" x="0" y="433" transform="translate(80,0)" style="font-family: 'Open Sans', verdana, arial, sans-serif; font-size: 12px; fill: rgb(42, 63, 95); fill-opacity: 1; white-space: pre; opacity: 1;">20</text></g><g class="xtick"><text text-anchor="middle" x="0" y="433" style="font-family: 'Open Sans', verdana, arial, sans-serif; font-size: 12px; fill: rgb(42, 63, 95); fill-opacity: 1; white-space: pre; opacity: 1;" transform="translate(202.05,0)">40</text></g><g class="xtick"><text text-anchor="middle" x="0" y="433" style="font-family: 'Open Sans', verdana, arial, sans-serif; font-size: 12px; fill: rgb(42, 63, 95); fill-opacity: 1; white-space: pre; opacity: 1;" transform="translate(324.1,0)">60</text></g><g class="xtick"><text text-anchor="middle" x="0" y="433" style="font-family: 'Open Sans', verdana, arial, sans-serif; font-size: 12px; fill: rgb(42, 63, 95); fill-opacity: 1; white-space: pre; opacity: 1;" transform="translate(446.15,0)">80</text></g></g><g class="yaxislayer-above"><g class="ytick"><text text-anchor="end" x="79" y="4.199999999999999" transform="translate(0,406.07)" style="font-family: 'Open Sans', verdana, arial, sans-serif; font-size: 12px; fill: rgb(42, 63, 95); fill-opacity: 1; white-space: pre; opacity: 1;">500</text></g><g class="ytick"><text text-anchor="end" x="79" y="4.199999999999999" style="font-family: 'Open Sans', verdana, arial, sans-serif; font-size: 12px; fill: rgb(42, 63, 95); fill-opacity: 1; white-space: pre; opacity: 1;" transform="translate(0,369.07)">1000</text></g><g class="ytick"><text text-anchor="end" x="79" y="4.199999999999999" style="font-family: 'Open Sans', verdana, arial, sans-serif; font-size: 12px; fill: rgb(42, 63, 95); fill-opacity: 1; white-space: pre; opacity: 1;" transform="translate(0,332.07)">1500</text></g><g class="ytick"><text text-anchor="end" x="79" y="4.199999999999999" style="font-family: 'Open Sans', verdana, arial, sans-serif; font-size: 12px; fill: rgb(42, 63, 95); fill-opacity: 1; white-space: pre; opacity: 1;" transform="translate(0,295.08000000000004)">2000</text></g><g class="ytick"><text text-anchor="end" x="79" y="4.199999999999999" style="font-family: 'Open Sans', verdana, arial, sans-serif; font-size: 12px; fill: rgb(42, 63, 95); fill-opacity: 1; white-space: pre; opacity: 1;" transform="translate(0,258.08000000000004)">2500</text></g><g class="ytick"><text text-anchor="end" x="79" y="4.199999999999999" style="font-family: 'Open Sans', verdana, arial, sans-serif; font-size: 12px; fill: rgb(42, 63, 95); fill-opacity: 1; white-space: pre; opacity: 1;" transform="translate(0,221.07999999999998)">3000</text></g><g class="ytick"><text text-anchor="end" x="79" y="4.199999999999999" style="font-family: 'Open Sans', verdana, arial, sans-serif; font-size: 12px; fill: rgb(42, 63, 95); fill-opacity: 1; white-space: pre; opacity: 1;" transform="translate(0,184.07999999999998)">3500</text></g><g class="ytick"><text text-anchor="end" x="79" y="4.199999999999999" style="font-family: 'Open Sans', verdana, arial, sans-serif; font-size: 12px; fill: rgb(42, 63, 95); fill-opacity: 1; white-space: pre; opacity: 1;" transform="translate(0,147.07999999999998)">4000</text></g><g class="ytick"><text text-anchor="end" x="79" y="4.199999999999999" style="font-family: 'Open Sans', verdana, arial, sans-serif; font-size: 12px; fill: rgb(42, 63, 95); fill-opacity: 1; white-space: pre; opacity: 1;" transform="translate(0,110.08)">4500</text></g></g><g class="overaxes-above"/></g></g><g class="polarlayer"/><g class="smithlayer"/><g class="ternarylayer"/><g class="geolayer"/><g class="funnelarealayer"/><g class="pielayer"/><g class="iciclelayer"/><g class="treemaplayer"/><g class="sunburstlayer"/><g class="glimages"/><defs id="topdefs-56238b"><g class="clips"/><clipPath id="legend56238b"><rect width="122" height="86" x="0" y="0"/></clipPath></defs><g class="layer-above"><g class="imagelayer"/><g class="shapelayer"/></g><g class="infolayer"><g class="legend" pointer-events="all" transform="translate(565.52,100)"><rect class="bg" shape-rendering="crispEdges" style="stroke: rgb(68, 68, 68); stroke-opacity: 1; fill: rgb(255, 255, 255); fill-opacity: 1; stroke-width: 0px;" width="122" height="86" x="0" y="0"/><g class="scrollbox" transform="" clip-path="url(#legend56238b)"><g class="groups"><g class="traces" transform="translate(0,14.5)" style="opacity: 1;"><text class="legendtext" text-anchor="start" x="40" y="4.680000000000001" style="font-family: 'Open Sans', verdana, arial, sans-serif; font-size: 12px; fill: rgb(42, 63, 95); fill-opacity: 1; white-space: pre;">set128kb</text><g class="layers" style="opacity: 1;"><g class="legendfill"/><g class="legendlines"><path class="js-line" d="M5,0h30" style="fill: none; stroke: rgb(99, 110, 250); stroke-opacity: 1; stroke-width: 2px;"/></g><g class="legendsymbols"><g class="legendpoints"/></g></g><rect class="legendtoggle" x="0" y="-9.5" width="116.671875" height="19" style="fill: rgb(0, 0, 0); fill-opacity: 0;"/></g><g class="traces" transform="translate(0,33.5)" style="opacity: 1;"><text class="legendtext" text-anchor="start" x="40" y="4.680000000000001" style="font-family: 'Open Sans', verdana, arial, sans-serif; font-size: 12px; fill: rgb(42, 63, 95); fill-opacity: 1; white-space: pre;">alter128kb</text><g class="layers" style="opacity: 1;"><g class="legendfill"/><g class="legendlines"><path class="js-line" d="M5,0h30" style="fill: none; stroke: rgb(239, 85, 59); stroke-opacity: 1; stroke-width: 2px;"/></g><g class="legendsymbols"><g class="legendpoints"/></g></g><rect class="legendtoggle" x="0" y="-9.5" width="116.671875" height="19" style="fill: rgb(0, 0, 0); fill-opacity: 0;"/></g><g class="traces" transform="translate(0,52.5)" style="opacity: 1;"><text class="legendtext" text-anchor="start" x="40" y="4.680000000000001" style="font-family: 'Open Sans', verdana, arial, sans-serif; font-size: 12px; fill: rgb(42, 63, 95); fill-opacity: 1; white-space: pre;">cas128kb</text><g class="layers" style="opacity: 1;"><g class="legendfill"/><g class="legendlines"><path class="js-line" d="M5,0h30" style="fill: none; stroke: rgb(0, 204, 150); stroke-opacity: 1; stroke-width: 2px;"/></g><g class="legendsymbols"><g class="legendpoints"/></g></g><rect class="legendtoggle" x="0" y="-9.5" width="116.671875" height="19" style="fill: rgb(0, 0, 0); fill-opacity: 0;"/></g><g class="traces" transform="translate(0,71.5)" style="opacity: 1;"><text class="legendtext" text-anchor="start" x="40" y="4.680000000000001" style="font-family: 'Open Sans', verdana, arial, sans-serif; font-size: 12px; fill: rgb(42, 63, 95); fill-opacity: 1; white-space: pre;">casopt128kb</text><g class="layers" style="opacity: 1;"><g class="legendfill"/><g class="legendlines"><path class="js-line" d="M5,0h30" style="fill: none; stroke: rgb(171, 99, 250); stroke-opacity: 1; stroke-width: 2px;"/></g><g class="legendsymbols"><g class="legendpoints"/></g></g><rect class="legendtoggle" x="0" y="-9.5" width="116.671875" height="19" style="fill: rgb(0, 0, 0); fill-opacity: 0;"/></g></g></g><rect class="scrollbar" rx="20" ry="3" width="0" height="0" style="fill: rgb(128, 139, 164); fill-opacity: 1;" x="0" y="0"/></g><g class="g-gtitle"/><g class="g-xtitle"><text class="xtitle" x="318" y="459.8" text-anchor="middle" style="font-family: 'Open Sans', verdana, arial, sans-serif; font-size: 14px; fill: rgb(42, 63, 95); opacity: 1; font-weight: normal; white-space: pre;">Seconds</text></g><g class="g-ytitle"><text class="ytitle" transform="rotate(-90,24.184375000000003,260)" x="24.184375000000003" y="260" text-anchor="middle" style="font-family: 'Open Sans', verdana, arial, sans-serif; font-size: 14px; fill: rgb(42, 63, 95); opacity: 1; font-weight: normal; white-space: pre;">Operations</text></g></g></svg>