<svg class="main-svg" xmlns="http://www.w3.org/2000/svg" xmlns:xlink="http://www.w3.org/1999/xlink" width="700" height="500" style="" viewBox="0 0 700 500"><rect x="0" y="0" width="700" height="500" style="fill: rgb(255, 255, 255); fill-opacity: 1;"/><defs id="defs-ea2ddb"><g class="clips"><clipPath id="clipea2ddbxyplot" class="plotclip"><rect width="476" height="320"/></clipPath><clipPath class="axesclip" id="clipea2ddbx"><rect x="80" y="0" width="476" height="500"/></clipPath><clipPath class="axesclip" id="clipea2ddby"><rect x="0" y="100" width="700" height="320"/></clipPath><clipPath class="axesclip" id="clipea2ddbxy"><rect x="80" y="100" width="476" height="320"/></clipPath></g><g class="gradients"/><g class="patterns"/></defs><g class="bglayer"><rect class="bg" x="80" y="100" width="476" height="320" style="fill: rgb(229, 236, 246); fill-opacity: 1; stroke-width: 0;"/></g><g class="layer-below"><g class="imagelayer"/><g class="shapelayer"/></g><g class="cartesianlayer"><g class="subplot xy"><g class="layer-subplot"><g class="shapelayer"/><g class="imagelayer"/></g><g class="minor-gridlayer"><g class="x"/><g class="y"/></g><g class="gridlayer"><g class="x"><path class="xgrid crisp" transform="translate(202.05,0)" d="M0,100v320" style="stroke: rgb(255, 255, 255); stroke-opacity: 1; stroke-width: 1px;"/><path class="xgrid crisp" transform="translate(324.1,0)" d="M0,100v320" style="stroke: rgb(255, 255, 255); stroke-opacity: 1; stroke-width: 1px;"/><path class="xgrid crisp" transform="translate(446.15,0)" d="M0,100v320" style="stroke: rgb(255, 255, 255); stroke-opacity: 1; stroke-width: 1px;"/></g><g class="y"><path class="ygrid crisp" transform="translate(0,382.55)" d="M80,0h476" style="stroke: rgb(255, 255, 255); stroke-opacity: 1; stroke-width: 1px;"/><path class="ygrid crisp" transform="translate(0,327.81)" d="M80,0h476" style="stroke: rgb(255, 255, 255); stroke-opacity: 1; stroke-width: 1px;"/><path class="ygrid crisp" transform="translate(0,273.08000000000004)" d="M80,0h476" style="stroke: rgb(255, 255, 255); stroke-opacity: 1; stroke-width: 1px;"/><path class="ygrid crisp" transform="translate(0,218.35)" d="M80,0h476" style="stroke: rgb(255, 255, 255); stroke-opacity: 1; stroke-width: 1px;"/><path class="ygrid crisp" transform="translate(0,163.62)" d="M80,0h476" style="stroke: rgb(255, 255, 255); stroke-opacity: 1; stroke-width: 1px;"/><path class="ygrid crisp" transform="translate(0,108.88)" d="M80,0h476" style="stroke: rgb(255, 255, 255); stroke-opacity: 1; stroke-width: 1px;"/></g></g><g class="zerolinelayer"/><path class="xlines-below"/><path class="ylines-below"/><g class="overlines-below"/><g class="xaxislayer-below"/><g class="yaxislayer-below"/><g class="overaxes-below"/><g class="plot" transform="translate(80,100)" clip-path="url(#clipea2ddbxyplot)"><g class="scatterlayer mlayer"><g class="trace scatter traceb82437" style="stroke-miterlimit: 2; opacity: 1;"><g class="fills"/><g class="errorbars"/><g class="lines"><path class="js-line" d="M0,177.9L6.1,165.86L12.21,157.1L18.31,181.73L24.41,190.49L30.51,171.66L36.62,166.29L42.72,188.95L48.82,201.32L54.92,211.39L61.03,229.02L67.13,206.25L73.23,170.13L85.44,210.52L91.54,196.4L97.64,207.12L103.74,221.46L109.85,200.67L115.95,210.85L122.05,249.71L128.15,243.69L134.26,230L140.36,199.02L146.46,176.04L152.56,192.68L158.67,175.81L164.77,174.5L170.87,174.83L176.97,187.42L183.08,191.03L189.18,195.85L195.28,195.3L201.38,185.89L207.49,192.46L213.59,180.52L219.69,194.75L225.79,189.17L231.9,198.7L238,183.7L244.1,174.94L250.21,190.92L256.31,184.25L262.41,182.6L268.51,178.66L274.62,154.58L280.72,160.93L286.82,152.5L292.92,162.57L299.03,200.12L305.13,205.26L311.23,194.86L317.33,201.76L323.44,204.28L329.54,200.67L335.64,186.97L341.74,165.97L347.85,159.62L353.95,158.41L360.05,167.39L366.15,165.97L372.26,199.9L378.36,191.58L384.46,217.52L390.56,212.49L396.67,210.3L402.77,220.37L408.87,216.21L414.97,210.85L421.08,208.95L427.18,238.43L433.28,230.77L439.38,209.75L445.49,208.22L451.59,220.26L457.69,154.58L463.79,158.3L469.9,150.64L476,149.33" style="vector-effect: none; fill: none; stroke: rgb(99, 110, 250); stroke-opacity: 1; stroke-width: 2px; opacity: 1;"/></g><g class="points"/><g class="text"/></g><g class="trace scatter trace881371" style="stroke-miterlimit: 2; opacity: 1;"><g class="fills"/><g class="errorbars"/><g class="lines"><path class="js-line" d="M0,30.12L6.1,30.78L12.21,27.06L18.31,45.56L24.41,69.64L30.51,30.78L36.62,32.75L42.72,25.78L48.82,24.43L54.92,30.89L61.03,31.22L67.13,33.95L73.23,30.89L79.33,39.86L85.44,22.9L91.54,24.21L97.64,27.38L103.74,20.38L109.85,23.88L122.05,21.91L128.15,31.69L134.26,18.63L140.36,22.57L146.46,20.27L152.56,24.43L158.67,33.08L164.77,30.56L170.87,26.07L176.97,25.41L183.08,31.32L189.18,34.06L195.28,32.09L201.38,33.4L207.49,19.39L213.59,28.84L219.69,24.21L225.79,29.68L231.9,33.3L238,25.63L244.1,33.4L250.21,27.27L256.31,23.77L262.41,38.77L268.51,31.98L274.62,30.12L280.72,25.3L286.82,22.57L292.92,30.89L299.03,24.32L305.13,18.34L311.23,23.22L317.33,28.15L323.44,30.12L329.54,35.48L335.64,23.55L347.85,30.45L353.95,28.59L360.05,16L366.15,21.47L372.26,27.27L378.36,34.39L384.46,30.67L390.56,23.48L402.77,30.89L408.87,25.85L414.97,19.83L421.08,26.4L427.18,31.43L433.28,25.96L439.38,19.83L445.49,23.66L451.59,31L457.69,24.1L463.79,39.43L469.9,30.12L476,25.89" style="vector-effect: none; fill: none; stroke: rgb(239, 85, 59); stroke-opacity: 1; stroke-width: 2px; opacity: 1;"/></g><g class="points"/><g class="text"/></g><g class="trace scatter traceccbbf7" style="stroke-miterlimit: 2; opacity: 1;"><g class="fills"/><g class="errorbars"/><g class="lines"><path class="js-line" d="M0,246.97L6.1,249.82L12.21,246.2L18.31,255.95L24.41,253.65L30.51,266.67L36.62,247.55L42.72,264.16L48.82,291.41L54.92,264.37L61.03,254.19L67.13,261.53L73.23,274.99L79.33,267.77L85.44,264.37L91.54,260.21L97.64,274.12L103.74,233.61L109.85,231.86L115.95,239.31L122.05,261.09L128.15,233.77L134.26,239.85L140.36,233.07L146.46,263.83L152.56,236.46L158.67,260L164.77,258.46L170.87,265.8L176.97,290.54L183.08,264.48L189.18,260.43L195.28,264.37L201.38,282.44L207.49,265.36L213.59,256.3L219.69,260L231.9,221.14L238,263.06L250.21,229.56L256.31,236.68L262.41,237.99L268.51,232.41L280.72,238.65L286.82,233.83L292.92,235.58L299.03,229.62L305.13,229.78L311.23,239.64L317.33,242.92L323.44,229.02L329.54,245.66L335.64,234.71L341.74,240.29L347.85,231.43L353.95,239.2L360.05,237.77L372.26,230.33L378.36,234.49L384.46,235.04L390.56,237.6L396.67,244.78L402.77,232.3L408.87,242.81L414.97,237.56L421.08,233.07L427.18,241.28L433.28,229.02L439.38,238.43L445.49,243.69L451.59,229.56L457.69,241.61L463.79,230.11L469.9,229.35L476,235.52" style="vector-effect: none; fill: none; stroke: rgb(0, 204, 150); stroke-opacity: 1; stroke-width: 2px; opacity: 1;"/></g><g class="points"/><g class="text"/></g><g class="trace scatter traceb551ab" style="stroke-miterlimit: 2; opacity: 1;"><g class="fills"/><g class="errorbars"/><g class="lines"><path class="js-line" d="M0,265.8L6.1,267.88L12.21,257.04L18.31,255.21L24.41,272.15L30.51,292.51L36.62,281.23L42.72,266.78L48.82,271.71L54.92,261.75L61.03,271.71L67.13,266.56L73.23,256.05L79.33,258.57L85.44,263.83L91.54,285.83L97.64,266.56L103.74,256.27L109.85,267.78L115.95,277.62L122.05,258.03L128.15,261.86L134.26,266.67L140.36,260.21L146.46,259.78L152.56,269.85L158.67,266.67L164.77,280.03L170.87,269.52L176.97,268.64L183.08,276.2L189.18,294.25L195.28,298.42L201.38,298.09L207.49,272.58L213.59,267.66L219.69,273.57L225.79,304L231.9,275.32L238,269.96L244.1,270.94L250.21,276.52L256.31,271.38L262.41,274.88L268.51,258.13L274.62,261.86L280.72,261.33L286.82,249.05L292.92,251.02L299.03,249.16L305.13,255.51L311.23,257.15L317.33,253.54L323.44,254.3L329.54,270.29L335.64,263.39L341.74,254.74L347.85,258.79L353.95,264.92L360.05,264.59L366.15,266.58L372.26,254.52L378.36,252L384.46,262.18L390.56,249.38L396.67,252.55L402.77,258.68L408.87,248.72L414.97,258.03L421.08,251.9L427.18,258.9L433.28,267.11L439.38,251.24L445.49,252.22L451.59,259.36L457.69,250.58L463.79,250.14L469.9,264.26L476,251.46" style="vector-effect: none; fill: none; stroke: rgb(171, 99, 250); stroke-opacity: 1; stroke-width: 2px; opacity: 1;"/></g><g class="points"/><g class="text"/></g></g></g><g class="overplot"/><path class="xlines-above crisp" d="M0,0" style="fill: none;"/><path class="ylines-above crisp" d="M0,0" style="fill: none;"/><g class="overlines-above"/><g class="xaxislayer-above"><g class="xtick"><text text-anchor="middle" x="0" y="433" transform="translate(80,0)" style="font-family: 'Open Sans', verdana, arial, sans-serif; font-size: 12px; fill: rgb(42, 63, 95); fill-opacity: 1; white-space: pre; opacity: 1;">20</text></g><g class="xtick"><text text-anchor="middle" x="0" y="433" style="font-family: 'Open Sans', verdana, arial, sans-serif; font-size: 12px; fill: rgb(42, 63, 95); fill-opacity: 1; white-space: pre; opacity: 1;" transform="translate(202.05,0)">40</text></g><g class="xtick"><text text-anchor="middle" x="0" y="433" style="font-family: 'Open Sans', verdana, arial, sans-serif; font-size: 12px; fill: rgb(42, 63, 95); fill-opacity: 1; white-space: pre; opacity: 1;" transform="translate(324.1,0)">60</text></g><g class="xtick"><text text-anchor="middle" x="0" y="433" style="font-family: 'Open Sans', verdana, arial, sans-serif; font-size: 12px; fill: rgb(42, 63, 95); fill-opacity: 1; white-space: pre; opacity: 1;" transform="translate(446.15,0)">80</text></g></g><g class="yaxislayer-above"><g class="ytick"><text text-anchor="end" x="79" y="4.199999999999999" transform="translate(0,382.55)" style="font-family: 'Open Sans', verdana, arial, sans-serif; font-size: 12px; fill: rgb(42, 63, 95); fill-opacity: 1; white-space: pre; opacity: 1;">1000</text></g><g class="ytick"><text text-anchor="end" x="79" y="4.199999999999999" style="font-family: 'Open Sans', verdana, arial, sans-serif; font-size: 12px; fill: rgb(42, 63, 95); fill-opacity: 1; white-space: pre; opacity: 1;" transform="translate(0,327.81)">1500</text></g><g class="ytick"><text text-anchor="end" x="79" y="4.199999999999999" style="font-family: 'Open Sans', verdana, arial, sans-serif; font-size: 12px; fill: rgb(42, 63, 95); fill-opacity: 1; white-space: pre; opacity: 1;" transform="translate(0,273.08000000000004)">2000</text></g><g class="ytick"><text text-anchor="end" x="79" y="4.199999999999999" style="font-family: 'Open Sans', verdana, arial, sans-serif; font-size: 12px; fill: rgb(42, 63, 95); fill-opacity: 1; white-space: pre; opacity: 1;" transform="translate(0,218.35)">2500</text></g><g class="ytick"><text text-anchor="end" x="79" y="4.199999999999999" style="font-family: 'Open Sans', verdana, arial, sans-serif; font-size: 12px; fill: rgb(42, 63, 95); fill-opacity: 1; white-space: pre; opacity: 1;" transform="translate(0,163.62)">3000</text></g><g class="ytick"><text text-anchor="end" x="79" y="4.199999999999999" style="font-family: 'Open Sans', verdana, arial, sans-serif; font-size: 12px; fill: rgb(42, 63, 95); fill-opacity: 1; white-space: pre; opacity: 1;" transform="translate(0,108.88)">3500</text></g></g><g class="overaxes-above"/></g></g><g class="polarlayer"/><g class="smithlayer"/><g class="ternarylayer"/><g class="geolayer"/><g class="funnelarealayer"/><g class="pielayer"/><g class="iciclelayer"/><g class="treemaplayer"/><g class="sunburstlayer"/><g class="glimages"/><defs id="topdefs-ea2ddb"><g class="clips"/><clipPath id="legendea2ddb"><rect width="122" height="86" x="0" y="0"/></clipPath></defs><g class="layer-above"><g class="imagelayer"/><g class="shapelayer"/></g><g class="infolayer"><g class="legend" pointer-events="all" transform="translate(565.52,100)"><rect class="bg" shape-rendering="crispEdges" width="122" height="86" x="0" y="0" style="stroke: rgb(68, 68, 68); stroke-opacity: 1; fill: rgb(255, 255, 255); fill-opacity: 1; stroke-width: 0px;"/><g class="scrollbox" transform="" clip-path="url(#legendea2ddb)"><g class="groups"><g class="traces" transform="translate(0,14.5)" style="opacity: 1;"><text class="legendtext" text-anchor="start" x="40" y="4.680000000000001" style="font-family: 'Open Sans', verdana, arial, sans-serif; font-size: 12px; fill: rgb(42, 63, 95); fill-opacity: 1; white-space: pre;">set128kb</text><g class="layers" style="opacity: 1;"><g class="legendfill"/><g class="legendlines"><path class="js-line" d="M5,0h30" style="fill: none; stroke: rgb(99, 110, 250); stroke-opacity: 1; stroke-width: 2px;"/></g><g class="legendsymbols"><g class="legendpoints"/></g></g><rect class="legendtoggle" x="0" y="-9.5" width="116.671875" height="19" style="fill: rgb(0, 0, 0); fill-opacity: 0;"/></g><g class="traces" transform="translate(0,33.5)" style="opacity: 1;"><text class="legendtext" text-anchor="start" x="40" y="4.680000000000001" style="font-family: 'Open Sans', verdana, arial, sans-serif; font-size: 12px; fill: rgb(42, 63, 95); fill-opacity: 1; white-space: pre;">alter128kb</text><g class="layers" style="opacity: 1;"><g class="legendfill"/><g class="legendlines"><path class="js-line" d="M5,0h30" style="fill: none; stroke: rgb(239, 85, 59); stroke-opacity: 1; stroke-width: 2px;"/></g><g class="legendsymbols"><g class="legendpoints"/></g></g><rect class="legendtoggle" x="0" y="-9.5" width="116.671875" height="19" style="fill: rgb(0, 0, 0); fill-opacity: 0;"/></g><g class="traces" transform="translate(0,52.5)" style="opacity: 1;"><text class="legendtext" text-anchor="start" x="40" y="4.680000000000001" style="font-family: 'Open Sans', verdana, arial, sans-serif; font-size: 12px; fill: rgb(42, 63, 95); fill-opacity: 1; white-space: pre;">cas128kb</text><g class="layers" style="opacity: 1;"><g class="legendfill"/><g class="legendlines"><path class="js-line" d="M5,0h30" style="fill: none; stroke: rgb(0, 204, 150); stroke-opacity: 1; stroke-width: 2px;"/></g><g class="legendsymbols"><g class="legendpoints"/></g></g><rect class="legendtoggle" x="0" y="-9.5" width="116.671875" height="19" style="fill: rgb(0, 0, 0); fill-opacity: 0;"/></g><g class="traces" transform="translate(0,71.5)" style="opacity: 1;"><text class="legendtext" text-anchor="start" x="40" y="4.680000000000001" style="font-family: 'Open Sans', verdana, arial, sans-serif; font-size: 12px; fill: rgb(42, 63, 95); fill-opacity: 1; white-space: pre;">casopt128kb</text><g class="layers" style="opacity: 1;"><g class="legendfill"/><g class="legendlines"><path class="js-line" d="M5,0h30" style="fill: none; stroke: rgb(171, 99, 250); stroke-opacity: 1; stroke-width: 2px;"/></g><g class="legendsymbols"><g class="legendpoints"/></g></g><rect class="legendtoggle" x="0" y="-9.5" width="116.671875" height="19" style="fill: rgb(0, 0, 0); fill-opacity: 0;"/></g></g></g><rect class="scrollbar" rx="20" ry="3" width="0" height="0" x="0" y="0" style="fill: rgb(128, 139, 164); fill-opacity: 1;"/></g><g class="g-gtitle"/><g class="g-xtitle"><text class="xtitle" x="318" y="459.8" text-anchor="middle" style="font-family: 'Open Sans', verdana, arial, sans-serif; font-size: 14px; fill: rgb(42, 63, 95); opacity: 1; font-weight: normal; white-space: pre;">Seconds</text></g><g class="g-ytitle"><text class="ytitle" transform="rotate(-90,24.184375000000003,260)" x="24.184375000000003" y="260" text-anchor="middle" style="font-family: 'Open Sans', verdana, arial, sans-serif; font-size: 14px; fill: rgb(42, 63, 95); opacity: 1; font-weight: normal; white-space: pre;">Operations</text></g></g></svg>