<svg class="main-svg" xmlns="http://www.w3.org/2000/svg" xmlns:xlink="http://www.w3.org/1999/xlink" width="700" height="500" style="" viewBox="0 0 700 500"><rect x="0" y="0" width="700" height="500" style="fill: rgb(255, 255, 255); fill-opacity: 1;"/><defs id="defs-65fcf0"><g class="clips"><clipPath id="clip65fcf0xyplot" class="plotclip"><rect width="476" height="320"/></clipPath><clipPath class="axesclip" id="clip65fcf0x"><rect x="80" y="0" width="476" height="500"/></clipPath><clipPath class="axesclip" id="clip65fcf0y"><rect x="0" y="100" width="700" height="320"/></clipPath><clipPath class="axesclip" id="clip65fcf0xy"><rect x="80" y="100" width="476" height="320"/></clipPath></g><g class="gradients"/><g class="patterns"/></defs><g class="bglayer"><rect class="bg" x="80" y="100" width="476" height="320" style="fill: rgb(229, 236, 246); fill-opacity: 1; stroke-width: 0;"/></g><g class="layer-below"><g class="imagelayer"/><g class="shapelayer"/></g><g class="cartesianlayer"><g class="subplot xy"><g class="layer-subplot"><g class="shapelayer"/><g class="imagelayer"/></g><g class="minor-gridlayer"><g class="x"/><g class="y"/></g><g class="gridlayer"><g class="x"><path class="xgrid crisp" transform="translate(202.05,0)" d="M0,100v320" style="stroke: rgb(255, 255, 255); stroke-opacity: 1; stroke-width: 1px;"/><path class="xgrid crisp" transform="translate(324.1,0)" d="M0,100v320" style="stroke: rgb(255, 255, 255); stroke-opacity: 1; stroke-width: 1px;"/><path class="xgrid crisp" transform="translate(446.15,0)" d="M0,100v320" style="stroke: rgb(255, 255, 255); stroke-opacity: 1; stroke-width: 1px;"/></g><g class="y"><path class="ygrid crisp" transform="translate(0,376.98)" d="M80,0h476" style="stroke: rgb(255, 255, 255); stroke-opacity: 1; stroke-width: 1px;"/><path class="ygrid crisp" transform="translate(0,307.35)" d="M80,0h476" style="stroke: rgb(255, 255, 255); stroke-opacity: 1; stroke-width: 1px;"/><path class="ygrid crisp" transform="translate(0,237.72)" d="M80,0h476" style="stroke: rgb(255, 255, 255); stroke-opacity: 1; stroke-width: 1px;"/><path class="ygrid crisp" transform="translate(0,168.09)" d="M80,0h476" style="stroke: rgb(255, 255, 255); stroke-opacity: 1; stroke-width: 1px;"/></g></g><g class="zerolinelayer"/><path class="xlines-below"/><path class="ylines-below"/><g class="overlines-below"/><g class="xaxislayer-below"/><g class="yaxislayer-below"/><g class="overaxes-below"/><g class="plot" transform="translate(80,100)" clip-path="url(#clip65fcf0xyplot)"><g class="scatterlayer mlayer"><g class="trace scatter trace797ae0" style="stroke-miterlimit: 2; opacity: 1;"><g class="fills"/><g class="errorbars"/><g class="lines"><path class="js-line" d="M0,151.23L6.1,168.77L12.21,256.23L18.31,276.77L24.41,219.74L30.51,156.24L36.62,164.46L42.72,156.94L48.82,157.21L54.92,143.71L61.03,160.28L67.13,151.09L73.23,160L79.33,154.29L85.44,140.64L91.54,137.02L97.64,143.43L103.74,145.79L109.85,156.71L115.95,148.86L122.05,145.52L128.15,146.21L134.26,133.26L140.36,150.81L146.46,144.82L152.56,157.08L158.67,158.89L164.77,161.81L170.87,150.25L176.97,152.34L183.08,158.75L189.18,154.2L195.28,156.8L201.38,163.2L207.49,157.63L213.59,156.1L219.69,152.34L225.79,155.54L231.9,154.99L238,162.09L244.1,156.66L250.21,150.67L256.31,160.56L262.41,167.24L268.51,157.63L274.62,153.18L280.72,155.87L286.82,163.62L292.92,157.21L299.03,160.97L305.13,169.19L311.23,155.26L317.33,153.04L323.44,178.94L329.54,165.15L335.64,147.88L341.74,161.53L347.85,162.65L353.95,148.86L360.05,144.54L366.15,145.79L372.26,152.26L378.36,148.16L384.46,139.95L390.56,150.95L396.67,144.54L402.77,142.03L408.87,134.65L414.97,143.98L421.08,153.18L427.18,141.62L433.28,150.67L439.38,133.4L445.49,138.27L451.59,140.78L457.69,143.77L463.79,140.5L469.9,153.87L476,135.49" style="vector-effect: none; fill: none; stroke: rgb(99, 110, 250); stroke-opacity: 1; stroke-width: 2px; opacity: 1;"/></g><g class="points"/><g class="text"/></g><g class="trace scatter trace0f444b" style="stroke-miterlimit: 2; opacity: 1;"><g class="fills"/><g class="errorbars"/><g class="lines"><path class="js-line" d="M0,32.43L6.1,25.19L12.21,24.22L18.31,18.79L24.41,18.09L30.51,16.42L36.62,22.27L42.72,19.2L48.82,19.34L54.92,18.92L61.03,16L67.13,17.03L73.23,30.34L79.33,29.93L85.44,21.99L91.54,25.47L97.64,21.15L103.74,20.87L109.85,33.27L115.95,20.87L122.05,24.36L128.15,27L134.26,24.36L140.36,31.46L146.46,42.46L152.56,30.8L158.67,28.39L164.77,23.8L170.87,24.5L176.97,25.47L183.08,30.76L189.18,24.08L195.28,32.02L201.38,31.74L207.49,24.5L213.59,27.56L219.69,33.27L225.79,24.77L231.9,24.36L238,23.52L244.1,37.76L250.21,46.92L256.31,31.88L262.41,31.6L268.51,35.91L274.62,23.94L280.72,23.24L286.82,30.48L292.92,31.6L299.03,27.42L305.13,37.59L311.23,29.23L317.33,31.6L329.54,24.96L335.64,24.63L341.74,26.44L347.85,24.5L353.95,24.77L360.05,30.62L366.15,24.77L372.26,38.14L378.36,24.77L384.46,26.86L390.56,28.95L396.67,23.52L402.77,23.38L408.87,30.07L414.97,32.89L421.08,24.22L427.18,28.53L433.28,22.68L439.38,24.77L445.49,29.09L451.59,26.17L457.69,24.36L463.79,34.52L469.9,23.8L476,22.96" style="vector-effect: none; fill: none; stroke: rgb(239, 85, 59); stroke-opacity: 1; stroke-width: 2px; opacity: 1;"/></g><g class="points"/><g class="text"/></g><g class="trace scatter trace651c4c" style="stroke-miterlimit: 2; opacity: 1;"><g class="fills"/><g class="errorbars"/><g class="lines"><path class="js-line" d="M0,304L6.1,252.33L12.21,226.57L18.31,231.03L24.41,229.63L30.51,223.37L36.62,231.72L42.72,232.14L48.82,227.13L61.03,223.09L67.13,227.54L73.23,224.62L79.33,227.26L85.44,224.2L91.54,228.94L97.64,230.05L103.74,221.97L109.85,230.19L115.95,231.72L128.15,224.34L134.26,224.62L140.36,225.16L146.46,229.35L152.56,235.48L158.67,225.18L164.77,225.18L170.87,233.39L176.97,225.59L183.08,227.54L189.18,238.96L195.28,226.29L213.59,225.18L219.69,222.93L225.79,223.64L231.9,225.45L238,226.01L244.1,231.3L250.21,224.62L256.31,224.9L262.41,241.33L268.51,231.3L274.62,221L280.72,226.71L286.82,227.13L292.92,221.69L299.03,234.65L305.13,236.46L311.23,231L317.33,238.13L323.44,229.08L329.54,235.06L335.64,240.77L341.74,229.77L347.85,223.64L353.95,228.8L360.05,237.85L366.15,234.23L372.26,227.54L378.36,240.08L384.46,232.14L390.56,240.5L396.67,250.34L402.77,238.55L408.87,235.06L414.97,234.92L421.08,228.1L427.18,233.53L433.28,225.04L439.38,238.68L445.49,230.75L451.59,238.68L457.69,240.08L463.79,232.7L469.9,231.86L476,241.75" style="vector-effect: none; fill: none; stroke: rgb(0, 204, 150); stroke-opacity: 1; stroke-width: 2px; opacity: 1;"/></g><g class="points"/><g class="text"/></g><g class="trace scatter tracef43f8d" style="stroke-miterlimit: 2; opacity: 1;"><g class="fills"/><g class="errorbars"/><g class="lines"><path class="js-line" d="M0,259.16L6.1,221.69L12.21,227.4L18.31,224.06L24.41,224.48L30.51,235.9L36.62,230.75L42.72,238.65L48.82,233.25L54.92,222.25L61.03,226.71L73.23,227.4L79.33,231.03L85.44,237.29L91.54,234.09L97.64,223.37L103.74,236.04L109.85,232.28L115.95,229.49L122.05,227.82L128.15,234.06L134.26,228.24L140.36,231.44L146.46,234.09L152.56,225.73L158.67,229.08L164.77,230.89L170.87,233.25L176.97,227.13L183.08,235.2L189.18,241.61L195.28,228.66L201.38,229.08L207.49,233.11L213.59,228.64L219.69,231.16L225.79,224.62L231.9,234.92L238,229.21L244.1,234.92L250.21,224.2L256.31,230.05L262.41,237.99L268.51,226.01L274.62,233.25L280.72,227.4L286.82,224.9L292.92,224.06L299.03,232.7L305.13,223.35L311.23,231.58L317.33,233.53L323.44,245.37L329.54,234.92L335.64,244.95L347.85,224.9L353.95,235.06L360.05,222.53L366.15,226.29L372.26,235.06L378.36,229.35L384.46,227.54L390.56,228.36L396.67,225.32L402.77,232.28L408.87,238.27L414.97,222.11L421.08,224.34L427.18,228.24L439.38,227.68L445.49,228.52L451.59,223.78L457.69,226.29L463.79,230.05L469.9,224.2L476,218.21" style="vector-effect: none; fill: none; stroke: rgb(171, 99, 250); stroke-opacity: 1; stroke-width: 2px; opacity: 1;"/></g><g class="points"/><g class="text"/></g></g></g><g class="overplot"/><path class="xlines-above crisp" d="M0,0" style="fill: none;"/><path class="ylines-above crisp" d="M0,0" style="fill: none;"/><g class="overlines-above"/><g class="xaxislayer-above"><g class="xtick"><text text-anchor="middle" x="0" y="433" transform="translate(80,0)" style="font-family: 'Open Sans', verdana, arial, sans-serif; font-size: 12px; fill: rgb(42, 63, 95); fill-opacity: 1; white-space: pre; opacity: 1;">20</text></g><g class="xtick"><text text-anchor="middle" x="0" y="433" style="font-family: 'Open Sans', verdana, arial, sans-serif; font-size: 12px; fill: rgb(42, 63, 95); fill-opacity: 1; white-space: pre; opacity: 1;" transform="translate(202.05,0)">40</text></g><g class="xtick"><text text-anchor="middle" x="0" y="433" style="font-family: 'Open Sans', verdana, arial, sans-serif; font-size: 12px; fill: rgb(42, 63, 95); fill-opacity: 1; white-space: pre; opacity: 1;" transform="translate(324.1,0)">60</text></g><g class="xtick"><text text-anchor="middle" x="0" y="433" style="font-family: 'Open Sans', verdana, arial, sans-serif; font-size: 12px; fill: rgb(42, 63, 95); fill-opacity: 1; white-space: pre; opacity: 1;" transform="translate(446.15,0)">80</text></g></g><g class="yaxislayer-above"><g class="ytick"><text text-anchor="end" x="79" y="4.199999999999999" transform="translate(0,376.98)" style="font-family: 'Open Sans', verdana, arial, sans-serif; font-size: 12px; fill: rgb(42, 63, 95); fill-opacity: 1; white-space: pre; opacity: 1;">500</text></g><g class="ytick"><text text-anchor="end" x="79" y="4.199999999999999" style="font-family: 'Open Sans', verdana, arial, sans-serif; font-size: 12px; fill: rgb(42, 63, 95); fill-opacity: 1; white-space: pre; opacity: 1;" transform="translate(0,307.35)">1000</text></g><g class="ytick"><text text-anchor="end" x="79" y="4.199999999999999" style="font-family: 'Open Sans', verdana, arial, sans-serif; font-size: 12px; fill: rgb(42, 63, 95); fill-opacity: 1; white-space: pre; opacity: 1;" transform="translate(0,237.72)">1500</text></g><g class="ytick"><text text-anchor="end" x="79" y="4.199999999999999" style="font-family: 'Open Sans', verdana, arial, sans-serif; font-size: 12px; fill: rgb(42, 63, 95); fill-opacity: 1; white-space: pre; opacity: 1;" transform="translate(0,168.09)">2000</text></g></g><g class="overaxes-above"/></g></g><g class="polarlayer"/><g class="smithlayer"/><g class="ternarylayer"/><g class="geolayer"/><g class="funnelarealayer"/><g class="pielayer"/><g class="iciclelayer"/><g class="treemaplayer"/><g class="sunburstlayer"/><g class="glimages"/><defs id="topdefs-65fcf0"><g class="clips"/><clipPath id="legend65fcf0"><rect width="122" height="86" x="0" y="0"/></clipPath></defs><g class="layer-above"><g class="imagelayer"/><g class="shapelayer"/></g><g class="infolayer"><g class="legend" pointer-events="all" transform="translate(565.52,100)"><rect class="bg" shape-rendering="crispEdges" width="122" height="86" x="0" y="0" style="stroke: rgb(68, 68, 68); stroke-opacity: 1; fill: rgb(255, 255, 255); fill-opacity: 1; stroke-width: 0px;"/><g class="scrollbox" transform="" clip-path="url(#legend65fcf0)"><g class="groups"><g class="traces" transform="translate(0,14.5)" style="opacity: 1;"><text class="legendtext" text-anchor="start" x="40" y="4.680000000000001" style="font-family: 'Open Sans', verdana, arial, sans-serif; font-size: 12px; fill: rgb(42, 63, 95); fill-opacity: 1; white-space: pre;">set128kb</text><g class="layers" style="opacity: 1;"><g class="legendfill"/><g class="legendlines"><path class="js-line" d="M5,0h30" style="fill: none; stroke: rgb(99, 110, 250); stroke-opacity: 1; stroke-width: 2px;"/></g><g class="legendsymbols"><g class="legendpoints"/></g></g><rect class="legendtoggle" x="0" y="-9.5" width="116.671875" height="19" style="fill: rgb(0, 0, 0); fill-opacity: 0;"/></g><g class="traces" transform="translate(0,33.5)" style="opacity: 1;"><text class="legendtext" text-anchor="start" x="40" y="4.680000000000001" style="font-family: 'Open Sans', verdana, arial, sans-serif; font-size: 12px; fill: rgb(42, 63, 95); fill-opacity: 1; white-space: pre;">alter128kb</text><g class="layers" style="opacity: 1;"><g class="legendfill"/><g class="legendlines"><path class="js-line" d="M5,0h30" style="fill: none; stroke: rgb(239, 85, 59); stroke-opacity: 1; stroke-width: 2px;"/></g><g class="legendsymbols"><g class="legendpoints"/></g></g><rect class="legendtoggle" x="0" y="-9.5" width="116.671875" height="19" style="fill: rgb(0, 0, 0); fill-opacity: 0;"/></g><g class="traces" transform="translate(0,52.5)" style="opacity: 1;"><text class="legendtext" text-anchor="start" x="40" y="4.680000000000001" style="font-family: 'Open Sans', verdana, arial, sans-serif; font-size: 12px; fill: rgb(42, 63, 95); fill-opacity: 1; white-space: pre;">cas128kb</text><g class="layers" style="opacity: 1;"><g class="legendfill"/><g class="legendlines"><path class="js-line" d="M5,0h30" style="fill: none; stroke: rgb(0, 204, 150); stroke-opacity: 1; stroke-width: 2px;"/></g><g class="legendsymbols"><g class="legendpoints"/></g></g><rect class="legendtoggle" x="0" y="-9.5" width="116.671875" height="19" style="fill: rgb(0, 0, 0); fill-opacity: 0;"/></g><g class="traces" transform="translate(0,71.5)" style="opacity: 1;"><text class="legendtext" text-anchor="start" x="40" y="4.680000000000001" style="font-family: 'Open Sans', verdana, arial, sans-serif; font-size: 12px; fill: rgb(42, 63, 95); fill-opacity: 1; white-space: pre;">casopt128kb</text><g class="layers" style="opacity: 1;"><g class="legendfill"/><g class="legendlines"><path class="js-line" d="M5,0h30" style="fill: none; stroke: rgb(171, 99, 250); stroke-opacity: 1; stroke-width: 2px;"/></g><g class="legendsymbols"><g class="legendpoints"/></g></g><rect class="legendtoggle" x="0" y="-9.5" width="116.671875" height="19" style="fill: rgb(0, 0, 0); fill-opacity: 0;"/></g></g></g><rect class="scrollbar" rx="20" ry="3" width="0" height="0" x="0" y="0" style="fill: rgb(128, 139, 164); fill-opacity: 1;"/></g><g class="g-gtitle"/><g class="g-xtitle"><text class="xtitle" x="318" y="459.8" text-anchor="middle" style="font-family: 'Open Sans', verdana, arial, sans-serif; font-size: 14px; fill: rgb(42, 63, 95); opacity: 1; font-weight: normal; white-space: pre;">Seconds</text></g><g class="g-ytitle"><text class="ytitle" transform="rotate(-90,24.184375000000003,260)" x="24.184375000000003" y="260" text-anchor="middle" style="font-family: 'Open Sans', verdana, arial, sans-serif; font-size: 14px; fill: rgb(42, 63, 95); opacity: 1; font-weight: normal; white-space: pre;">Operations</text></g></g></svg>