<svg class="main-svg" xmlns="http://www.w3.org/2000/svg" xmlns:xlink="http://www.w3.org/1999/xlink" width="700" height="500" style="" viewBox="0 0 700 500"><rect x="0" y="0" width="700" height="500" style="fill: rgb(255, 255, 255); fill-opacity: 1;"/><defs id="defs-fde653"><g class="clips"><clipPath id="clipfde653xyplot" class="plotclip"><rect width="540" height="335"/></clipPath><clipPath class="axesclip" id="clipfde653x"><rect x="80" y="0" width="540" height="500"/></clipPath><clipPath class="axesclip" id="clipfde653y"><rect x="0" y="60" width="700" height="335"/></clipPath><clipPath class="axesclip" id="clipfde653xy"><rect x="80" y="60" width="540" height="335"/></clipPath></g><g class="gradients"/><g class="patterns"/></defs><g class="bglayer"><rect class="bg" x="80" y="60" width="540" height="335" style="fill: rgb(229, 236, 246); fill-opacity: 1; stroke-width: 0;"/></g><g class="layer-below"><g class="imagelayer"/><g class="shapelayer"/></g><g class="cartesianlayer"><g class="subplot xy"><g class="layer-subplot"><g class="shapelayer"/><g class="imagelayer"/></g><g class="minor-gridlayer"><g class="x"/><g class="y"/></g><g class="gridlayer"><g class="x"><path class="xgrid crisp" transform="translate(94.46000000000001,0)" d="M0,60v335" style="stroke: rgb(255, 255, 255); stroke-opacity: 1; stroke-width: 1px;"/><path class="xgrid crisp" transform="translate(108.91,0)" d="M0,60v335" style="stroke: rgb(255, 255, 255); stroke-opacity: 1; stroke-width: 1px;"/><path class="xgrid crisp" transform="translate(123.37,0)" d="M0,60v335" style="stroke: rgb(255, 255, 255); stroke-opacity: 1; stroke-width: 1px;"/><path class="xgrid crisp" transform="translate(137.82,0)" d="M0,60v335" style="stroke: rgb(255, 255, 255); stroke-opacity: 1; stroke-width: 1px;"/><path class="xgrid crisp" transform="translate(152.28,0)" d="M0,60v335" style="stroke: rgb(255, 255, 255); stroke-opacity: 1; stroke-width: 1px;"/><path class="xgrid crisp" transform="translate(166.73000000000002,0)" d="M0,60v335" style="stroke: rgb(255, 255, 255); stroke-opacity: 1; stroke-width: 1px;"/><path class="xgrid crisp" transform="translate(181.19,0)" d="M0,60v335" style="stroke: rgb(255, 255, 255); stroke-opacity: 1; stroke-width: 1px;"/><path class="xgrid crisp" transform="translate(195.64,0)" d="M0,60v335" style="stroke: rgb(255, 255, 255); stroke-opacity: 1; stroke-width: 1px;"/><path class="xgrid crisp" transform="translate(210.1,0)" d="M0,60v335" style="stroke: rgb(255, 255, 255); stroke-opacity: 1; stroke-width: 1px;"/><path class="xgrid crisp" transform="translate(224.55,0)" d="M0,60v335" style="stroke: rgb(255, 255, 255); stroke-opacity: 1; stroke-width: 1px;"/><path class="xgrid crisp" transform="translate(239.01,0)" d="M0,60v335" style="stroke: rgb(255, 255, 255); stroke-opacity: 1; stroke-width: 1px;"/><path class="xgrid crisp" transform="translate(253.46,0)" d="M0,60v335" style="stroke: rgb(255, 255, 255); stroke-opacity: 1; stroke-width: 1px;"/><path class="xgrid crisp" transform="translate(267.91999999999996,0)" d="M0,60v335" style="stroke: rgb(255, 255, 255); stroke-opacity: 1; stroke-width: 1px;"/><path class="xgrid crisp" transform="translate(282.37,0)" d="M0,60v335" style="stroke: rgb(255, 255, 255); stroke-opacity: 1; stroke-width: 1px;"/><path class="xgrid crisp" transform="translate(296.83000000000004,0)" d="M0,60v335" style="stroke: rgb(255, 255, 255); stroke-opacity: 1; stroke-width: 1px;"/><path class="xgrid crisp" transform="translate(311.28,0)" d="M0,60v335" style="stroke: rgb(255, 255, 255); stroke-opacity: 1; stroke-width: 1px;"/><path class="xgrid crisp" transform="translate(325.74,0)" d="M0,60v335" style="stroke: rgb(255, 255, 255); stroke-opacity: 1; stroke-width: 1px;"/><path class="xgrid crisp" transform="translate(340.19,0)" d="M0,60v335" style="stroke: rgb(255, 255, 255); stroke-opacity: 1; stroke-width: 1px;"/><path class="xgrid crisp" transform="translate(354.65,0)" d="M0,60v335" style="stroke: rgb(255, 255, 255); stroke-opacity: 1; stroke-width: 1px;"/><path class="xgrid crisp" transform="translate(369.1,0)" d="M0,60v335" style="stroke: rgb(255, 255, 255); stroke-opacity: 1; stroke-width: 1px;"/><path class="xgrid crisp" transform="translate(383.56,0)" d="M0,60v335" style="stroke: rgb(255, 255, 255); stroke-opacity: 1; stroke-width: 1px;"/><path class="xgrid crisp" transform="translate(398.01,0)" d="M0,60v335" style="stroke: rgb(255, 255, 255); stroke-opacity: 1; stroke-width: 1px;"/><path class="xgrid crisp" transform="translate(412.47,0)" d="M0,60v335" style="stroke: rgb(255, 255, 255); stroke-opacity: 1; stroke-width: 1px;"/><path class="xgrid crisp" transform="translate(426.92,0)" d="M0,60v335" style="stroke: rgb(255, 255, 255); stroke-opacity: 1; stroke-width: 1px;"/><path class="xgrid crisp" transform="translate(441.38,0)" d="M0,60v335" style="stroke: rgb(255, 255, 255); stroke-opacity: 1; stroke-width: 1px;"/><path class="xgrid crisp" transform="translate(455.83,0)" d="M0,60v335" style="stroke: rgb(255, 255, 255); stroke-opacity: 1; stroke-width: 1px;"/><path class="xgrid crisp" transform="translate(470.29,0)" d="M0,60v335" style="stroke: rgb(255, 255, 255); stroke-opacity: 1; stroke-width: 1px;"/><path class="xgrid crisp" transform="translate(484.74,0)" d="M0,60v335" style="stroke: rgb(255, 255, 255); stroke-opacity: 1; stroke-width: 1px;"/><path class="xgrid crisp" transform="translate(499.2,0)" d="M0,60v335" style="stroke: rgb(255, 255, 255); stroke-opacity: 1; stroke-width: 1px;"/><path class="xgrid crisp" transform="translate(513.65,0)" d="M0,60v335" style="stroke: rgb(255, 255, 255); stroke-opacity: 1; stroke-width: 1px;"/><path class="xgrid crisp" transform="translate(528.11,0)" d="M0,60v335" style="stroke: rgb(255, 255, 255); stroke-opacity: 1; stroke-width: 1px;"/><path class="xgrid crisp" transform="translate(542.56,0)" d="M0,60v335" style="stroke: rgb(255, 255, 255); stroke-opacity: 1; stroke-width: 1px;"/><path class="xgrid crisp" transform="translate(557.02,0)" d="M0,60v335" style="stroke: rgb(255, 255, 255); stroke-opacity: 1; stroke-width: 1px;"/><path class="xgrid crisp" transform="translate(571.47,0)" d="M0,60v335" style="stroke: rgb(255, 255, 255); stroke-opacity: 1; stroke-width: 1px;"/><path class="xgrid crisp" transform="translate(585.9300000000001,0)" d="M0,60v335" style="stroke: rgb(255, 255, 255); stroke-opacity: 1; stroke-width: 1px;"/><path class="xgrid crisp" transform="translate(600.38,0)" d="M0,60v335" style="stroke: rgb(255, 255, 255); stroke-opacity: 1; stroke-width: 1px;"/><path class="xgrid crisp" transform="translate(614.84,0)" d="M0,60v335" style="stroke: rgb(255, 255, 255); stroke-opacity: 1; stroke-width: 1px;"/></g><g class="y"><path class="ygrid crisp" transform="translate(0,384.72)" d="M80,0h540" style="stroke: rgb(255, 255, 255); stroke-opacity: 1; stroke-width: 1px;"/><path class="ygrid crisp" transform="translate(0,330.79)" d="M80,0h540" style="stroke: rgb(255, 255, 255); stroke-opacity: 1; stroke-width: 1px;"/><path class="ygrid crisp" transform="translate(0,276.85)" d="M80,0h540" style="stroke: rgb(255, 255, 255); stroke-opacity: 1; stroke-width: 1px;"/><path class="ygrid crisp" transform="translate(0,222.92)" d="M80,0h540" style="stroke: rgb(255, 255, 255); stroke-opacity: 1; stroke-width: 1px;"/><path class="ygrid crisp" transform="translate(0,168.98000000000002)" d="M80,0h540" style="stroke: rgb(255, 255, 255); stroke-opacity: 1; stroke-width: 1px;"/><path class="ygrid crisp" transform="translate(0,115.03999999999999)" d="M80,0h540" style="stroke: rgb(255, 255, 255); stroke-opacity: 1; stroke-width: 1px;"/><path class="ygrid crisp" transform="translate(0,61.11)" d="M80,0h540" style="stroke: rgb(255, 255, 255); stroke-opacity: 1; stroke-width: 1px;"/></g></g><g class="zerolinelayer"/><path class="xlines-below"/><path class="ylines-below"/><g class="overlines-below"/><g class="xaxislayer-below"/><g class="yaxislayer-below"/><g class="overaxes-below"/><g class="plot" transform="translate(80,60)" clip-path="url(#clipfde653xyplot)"><g class="scatterlayer mlayer"><g class="trace scatter traceb32098" style="stroke-miterlimit: 2; opacity: 1;"><g class="fills"/><g class="errorbars"/><g class="lines"><path class="js-line" d="M0,293.44L1.03,120.31L2.07,113.83L3.1,158.6L4.13,114.91L5.16,176.4L6.2,182.87L7.23,113.83L8.26,122.94L9.29,125.16L10.33,131.63L12.39,114.91L13.42,155.9L14.46,162.38L15.49,99.27L16.52,122.46L17.55,113.29L18.59,123.54L19.62,93.88L20.65,113.83L21.68,114.91L22.72,119.16L23.75,106.82L24.78,105.74L25.81,74.46L26.85,176.94L27.88,87.41L28.91,89.02L29.94,77.7L30.98,76.08L32.01,57.2L33.04,79.32L34.07,175.86L35.11,99.23L36.14,113.29L37.17,200.13L38.2,185.57L39.24,160.76L40.27,73.92L42.33,199.59L43.37,187.19L44.4,206.6L45.43,142.42L46.46,141.88L47.5,236.27L49.56,75.54L50.59,66.37L51.63,153.75L52.66,127.86L53.69,121.39L54.72,165.61L55.76,80.39L56.79,116.53L58.85,150.51L59.89,318.25L60.92,139.72L61.95,139.64L62.98,115.45L64.02,60.98L65.05,133.25L66.08,126.24L68.15,149.97L69.18,72.3L70.21,71.76L71.24,107.9L72.28,109.52L73.31,75L74.34,80.39L75.37,159.04L76.41,89.56L77.44,119.23L78.47,125.16L79.5,89.56L80.54,86.87L81.57,102.51L82.6,84.71L83.63,136.49L84.67,155.36L85.7,106.28L86.73,76.62L87.76,69.61L88.8,88.45L89.83,58.28L90.86,151.05L91.89,101.43L92.93,86.87L93.96,93.34L96.02,171.01L97.06,156.98L98.09,130.55L99.12,167.77L100.15,173.7L101.19,140.18L102.22,104.13L103.25,119.23L104.28,119.23L105.32,113.83L106.35,114.91L107.38,111.14L109.45,94.96L110.48,106.28L111.51,108.98L112.54,76.62L113.58,109.52L114.61,60.97L115.64,73.92L116.67,154.29L117.71,91.18L118.74,83.09L119.77,221.71L120.8,117.07L121.84,82.55L122.87,112.76L123.9,60.44L124.93,85.79L125.97,137.03L127,101.43L130.1,218.47L131.13,200.13L132.16,134.87L133.19,234.65L134.23,91.18L135.26,80.93L138.36,256.76L139.39,167.23L140.42,154.29L141.45,75.54L142.49,93.3L143.52,138.11L144.55,99.27L145.58,107.9L146.62,146.73L147.65,103.05L148.68,210.92L149.71,104.67L150.75,141.34L151.78,107.9L152.81,108.98L153.84,133.25L154.88,107.31L155.91,110.06L156.94,112.76L157.97,97.11L159.01,86.87L160.04,93.88L162.1,90.1L163.14,78.78L164.17,147.27L165.2,151.59L167.27,92.76L168.3,79.32L169.33,79.85L170.36,73.38L171.4,97.11L172.43,84.71L173.46,92.26L174.49,135.41L175.53,112.22L176.56,113.83L177.59,212.54L178.62,212.54L179.66,212L180.69,209.15L181.72,210.38L182.75,98.19L183.79,105.2L184.82,172.08L185.85,84.71L186.88,149.43L187.92,152.13L188.95,132.71L191.01,108.98L192.05,217.93L193.08,80.93L194.11,90.07L195.14,155.9L196.18,136.49L197.21,107.9L198.24,151.59L199.27,86.87L200.31,94.96L201.34,156.98L202.37,82.55L203.4,79.32L204.44,112.22L205.47,89.56L206.5,172.62L207.53,95.46L208.57,127.86L209.6,66.37L210.63,75L211.66,74.46L212.7,53.97L213.73,53.97L214.76,101.97L216.83,124.08L217.86,159.14L218.89,174.78L219.92,146.2L220.96,82.52L221.99,106.82L223.02,130.01L224.05,113.83L225.09,139.72L226.12,120.31L227.15,125.16L228.18,125.7L229.22,133.25L230.25,125.16L232.31,147.27L233.35,93.88L234.38,101.38L235.41,209.3L236.44,189.88L237.48,134.33L240.57,90.1L241.61,56.66L242.64,64.75L243.67,80.93L244.7,57.74L245.74,76.62L246.77,72.83L247.8,53.43L248.83,73.92L249.87,172.08L250.9,69.07L251.93,56.66L252.96,151.59L254,87.41L255.03,94.96L256.06,141.34L257.09,132.17L258.13,99.27L259.16,166.15L260.19,181.13L261.22,148.35L262.26,257.3L263.29,215.77L264.32,121.39L265.35,103.05L266.39,144.58L267.42,91.72L268.45,98.73L269.48,135.95L270.52,139.72L271.55,90.1L272.58,124.08L273.61,157.96L274.65,123L275.68,107.36L276.71,141.34L277.74,143.5L278.78,185.57L279.81,181.25L280.84,148.35L281.87,89.56L282.91,73.38L283.94,100.89L284.97,78.78L286,86.87L287.04,138.56L289.1,91.18L290.13,167.23L291.17,189.88L292.2,186.65L293.23,178.02L294.26,208.22L296.33,183.41L297.36,186.11L298.39,179.64L299.43,185.03L300.46,152.57L301.49,149.97L302.52,123.54L303.56,154.83L305.62,124.62L306.65,147.81L308.72,179.64L309.75,113.83L310.78,169.39L311.82,164.53L312.85,157.96L313.88,131.09L314.91,115.45L315.95,120.85L316.98,123L318.01,120.85L319.04,132.71L320.08,111.68L321.11,117.07L322.14,176.94L323.17,131.63L324.21,317.71L325.24,133.79L326.27,113.78L328.34,85.79L329.37,97.11L330.4,85.79L331.43,110.6L332.47,63.13L333.5,189.34L334.53,92.8L335.56,99.81L336.6,192.04L337.63,151.59L338.66,98.69L339.69,168.85L340.73,140.8L341.76,82.01L342.79,117.61L343.82,92.8L344.86,84.71L345.89,124.62L346.92,62.06L347.95,90.64L348.99,121.92L350.02,94.42L351.05,217.93L352.08,155.26L353.12,196.36L354.15,100.89L355.18,85.79L356.21,91.72L357.25,52.35L358.28,57.74L359.31,135.41L360.34,58.28L361.38,44.26L362.41,60.98L363.44,51.81L364.47,32.93L366.54,80.39L367.57,39.94L368.6,41.02L369.64,159.68L371.7,69.61L372.73,100.89L373.77,93.34L374.8,124.62L375.83,155.36L376.86,85.79L377.9,84.17L378.93,163.99L379.96,101.92L380.99,120.31L382.03,85.79L383.06,171.01L384.09,159.68L385.12,184.49L386.16,165.07L387.19,119.23L389.25,44.26L390.29,63.13L391.32,41.02L392.35,46.95L393.38,56.12L394.42,48.04L395.45,49.65L396.48,76.08L397.51,82.55L398.55,45.88L399.58,39.94L400.61,114.37L402.68,17.83L403.71,107.9L404.74,57.74L405.77,66.37L406.81,180.71L407.84,57.2L408.87,38.34L409.9,76.08L410.94,40.48L411.97,42.64L413,151.05L414.03,87.94L415.07,140.26L416.1,126.78L417.13,35.09L418.16,47.49L419.2,86.33L420.23,43.72L421.26,59.9L422.29,52.89L423.33,131.02L424.36,72.84L425.39,77.7L426.42,135.95L427.46,70.69L428.49,110.6L429.52,166.15L430.55,64.75L432.62,78.78L433.65,71.76L436.75,247.06L437.78,231.41L438.81,223.16L439.85,254.61L441.91,222.78L442.94,152.13L445.01,50.19L446.04,24.84L447.07,46.95L448.11,31.31L450.17,83.63L451.2,49.65L452.24,63.67L453.27,51.81L454.3,75L455.33,60.44L456.37,46.95L457.4,55.04L458.43,103.59L459.46,73.38L460.5,70.15L461.53,54.5L462.56,64.75L463.59,109.52L464.63,19.45L465.66,25.92L466.69,87.94L467.72,103.54L468.76,75L469.79,72.84L470.82,147.81L471.85,59.36L473.92,119.23L474.95,48.57L475.98,50.73L477.02,124.08L478.05,58.82L479.08,63.13L480.11,100.35L481.15,59.9L482.18,99.77L483.21,91.72L484.24,60.98L485.28,66.91L486.31,51.81L487.34,96.04L488.37,27.54L489.41,54.5L490.44,84.17L491.47,194.74L492.5,23.76L493.54,75.54L494.57,29.69L495.6,50.19L496.63,80.91L497.67,17.29L498.7,16.75L499.73,67.45L500.76,100.89L501.8,31.31L502.83,63.67L503.86,27.54L505.93,106.28L506.96,80.39L507.99,77.16L509.02,63.13L510.06,75.52L511.09,132.71L512.12,91.72L513.15,120.31L514.19,111.68L515.22,63.13L516.25,51.27L517.28,131.63L518.32,98.19L519.35,127.32L520.38,77.16L521.41,83.63L524.51,60.97L525.54,67.98L526.58,57.2L527.61,57.2L528.64,78.78L529.67,66.37L530.71,57.74L531.74,67.98L532.77,36.17L533.8,51.27L534.84,111.14L535.87,115.99L536.9,81.47L537.93,84.17L538.97,60.98L540,65.29" style="vector-effect: none; fill: none; stroke: rgb(99, 110, 250); stroke-opacity: 1; stroke-width: 2px; opacity: 1;"/></g><g class="points"/><g class="text"/></g></g></g><g class="overplot"/><path class="xlines-above crisp" d="M0,0" style="fill: none;"/><path class="ylines-above crisp" d="M0,0" style="fill: none;"/><g class="overlines-above"/><g class="xaxislayer-above"><g class="xtick"><text text-anchor="start" x="0" y="408" transform="translate(80,0) rotate(90,0,402)" style="font-family: 'Open Sans', verdana, arial, sans-serif; font-size: 12px; fill: rgb(42, 63, 95); fill-opacity: 1; white-space: pre; opacity: 1;"> 14:42:41</text></g><g class="xtick"><text text-anchor="start" x="0" y="408" transform="translate(94.46000000000001,0) rotate(90,0,402)" style="font-family: 'Open Sans', verdana, arial, sans-serif; font-size: 12px; fill: rgb(42, 63, 95); fill-opacity: 1; white-space: pre; opacity: 1;"> 14:42:55</text></g><g class="xtick"><text text-anchor="start" x="0" y="408" transform="translate(108.91,0) rotate(90,0,402)" style="font-family: 'Open Sans', verdana, arial, sans-serif; font-size: 12px; fill: rgb(42, 63, 95); fill-opacity: 1; white-space: pre; opacity: 1;"> 14:43:09</text></g><g class="xtick"><text text-anchor="start" x="0" y="408" transform="translate(123.37,0) rotate(90,0,402)" style="font-family: 'Open Sans', verdana, arial, sans-serif; font-size: 12px; fill: rgb(42, 63, 95); fill-opacity: 1; white-space: pre; opacity: 1;"> 14:43:23</text></g><g class="xtick"><text text-anchor="start" x="0" y="408" transform="translate(137.82,0) rotate(90,0,402)" style="font-family: 'Open Sans', verdana, arial, sans-serif; font-size: 12px; fill: rgb(42, 63, 95); fill-opacity: 1; white-space: pre; opacity: 1;"> 14:43:37</text></g><g class="xtick"><text text-anchor="start" x="0" y="408" transform="translate(152.28,0) rotate(90,0,402)" style="font-family: 'Open Sans', verdana, arial, sans-serif; font-size: 12px; fill: rgb(42, 63, 95); fill-opacity: 1; white-space: pre; opacity: 1;"> 14:43:51</text></g><g class="xtick"><text text-anchor="start" x="0" y="408" transform="translate(166.73000000000002,0) rotate(90,0,402)" style="font-family: 'Open Sans', verdana, arial, sans-serif; font-size: 12px; fill: rgb(42, 63, 95); fill-opacity: 1; white-space: pre; opacity: 1;"> 14:44:05</text></g><g class="xtick"><text text-anchor="start" x="0" y="408" transform="translate(181.19,0) rotate(90,0,402)" style="font-family: 'Open Sans', verdana, arial, sans-serif; font-size: 12px; fill: rgb(42, 63, 95); fill-opacity: 1; white-space: pre; opacity: 1;"> 14:44:19</text></g><g class="xtick"><text text-anchor="start" x="0" y="408" transform="translate(195.64,0) rotate(90,0,402)" style="font-family: 'Open Sans', verdana, arial, sans-serif; font-size: 12px; fill: rgb(42, 63, 95); fill-opacity: 1; white-space: pre; opacity: 1;"> 14:44:33</text></g><g class="xtick"><text text-anchor="start" x="0" y="408" transform="translate(210.1,0) rotate(90,0,402)" style="font-family: 'Open Sans', verdana, arial, sans-serif; font-size: 12px; fill: rgb(42, 63, 95); fill-opacity: 1; white-space: pre; opacity: 1;"> 14:44:47</text></g><g class="xtick"><text text-anchor="start" x="0" y="408" transform="translate(224.55,0) rotate(90,0,402)" style="font-family: 'Open Sans', verdana, arial, sans-serif; font-size: 12px; fill: rgb(42, 63, 95); fill-opacity: 1; white-space: pre; opacity: 1;"> 14:45:01</text></g><g class="xtick"><text text-anchor="start" x="0" y="408" transform="translate(239.01,0) rotate(90,0,402)" style="font-family: 'Open Sans', verdana, arial, sans-serif; font-size: 12px; fill: rgb(42, 63, 95); fill-opacity: 1; white-space: pre; opacity: 1;"> 14:45:15</text></g><g class="xtick"><text text-anchor="start" x="0" y="408" transform="translate(253.46,0) rotate(90,0,402)" style="font-family: 'Open Sans', verdana, arial, sans-serif; font-size: 12px; fill: rgb(42, 63, 95); fill-opacity: 1; white-space: pre; opacity: 1;"> 14:45:29</text></g><g class="xtick"><text text-anchor="start" x="0" y="408" transform="translate(267.91999999999996,0) rotate(90,0,402)" style="font-family: 'Open Sans', verdana, arial, sans-serif; font-size: 12px; fill: rgb(42, 63, 95); fill-opacity: 1; white-space: pre; opacity: 1;"> 14:45:43</text></g><g class="xtick"><text text-anchor="start" x="0" y="408" transform="translate(282.37,0) rotate(90,0,402)" style="font-family: 'Open Sans', verdana, arial, sans-serif; font-size: 12px; fill: rgb(42, 63, 95); fill-opacity: 1; white-space: pre; opacity: 1;"> 14:45:57</text></g><g class="xtick"><text text-anchor="start" x="0" y="408" transform="translate(296.83000000000004,0) rotate(90,0,402)" style="font-family: 'Open Sans', verdana, arial, sans-serif; font-size: 12px; fill: rgb(42, 63, 95); fill-opacity: 1; white-space: pre; opacity: 1;"> 14:46:11</text></g><g class="xtick"><text text-anchor="start" x="0" y="408" transform="translate(311.28,0) rotate(90,0,402)" style="font-family: 'Open Sans', verdana, arial, sans-serif; font-size: 12px; fill: rgb(42, 63, 95); fill-opacity: 1; white-space: pre; opacity: 1;"> 14:46:25</text></g><g class="xtick"><text text-anchor="start" x="0" y="408" transform="translate(325.74,0) rotate(90,0,402)" style="font-family: 'Open Sans', verdana, arial, sans-serif; font-size: 12px; fill: rgb(42, 63, 95); fill-opacity: 1; white-space: pre; opacity: 1;"> 14:46:39</text></g><g class="xtick"><text text-anchor="start" x="0" y="408" transform="translate(340.19,0) rotate(90,0,402)" style="font-family: 'Open Sans', verdana, arial, sans-serif; font-size: 12px; fill: rgb(42, 63, 95); fill-opacity: 1; white-space: pre; opacity: 1;"> 14:46:53</text></g><g class="xtick"><text text-anchor="start" x="0" y="408" transform="translate(354.65,0) rotate(90,0,402)" style="font-family: 'Open Sans', verdana, arial, sans-serif; font-size: 12px; fill: rgb(42, 63, 95); fill-opacity: 1; white-space: pre; opacity: 1;"> 14:47:07</text></g><g class="xtick"><text text-anchor="start" x="0" y="408" transform="translate(369.1,0) rotate(90,0,402)" style="font-family: 'Open Sans', verdana, arial, sans-serif; font-size: 12px; fill: rgb(42, 63, 95); fill-opacity: 1; white-space: pre; opacity: 1;"> 14:47:21</text></g><g class="xtick"><text text-anchor="start" x="0" y="408" transform="translate(383.56,0) rotate(90,0,402)" style="font-family: 'Open Sans', verdana, arial, sans-serif; font-size: 12px; fill: rgb(42, 63, 95); fill-opacity: 1; white-space: pre; opacity: 1;"> 14:47:35</text></g><g class="xtick"><text text-anchor="start" x="0" y="408" transform="translate(398.01,0) rotate(90,0,402)" style="font-family: 'Open Sans', verdana, arial, sans-serif; font-size: 12px; fill: rgb(42, 63, 95); fill-opacity: 1; white-space: pre; opacity: 1;"> 14:47:49</text></g><g class="xtick"><text text-anchor="start" x="0" y="408" transform="translate(412.47,0) rotate(90,0,402)" style="font-family: 'Open Sans', verdana, arial, sans-serif; font-size: 12px; fill: rgb(42, 63, 95); fill-opacity: 1; white-space: pre; opacity: 1;"> 14:48:03</text></g><g class="xtick"><text text-anchor="start" x="0" y="408" transform="translate(426.92,0) rotate(90,0,402)" style="font-family: 'Open Sans', verdana, arial, sans-serif; font-size: 12px; fill: rgb(42, 63, 95); fill-opacity: 1; white-space: pre; opacity: 1;"> 14:48:17</text></g><g class="xtick"><text text-anchor="start" x="0" y="408" transform="translate(441.38,0) rotate(90,0,402)" style="font-family: 'Open Sans', verdana, arial, sans-serif; font-size: 12px; fill: rgb(42, 63, 95); fill-opacity: 1; white-space: pre; opacity: 1;"> 14:48:31</text></g><g class="xtick"><text text-anchor="start" x="0" y="408" transform="translate(455.83,0) rotate(90,0,402)" style="font-family: 'Open Sans', verdana, arial, sans-serif; font-size: 12px; fill: rgb(42, 63, 95); fill-opacity: 1; white-space: pre; opacity: 1;"> 14:48:45</text></g><g class="xtick"><text text-anchor="start" x="0" y="408" transform="translate(470.29,0) rotate(90,0,402)" style="font-family: 'Open Sans', verdana, arial, sans-serif; font-size: 12px; fill: rgb(42, 63, 95); fill-opacity: 1; white-space: pre; opacity: 1;"> 14:48:59</text></g><g class="xtick"><text text-anchor="start" x="0" y="408" transform="translate(484.74,0) rotate(90,0,402)" style="font-family: 'Open Sans', verdana, arial, sans-serif; font-size: 12px; fill: rgb(42, 63, 95); fill-opacity: 1; white-space: pre; opacity: 1;"> 14:49:13</text></g><g class="xtick"><text text-anchor="start" x="0" y="408" transform="translate(499.2,0) rotate(90,0,402)" style="font-family: 'Open Sans', verdana, arial, sans-serif; font-size: 12px; fill: rgb(42, 63, 95); fill-opacity: 1; white-space: pre; opacity: 1;"> 14:49:27</text></g><g class="xtick"><text text-anchor="start" x="0" y="408" transform="translate(513.65,0) rotate(90,0,402)" style="font-family: 'Open Sans', verdana, arial, sans-serif; font-size: 12px; fill: rgb(42, 63, 95); fill-opacity: 1; white-space: pre; opacity: 1;"> 14:49:41</text></g><g class="xtick"><text text-anchor="start" x="0" y="408" transform="translate(528.11,0) rotate(90,0,402)" style="font-family: 'Open Sans', verdana, arial, sans-serif; font-size: 12px; fill: rgb(42, 63, 95); fill-opacity: 1; white-space: pre; opacity: 1;"> 14:49:55</text></g><g class="xtick"><text text-anchor="start" x="0" y="408" transform="translate(542.56,0) rotate(90,0,402)" style="font-family: 'Open Sans', verdana, arial, sans-serif; font-size: 12px; fill: rgb(42, 63, 95); fill-opacity: 1; white-space: pre; opacity: 1;"> 14:50:09</text></g><g class="xtick"><text text-anchor="start" x="0" y="408" transform="translate(557.02,0) rotate(90,0,402)" style="font-family: 'Open Sans', verdana, arial, sans-serif; font-size: 12px; fill: rgb(42, 63, 95); fill-opacity: 1; white-space: pre; opacity: 1;"> 14:50:23</text></g><g class="xtick"><text text-anchor="start" x="0" y="408" transform="translate(571.47,0) rotate(90,0,402)" style="font-family: 'Open Sans', verdana, arial, sans-serif; font-size: 12px; fill: rgb(42, 63, 95); fill-opacity: 1; white-space: pre; opacity: 1;"> 14:50:37</text></g><g class="xtick"><text text-anchor="start" x="0" y="408" transform="translate(585.9300000000001,0) rotate(90,0,402)" style="font-family: 'Open Sans', verdana, arial, sans-serif; font-size: 12px; fill: rgb(42, 63, 95); fill-opacity: 1; white-space: pre; opacity: 1;"> 14:50:51</text></g><g class="xtick"><text text-anchor="start" x="0" y="408" transform="translate(600.38,0) rotate(90,0,402)" style="font-family: 'Open Sans', verdana, arial, sans-serif; font-size: 12px; fill: rgb(42, 63, 95); fill-opacity: 1; white-space: pre; opacity: 1;"> 14:51:05</text></g><g class="xtick"><text text-anchor="start" x="0" y="408" transform="translate(614.84,0) rotate(90,0,402)" style="font-family: 'Open Sans', verdana, arial, sans-serif; font-size: 12px; fill: rgb(42, 63, 95); fill-opacity: 1; white-space: pre; opacity: 1;"> 14:51:19</text></g></g><g class="yaxislayer-above"><g class="ytick"><text text-anchor="end" x="79" y="4.199999999999999" transform="translate(0,384.72)" style="font-family: 'Open Sans', verdana, arial, sans-serif; font-size: 12px; fill: rgb(42, 63, 95); fill-opacity: 1; white-space: pre; opacity: 1;">2500</text></g><g class="ytick"><text text-anchor="end" x="79" y="4.199999999999999" style="font-family: 'Open Sans', verdana, arial, sans-serif; font-size: 12px; fill: rgb(42, 63, 95); fill-opacity: 1; white-space: pre; opacity: 1;" transform="translate(0,330.79)">2600</text></g><g class="ytick"><text text-anchor="end" x="79" y="4.199999999999999" style="font-family: 'Open Sans', verdana, arial, sans-serif; font-size: 12px; fill: rgb(42, 63, 95); fill-opacity: 1; white-space: pre; opacity: 1;" transform="translate(0,276.85)">2700</text></g><g class="ytick"><text text-anchor="end" x="79" y="4.199999999999999" style="font-family: 'Open Sans', verdana, arial, sans-serif; font-size: 12px; fill: rgb(42, 63, 95); fill-opacity: 1; white-space: pre; opacity: 1;" transform="translate(0,222.92)">2800</text></g><g class="ytick"><text text-anchor="end" x="79" y="4.199999999999999" style="font-family: 'Open Sans', verdana, arial, sans-serif; font-size: 12px; fill: rgb(42, 63, 95); fill-opacity: 1; white-space: pre; opacity: 1;" transform="translate(0,168.98000000000002)">2900</text></g><g class="ytick"><text text-anchor="end" x="79" y="4.199999999999999" style="font-family: 'Open Sans', verdana, arial, sans-serif; font-size: 12px; fill: rgb(42, 63, 95); fill-opacity: 1; white-space: pre; opacity: 1;" transform="translate(0,115.03999999999999)">3000</text></g><g class="ytick"><text text-anchor="end" x="79" y="4.199999999999999" style="font-family: 'Open Sans', verdana, arial, sans-serif; font-size: 12px; fill: rgb(42, 63, 95); fill-opacity: 1; white-space: pre; opacity: 1;" transform="translate(0,61.11)">3100</text></g></g><g class="overaxes-above"/></g></g><g class="polarlayer"/><g class="smithlayer"/><g class="ternarylayer"/><g class="geolayer"/><g class="funnelarealayer"/><g class="pielayer"/><g class="iciclelayer"/><g class="treemaplayer"/><g class="sunburstlayer"/><g class="glimages"/><defs id="topdefs-fde653"><g class="clips"/></defs><g class="layer-above"><g class="imagelayer"/><g class="shapelayer"/></g><g class="infolayer"><g class="g-gtitle"/><g class="g-xtitle"><text class="xtitle" x="350" y="487.190625" text-anchor="middle" style="font-family: 'Open Sans', verdana, arial, sans-serif; font-size: 14px; fill: rgb(42, 63, 95); opacity: 1; font-weight: normal; white-space: pre;">timestamp</text></g><g class="g-ytitle"><text class="ytitle" transform="rotate(-90,24.184375000000003,227.5)" x="24.184375000000003" y="227.5" text-anchor="middle" style="font-family: 'Open Sans', verdana, arial, sans-serif; font-size: 14px; fill: rgb(42, 63, 95); opacity: 1; font-weight: normal; white-space: pre;">operations/second</text></g></g></svg>