<svg class="main-svg" xmlns="http://www.w3.org/2000/svg" xmlns:xlink="http://www.w3.org/1999/xlink" width="700" height="500" style="" viewBox="0 0 700 500"><rect x="0" y="0" width="700" height="500" style="fill: rgb(255, 255, 255); fill-opacity: 1;"/><defs id="defs-81dd5b"><g class="clips"><clipPath id="clip81dd5bxyplot" class="plotclip"><rect width="540" height="335"/></clipPath><clipPath class="axesclip" id="clip81dd5bx"><rect x="80" y="0" width="540" height="500"/></clipPath><clipPath class="axesclip" id="clip81dd5by"><rect x="0" y="60" width="700" height="335"/></clipPath><clipPath class="axesclip" id="clip81dd5bxy"><rect x="80" y="60" width="540" height="335"/></clipPath></g><g class="gradients"/><g class="patterns"/></defs><g class="bglayer"><rect class="bg" x="80" y="60" width="540" height="335" style="fill: rgb(229, 236, 246); fill-opacity: 1; stroke-width: 0;"/></g><g class="layer-below"><g class="imagelayer"/><g class="shapelayer"/></g><g class="cartesianlayer"><g class="subplot xy"><g class="layer-subplot"><g class="shapelayer"/><g class="imagelayer"/></g><g class="minor-gridlayer"><g class="x"/><g class="y"/></g><g class="gridlayer"><g class="x"><path class="xgrid crisp" transform="translate(94.45,0)" d="M0,60v335" style="stroke: rgb(255, 255, 255); stroke-opacity: 1; stroke-width: 1px;"/><path class="xgrid crisp" transform="translate(108.9,0)" d="M0,60v335" style="stroke: rgb(255, 255, 255); stroke-opacity: 1; stroke-width: 1px;"/><path class="xgrid crisp" transform="translate(123.34,0)" d="M0,60v335" style="stroke: rgb(255, 255, 255); stroke-opacity: 1; stroke-width: 1px;"/><path class="xgrid crisp" transform="translate(137.79,0)" d="M0,60v335" style="stroke: rgb(255, 255, 255); stroke-opacity: 1; stroke-width: 1px;"/><path class="xgrid crisp" transform="translate(152.24,0)" d="M0,60v335" style="stroke: rgb(255, 255, 255); stroke-opacity: 1; stroke-width: 1px;"/><path class="xgrid crisp" transform="translate(166.69,0)" d="M0,60v335" style="stroke: rgb(255, 255, 255); stroke-opacity: 1; stroke-width: 1px;"/><path class="xgrid crisp" transform="translate(181.14,0)" d="M0,60v335" style="stroke: rgb(255, 255, 255); stroke-opacity: 1; stroke-width: 1px;"/><path class="xgrid crisp" transform="translate(195.59,0)" d="M0,60v335" style="stroke: rgb(255, 255, 255); stroke-opacity: 1; stroke-width: 1px;"/><path class="xgrid crisp" transform="translate(210.03,0)" d="M0,60v335" style="stroke: rgb(255, 255, 255); stroke-opacity: 1; stroke-width: 1px;"/><path class="xgrid crisp" transform="translate(224.48,0)" d="M0,60v335" style="stroke: rgb(255, 255, 255); stroke-opacity: 1; stroke-width: 1px;"/><path class="xgrid crisp" transform="translate(238.93,0)" d="M0,60v335" style="stroke: rgb(255, 255, 255); stroke-opacity: 1; stroke-width: 1px;"/><path class="xgrid crisp" transform="translate(253.38,0)" d="M0,60v335" style="stroke: rgb(255, 255, 255); stroke-opacity: 1; stroke-width: 1px;"/><path class="xgrid crisp" transform="translate(267.83000000000004,0)" d="M0,60v335" style="stroke: rgb(255, 255, 255); stroke-opacity: 1; stroke-width: 1px;"/><path class="xgrid crisp" transform="translate(282.27,0)" d="M0,60v335" style="stroke: rgb(255, 255, 255); stroke-opacity: 1; stroke-width: 1px;"/><path class="xgrid crisp" transform="translate(296.72,0)" d="M0,60v335" style="stroke: rgb(255, 255, 255); stroke-opacity: 1; stroke-width: 1px;"/><path class="xgrid crisp" transform="translate(311.16999999999996,0)" d="M0,60v335" style="stroke: rgb(255, 255, 255); stroke-opacity: 1; stroke-width: 1px;"/><path class="xgrid crisp" transform="translate(325.62,0)" d="M0,60v335" style="stroke: rgb(255, 255, 255); stroke-opacity: 1; stroke-width: 1px;"/><path class="xgrid crisp" transform="translate(340.07,0)" d="M0,60v335" style="stroke: rgb(255, 255, 255); stroke-opacity: 1; stroke-width: 1px;"/><path class="xgrid crisp" transform="translate(354.52,0)" d="M0,60v335" style="stroke: rgb(255, 255, 255); stroke-opacity: 1; stroke-width: 1px;"/><path class="xgrid crisp" transform="translate(368.96,0)" d="M0,60v335" style="stroke: rgb(255, 255, 255); stroke-opacity: 1; stroke-width: 1px;"/><path class="xgrid crisp" transform="translate(383.41,0)" d="M0,60v335" style="stroke: rgb(255, 255, 255); stroke-opacity: 1; stroke-width: 1px;"/><path class="xgrid crisp" transform="translate(397.86,0)" d="M0,60v335" style="stroke: rgb(255, 255, 255); stroke-opacity: 1; stroke-width: 1px;"/><path class="xgrid crisp" transform="translate(412.31,0)" d="M0,60v335" style="stroke: rgb(255, 255, 255); stroke-opacity: 1; stroke-width: 1px;"/><path class="xgrid crisp" transform="translate(426.76,0)" d="M0,60v335" style="stroke: rgb(255, 255, 255); stroke-opacity: 1; stroke-width: 1px;"/><path class="xgrid crisp" transform="translate(441.2,0)" d="M0,60v335" style="stroke: rgb(255, 255, 255); stroke-opacity: 1; stroke-width: 1px;"/><path class="xgrid crisp" transform="translate(455.65,0)" d="M0,60v335" style="stroke: rgb(255, 255, 255); stroke-opacity: 1; stroke-width: 1px;"/><path class="xgrid crisp" transform="translate(470.1,0)" d="M0,60v335" style="stroke: rgb(255, 255, 255); stroke-opacity: 1; stroke-width: 1px;"/><path class="xgrid crisp" transform="translate(484.55,0)" d="M0,60v335" style="stroke: rgb(255, 255, 255); stroke-opacity: 1; stroke-width: 1px;"/><path class="xgrid crisp" transform="translate(499,0)" d="M0,60v335" style="stroke: rgb(255, 255, 255); stroke-opacity: 1; stroke-width: 1px;"/><path class="xgrid crisp" transform="translate(513.44,0)" d="M0,60v335" style="stroke: rgb(255, 255, 255); stroke-opacity: 1; stroke-width: 1px;"/><path class="xgrid crisp" transform="translate(527.89,0)" d="M0,60v335" style="stroke: rgb(255, 255, 255); stroke-opacity: 1; stroke-width: 1px;"/><path class="xgrid crisp" transform="translate(542.3399999999999,0)" d="M0,60v335" style="stroke: rgb(255, 255, 255); stroke-opacity: 1; stroke-width: 1px;"/><path class="xgrid crisp" transform="translate(556.79,0)" d="M0,60v335" style="stroke: rgb(255, 255, 255); stroke-opacity: 1; stroke-width: 1px;"/><path class="xgrid crisp" transform="translate(571.24,0)" d="M0,60v335" style="stroke: rgb(255, 255, 255); stroke-opacity: 1; stroke-width: 1px;"/><path class="xgrid crisp" transform="translate(585.69,0)" d="M0,60v335" style="stroke: rgb(255, 255, 255); stroke-opacity: 1; stroke-width: 1px;"/><path class="xgrid crisp" transform="translate(600.13,0)" d="M0,60v335" style="stroke: rgb(255, 255, 255); stroke-opacity: 1; stroke-width: 1px;"/><path class="xgrid crisp" transform="translate(614.58,0)" d="M0,60v335" style="stroke: rgb(255, 255, 255); stroke-opacity: 1; stroke-width: 1px;"/></g><g class="y"><path class="ygrid crisp" transform="translate(0,332.16)" d="M80,0h540" style="stroke: rgb(255, 255, 255); stroke-opacity: 1; stroke-width: 1px;"/><path class="ygrid crisp" transform="translate(0,282.49)" d="M80,0h540" style="stroke: rgb(255, 255, 255); stroke-opacity: 1; stroke-width: 1px;"/><path class="ygrid crisp" transform="translate(0,232.81)" d="M80,0h540" style="stroke: rgb(255, 255, 255); stroke-opacity: 1; stroke-width: 1px;"/><path class="ygrid crisp" transform="translate(0,183.14)" d="M80,0h540" style="stroke: rgb(255, 255, 255); stroke-opacity: 1; stroke-width: 1px;"/><path class="ygrid crisp" transform="translate(0,133.47)" d="M80,0h540" style="stroke: rgb(255, 255, 255); stroke-opacity: 1; stroke-width: 1px;"/><path class="ygrid crisp" transform="translate(0,83.8)" d="M80,0h540" style="stroke: rgb(255, 255, 255); stroke-opacity: 1; stroke-width: 1px;"/></g></g><g class="zerolinelayer"><path class="yzl zl crisp" transform="translate(0,381.83)" d="M80,0h540" style="stroke: rgb(255, 255, 255); stroke-opacity: 1; stroke-width: 2px;"/></g><path class="xlines-below"/><path class="ylines-below"/><g class="overlines-below"/><g class="xaxislayer-below"/><g class="yaxislayer-below"/><g class="overaxes-below"/><g class="plot" transform="translate(80,60)" clip-path="url(#clip81dd5bxyplot)"><g class="scatterlayer mlayer"><g class="trace scatter trace32f86b" style="stroke-miterlimit: 2; opacity: 1;"><g class="fills"/><g class="errorbars"/><g class="lines"><path class="js-line" d="M0,180.76L0.9,148.28L1.81,86.98L2.71,77L3.61,79.53L4.52,121.65L5.42,202.72L6.32,204.21L7.22,203.31L8.13,204.31L9.03,207.68L10.84,204.8L11.74,109.93L12.64,69.1L13.55,72.08L14.45,78.34L15.35,49.51L16.25,87.98L17.16,89.17L18.96,172.52L19.87,168.94L20.77,165.17L21.67,132.68L23.48,107.15L24.38,116.79L26.19,159.4L27.09,149.57L27.99,166.81L28.9,138.44L29.8,86.59L30.7,92.55L32.51,110.73L33.41,99.4L34.31,130.69L35.22,115.2L36.12,121.06L37.02,109.04L37.93,103.28L38.83,106.75L39.73,127.71L40.64,108.64L42.44,101.69L43.34,115.59L44.25,102.48L45.15,112.91L46.96,22.61L47.86,31.25L48.76,27.88L49.67,318.25L50.57,46.15L51.47,43.25L52.37,68.51L53.28,39.7L54.18,64.63L55.08,47.65L55.99,49.43L56.89,44.37L57.79,45.36L58.7,54.8L60.5,36.42L61.4,36.82L63.21,44.94L64.11,44.37L65.02,33.04L65.92,35.33L66.82,37.31L67.73,67.71L68.63,35.82L69.53,34.63L70.43,42.88L71.34,34.83L72.24,46.15L73.14,47.35L74.05,34.63L74.95,36.31L76.76,37.91L77.66,36.52L78.56,34.83L79.46,42.38L80.37,43.57L81.27,31.95L82.17,36.22L83.08,34.53L83.98,36.42L84.88,30.96L85.79,34.63L86.69,34.83L87.59,35.61L88.49,33.34L89.4,33.14L90.3,27.38L91.2,46.25L92.11,29.76L93.01,30.06L93.91,27.98L94.82,27.68L95.72,24.2L96.62,28.27L97.53,46.06L98.43,31.94L99.33,34.53L100.23,50.53L101.14,47.84L102.04,43.27L102.94,27.28L104.75,50.43L105.65,48.14L106.56,51.72L107.46,39.9L108.36,39.8L109.26,57.18L111.07,27.58L111.97,25.89L112.88,41.98L113.78,37.21L114.68,36.02L115.59,44.17L116.49,28.47L117.39,35.13L119.2,41.39L120.1,72.28L121,39.4L121.91,39.38L122.81,34.93L123.71,24.9L124.62,38.21L125.52,36.92L127.32,41.29L128.23,26.98L129.13,26.88L130.03,33.54L130.94,33.84L131.84,27.48L132.74,28.47L133.65,42.96L134.55,30.16L135.45,35.62L136.35,36.72L137.26,30.16L138.16,29.66L139.06,32.55L139.97,29.27L140.87,38.8L141.77,42.28L142.68,33.24L144.48,26.49L145.38,29.96L146.29,24.4L147.19,41.49L149,29.66L149.9,30.86L151.71,45.16L152.61,42.58L153.51,37.71L154.41,44.57L155.32,45.66L156.22,39.48L157.12,32.84L158.03,35.62L158.93,35.62L159.83,34.63L160.74,34.83L161.64,34.13L163.44,31.15L164.35,33.24L165.25,33.74L166.15,27.78L167.06,33.84L167.96,24.89L168.86,27.28L169.77,42.08L170.67,30.46L171.57,28.97L172.47,54.5L173.38,35.23L174.28,28.87L175.18,34.43L176.09,24.8L176.99,29.47L177.89,38.9L178.8,32.35L181.51,53.9L182.41,50.53L183.31,38.51L184.21,56.88L185.12,30.46L186.02,28.57L188.73,60.96L189.63,44.47L190.54,42.08L191.44,27.58L192.34,30.85L193.24,39.1L194.15,31.95L195.05,33.54L195.95,40.69L196.86,32.64L197.76,52.51L198.66,32.94L199.57,39.7L200.47,33.54L201.37,33.74L202.27,38.21L203.18,33.43L204.08,33.94L204.98,34.43L205.89,31.55L206.79,29.66L207.69,30.96L209.5,30.26L210.4,28.17L211.3,40.79L212.21,41.59L214.01,30.75L214.92,28.27L215.82,28.37L216.72,27.18L217.63,31.55L218.53,29.27L219.43,30.66L220.33,38.61L221.24,34.33L222.14,34.63L223.04,52.81L223.95,52.81L226.66,52.41L227.56,31.75L228.46,33.04L229.36,45.36L230.27,29.27L231.17,41.19L232.07,41.68L232.98,38.11L234.78,33.74L235.69,53.8L236.59,28.57L237.49,30.25L238.39,42.38L239.3,38.8L240.2,33.54L241.1,41.59L242.01,29.66L242.91,31.15L243.81,42.58L244.72,28.87L245.62,28.27L246.52,34.33L247.42,30.16L248.33,45.46L249.23,31.25L250.13,37.21L251.04,25.89L251.94,27.48L252.84,27.38L253.75,23.6L254.65,23.6L255.55,32.45L257.36,36.52L258.26,42.98L259.16,45.86L260.07,40.59L260.97,28.86L261.87,33.34L262.78,37.61L263.68,34.63L264.58,39.4L265.48,35.82L268.19,38.21L269.1,36.72L270.9,40.79L271.81,30.96L272.71,32.34L273.61,52.21L274.52,48.64L275.42,38.41L278.13,30.26L279.03,24.1L279.93,25.59L280.84,28.57L281.74,24.3L282.64,27.78L283.55,27.08L284.45,23.51L285.35,27.28L286.25,45.36L287.16,26.39L288.06,24.1L288.96,41.59L289.87,29.76L290.77,31.15L291.67,39.7L292.58,38.01L293.48,31.95L295.28,47.03L296.19,40.99L297.09,61.06L297.99,53.41L299.8,32.64L300.7,40.29L301.61,30.56L302.51,31.85L303.41,38.7L304.31,39.4L305.22,30.26L306.12,36.52L307.02,42.76L307.93,36.32L308.83,33.44L309.73,39.7L310.64,40.1L311.54,47.84L312.44,47.05L313.34,40.99L315.15,27.18L316.05,32.25L316.96,28.17L317.86,29.66L318.76,39.19L319.67,33.34L320.57,30.46L321.47,44.47L322.37,48.64L323.28,48.04L324.18,46.45L325.08,52.02L326.89,47.45L327.79,47.94L328.7,46.75L329.6,47.74L330.5,41.77L331.4,41.29L332.31,36.42L333.21,42.18L335.02,36.62L335.92,40.89L337.73,46.75L338.63,34.63L339.53,44.86L340.43,43.97L341.34,42.76L342.24,37.81L343.14,34.93L344.05,35.92L345.85,35.92L346.76,38.11L347.66,34.23L348.56,35.23L349.46,46.25L350.37,37.91L351.27,72.18L352.17,38.31L354.88,29.47L355.79,31.55L356.69,29.47L357.59,34.04L358.49,25.29L359.4,48.54L360.3,30.76L361.2,32.05L362.11,49.04L363.01,41.59L363.91,31.84L364.82,44.76L365.72,39.6L366.62,28.77L367.53,35.33L368.43,30.76L369.33,29.27L370.23,36.62L371.14,25.09L372.04,30.36L372.94,36.12L373.85,31.06L374.75,53.8L375.65,42.26L376.56,49.83L377.46,32.25L378.36,29.47L379.26,30.56L380.17,23.31L381.07,24.3L381.97,38.61L382.88,24.4L383.78,21.82L384.68,24.9L385.59,23.21L386.49,19.73L388.29,28.47L389.2,21.02L390.1,21.22L391,43.08L392.81,26.49L393.71,32.25L394.62,30.86L395.52,36.62L396.42,42.28L397.32,29.47L398.23,29.17L399.13,43.87L400.03,32.44L400.94,35.82L401.84,29.47L402.74,45.16L403.65,43.08L404.55,47.65L405.45,44.07L406.35,35.62L408.16,21.82L409.06,25.29L409.97,21.22L410.87,22.31L411.77,24L412.68,22.51L413.58,22.81L414.48,27.68L415.38,28.87L416.29,22.11L417.19,21.02L418.09,34.73L419.9,16.95L420.8,33.54L421.71,24.3L422.61,25.89L423.51,46.95L424.41,24.2L425.32,20.73L426.22,27.68L427.12,21.12L428.03,21.52L428.93,41.49L429.83,29.86L430.74,39.5L431.64,37.02L432.54,20.13L433.44,22.41L434.35,29.56L435.25,21.72L436.15,24.7L437.06,23.41L437.96,37.8L438.86,27.08L439.77,27.98L440.67,38.7L441.57,26.68L442.47,34.04L443.38,44.27L444.28,25.59L446.09,28.17L446.99,26.88L449.7,59.17L450.6,56.29L451.51,54.77L452.41,60.56L454.21,54.7L455.12,41.68L456.92,22.91L457.83,18.24L458.73,22.31L459.63,19.43L461.44,29.07L462.34,22.81L463.24,25.39L464.15,23.21L465.05,27.48L465.95,24.8L466.86,22.31L467.76,23.8L468.66,32.74L469.57,27.18L470.47,26.58L471.37,23.7L472.27,25.59L473.18,33.84L474.08,17.25L474.98,18.44L476.79,32.73L477.69,27.48L478.6,27.08L479.5,40.89L480.4,24.6L481.3,33.24L482.21,35.62L483.11,22.61L484.01,23.01L484.92,36.52L485.82,24.5L486.72,25.29L487.63,32.15L488.53,24.7L489.43,32.04L490.33,30.56L491.24,24.9L492.14,25.99L493.04,23.21L493.95,31.35L494.85,18.74L495.75,23.7L496.66,29.17L497.56,49.53L498.46,18.04L499.36,27.58L500.27,19.13L501.17,22.91L502.07,28.57L502.98,16.85L503.88,16.75L504.78,26.09L505.69,32.25L506.59,19.43L507.49,25.39L508.39,18.74L510.2,33.24L511.1,28.47L512.01,27.88L512.91,25.29L513.81,27.57L514.72,38.11L515.62,30.56L516.52,35.82L517.42,34.23L518.33,25.29L519.23,23.11L520.13,37.91L521.04,31.75L521.94,37.11L522.84,27.88L523.75,29.07L526.45,24.89L527.36,26.19L528.26,24.2L529.16,24.2L530.07,28.17L530.97,25.89L531.87,24.3L532.78,26.19L533.68,20.33L534.58,23.11L535.48,34.13L536.39,35.03L537.29,28.67L538.19,29.17L539.1,24.9L540,25.69" style="vector-effect: none; fill: none; stroke: rgb(99, 110, 250); stroke-opacity: 1; stroke-width: 2px; opacity: 1;"/></g><g class="points"/><g class="text"/></g></g></g><g class="overplot"/><path class="xlines-above crisp" d="M0,0" style="fill: none;"/><path class="ylines-above crisp" d="M0,0" style="fill: none;"/><g class="overlines-above"/><g class="xaxislayer-above"><g class="xtick"><text text-anchor="start" x="0" y="408" transform="translate(80,0) rotate(90,0,402)" style="font-family: 'Open Sans', verdana, arial, sans-serif; font-size: 12px; fill: rgb(42, 63, 95); fill-opacity: 1; white-space: pre; opacity: 1;"> 14:41:26</text></g><g class="xtick"><text text-anchor="start" x="0" y="408" transform="translate(94.45,0) rotate(90,0,402)" style="font-family: 'Open Sans', verdana, arial, sans-serif; font-size: 12px; fill: rgb(42, 63, 95); fill-opacity: 1; white-space: pre; opacity: 1;"> 14:41:42</text></g><g class="xtick"><text text-anchor="start" x="0" y="408" transform="translate(108.9,0) rotate(90,0,402)" style="font-family: 'Open Sans', verdana, arial, sans-serif; font-size: 12px; fill: rgb(42, 63, 95); fill-opacity: 1; white-space: pre; opacity: 1;"> 14:41:58</text></g><g class="xtick"><text text-anchor="start" x="0" y="408" transform="translate(123.34,0) rotate(90,0,402)" style="font-family: 'Open Sans', verdana, arial, sans-serif; font-size: 12px; fill: rgb(42, 63, 95); fill-opacity: 1; white-space: pre; opacity: 1;"> 14:42:14</text></g><g class="xtick"><text text-anchor="start" x="0" y="408" transform="translate(137.79,0) rotate(90,0,402)" style="font-family: 'Open Sans', verdana, arial, sans-serif; font-size: 12px; fill: rgb(42, 63, 95); fill-opacity: 1; white-space: pre; opacity: 1;"> 14:42:30</text></g><g class="xtick"><text text-anchor="start" x="0" y="408" transform="translate(152.24,0) rotate(90,0,402)" style="font-family: 'Open Sans', verdana, arial, sans-serif; font-size: 12px; fill: rgb(42, 63, 95); fill-opacity: 1; white-space: pre; opacity: 1;"> 14:42:46</text></g><g class="xtick"><text text-anchor="start" x="0" y="408" transform="translate(166.69,0) rotate(90,0,402)" style="font-family: 'Open Sans', verdana, arial, sans-serif; font-size: 12px; fill: rgb(42, 63, 95); fill-opacity: 1; white-space: pre; opacity: 1;"> 14:43:02</text></g><g class="xtick"><text text-anchor="start" x="0" y="408" transform="translate(181.14,0) rotate(90,0,402)" style="font-family: 'Open Sans', verdana, arial, sans-serif; font-size: 12px; fill: rgb(42, 63, 95); fill-opacity: 1; white-space: pre; opacity: 1;"> 14:43:18</text></g><g class="xtick"><text text-anchor="start" x="0" y="408" transform="translate(195.59,0) rotate(90,0,402)" style="font-family: 'Open Sans', verdana, arial, sans-serif; font-size: 12px; fill: rgb(42, 63, 95); fill-opacity: 1; white-space: pre; opacity: 1;"> 14:43:34</text></g><g class="xtick"><text text-anchor="start" x="0" y="408" transform="translate(210.03,0) rotate(90,0,402)" style="font-family: 'Open Sans', verdana, arial, sans-serif; font-size: 12px; fill: rgb(42, 63, 95); fill-opacity: 1; white-space: pre; opacity: 1;"> 14:43:50</text></g><g class="xtick"><text text-anchor="start" x="0" y="408" transform="translate(224.48,0) rotate(90,0,402)" style="font-family: 'Open Sans', verdana, arial, sans-serif; font-size: 12px; fill: rgb(42, 63, 95); fill-opacity: 1; white-space: pre; opacity: 1;"> 14:44:06</text></g><g class="xtick"><text text-anchor="start" x="0" y="408" transform="translate(238.93,0) rotate(90,0,402)" style="font-family: 'Open Sans', verdana, arial, sans-serif; font-size: 12px; fill: rgb(42, 63, 95); fill-opacity: 1; white-space: pre; opacity: 1;"> 14:44:22</text></g><g class="xtick"><text text-anchor="start" x="0" y="408" transform="translate(253.38,0) rotate(90,0,402)" style="font-family: 'Open Sans', verdana, arial, sans-serif; font-size: 12px; fill: rgb(42, 63, 95); fill-opacity: 1; white-space: pre; opacity: 1;"> 14:44:38</text></g><g class="xtick"><text text-anchor="start" x="0" y="408" transform="translate(267.83000000000004,0) rotate(90,0,402)" style="font-family: 'Open Sans', verdana, arial, sans-serif; font-size: 12px; fill: rgb(42, 63, 95); fill-opacity: 1; white-space: pre; opacity: 1;"> 14:44:54</text></g><g class="xtick"><text text-anchor="start" x="0" y="408" transform="translate(282.27,0) rotate(90,0,402)" style="font-family: 'Open Sans', verdana, arial, sans-serif; font-size: 12px; fill: rgb(42, 63, 95); fill-opacity: 1; white-space: pre; opacity: 1;"> 14:45:10</text></g><g class="xtick"><text text-anchor="start" x="0" y="408" transform="translate(296.72,0) rotate(90,0,402)" style="font-family: 'Open Sans', verdana, arial, sans-serif; font-size: 12px; fill: rgb(42, 63, 95); fill-opacity: 1; white-space: pre; opacity: 1;"> 14:45:26</text></g><g class="xtick"><text text-anchor="start" x="0" y="408" transform="translate(311.16999999999996,0) rotate(90,0,402)" style="font-family: 'Open Sans', verdana, arial, sans-serif; font-size: 12px; fill: rgb(42, 63, 95); fill-opacity: 1; white-space: pre; opacity: 1;"> 14:45:42</text></g><g class="xtick"><text text-anchor="start" x="0" y="408" transform="translate(325.62,0) rotate(90,0,402)" style="font-family: 'Open Sans', verdana, arial, sans-serif; font-size: 12px; fill: rgb(42, 63, 95); fill-opacity: 1; white-space: pre; opacity: 1;"> 14:45:58</text></g><g class="xtick"><text text-anchor="start" x="0" y="408" transform="translate(340.07,0) rotate(90,0,402)" style="font-family: 'Open Sans', verdana, arial, sans-serif; font-size: 12px; fill: rgb(42, 63, 95); fill-opacity: 1; white-space: pre; opacity: 1;"> 14:46:14</text></g><g class="xtick"><text text-anchor="start" x="0" y="408" transform="translate(354.52,0) rotate(90,0,402)" style="font-family: 'Open Sans', verdana, arial, sans-serif; font-size: 12px; fill: rgb(42, 63, 95); fill-opacity: 1; white-space: pre; opacity: 1;"> 14:46:30</text></g><g class="xtick"><text text-anchor="start" x="0" y="408" transform="translate(368.96,0) rotate(90,0,402)" style="font-family: 'Open Sans', verdana, arial, sans-serif; font-size: 12px; fill: rgb(42, 63, 95); fill-opacity: 1; white-space: pre; opacity: 1;"> 14:46:46</text></g><g class="xtick"><text text-anchor="start" x="0" y="408" transform="translate(383.41,0) rotate(90,0,402)" style="font-family: 'Open Sans', verdana, arial, sans-serif; font-size: 12px; fill: rgb(42, 63, 95); fill-opacity: 1; white-space: pre; opacity: 1;"> 14:47:02</text></g><g class="xtick"><text text-anchor="start" x="0" y="408" transform="translate(397.86,0) rotate(90,0,402)" style="font-family: 'Open Sans', verdana, arial, sans-serif; font-size: 12px; fill: rgb(42, 63, 95); fill-opacity: 1; white-space: pre; opacity: 1;"> 14:47:18</text></g><g class="xtick"><text text-anchor="start" x="0" y="408" transform="translate(412.31,0) rotate(90,0,402)" style="font-family: 'Open Sans', verdana, arial, sans-serif; font-size: 12px; fill: rgb(42, 63, 95); fill-opacity: 1; white-space: pre; opacity: 1;"> 14:47:34</text></g><g class="xtick"><text text-anchor="start" x="0" y="408" transform="translate(426.76,0) rotate(90,0,402)" style="font-family: 'Open Sans', verdana, arial, sans-serif; font-size: 12px; fill: rgb(42, 63, 95); fill-opacity: 1; white-space: pre; opacity: 1;"> 14:47:50</text></g><g class="xtick"><text text-anchor="start" x="0" y="408" transform="translate(441.2,0) rotate(90,0,402)" style="font-family: 'Open Sans', verdana, arial, sans-serif; font-size: 12px; fill: rgb(42, 63, 95); fill-opacity: 1; white-space: pre; opacity: 1;"> 14:48:06</text></g><g class="xtick"><text text-anchor="start" x="0" y="408" transform="translate(455.65,0) rotate(90,0,402)" style="font-family: 'Open Sans', verdana, arial, sans-serif; font-size: 12px; fill: rgb(42, 63, 95); fill-opacity: 1; white-space: pre; opacity: 1;"> 14:48:22</text></g><g class="xtick"><text text-anchor="start" x="0" y="408" transform="translate(470.1,0) rotate(90,0,402)" style="font-family: 'Open Sans', verdana, arial, sans-serif; font-size: 12px; fill: rgb(42, 63, 95); fill-opacity: 1; white-space: pre; opacity: 1;"> 14:48:38</text></g><g class="xtick"><text text-anchor="start" x="0" y="408" transform="translate(484.55,0) rotate(90,0,402)" style="font-family: 'Open Sans', verdana, arial, sans-serif; font-size: 12px; fill: rgb(42, 63, 95); fill-opacity: 1; white-space: pre; opacity: 1;"> 14:48:54</text></g><g class="xtick"><text text-anchor="start" x="0" y="408" transform="translate(499,0) rotate(90,0,402)" style="font-family: 'Open Sans', verdana, arial, sans-serif; font-size: 12px; fill: rgb(42, 63, 95); fill-opacity: 1; white-space: pre; opacity: 1;"> 14:49:10</text></g><g class="xtick"><text text-anchor="start" x="0" y="408" transform="translate(513.44,0) rotate(90,0,402)" style="font-family: 'Open Sans', verdana, arial, sans-serif; font-size: 12px; fill: rgb(42, 63, 95); fill-opacity: 1; white-space: pre; opacity: 1;"> 14:49:26</text></g><g class="xtick"><text text-anchor="start" x="0" y="408" transform="translate(527.89,0) rotate(90,0,402)" style="font-family: 'Open Sans', verdana, arial, sans-serif; font-size: 12px; fill: rgb(42, 63, 95); fill-opacity: 1; white-space: pre; opacity: 1;"> 14:49:42</text></g><g class="xtick"><text text-anchor="start" x="0" y="408" transform="translate(542.3399999999999,0) rotate(90,0,402)" style="font-family: 'Open Sans', verdana, arial, sans-serif; font-size: 12px; fill: rgb(42, 63, 95); fill-opacity: 1; white-space: pre; opacity: 1;"> 14:49:58</text></g><g class="xtick"><text text-anchor="start" x="0" y="408" transform="translate(556.79,0) rotate(90,0,402)" style="font-family: 'Open Sans', verdana, arial, sans-serif; font-size: 12px; fill: rgb(42, 63, 95); fill-opacity: 1; white-space: pre; opacity: 1;"> 14:50:14</text></g><g class="xtick"><text text-anchor="start" x="0" y="408" transform="translate(571.24,0) rotate(90,0,402)" style="font-family: 'Open Sans', verdana, arial, sans-serif; font-size: 12px; fill: rgb(42, 63, 95); fill-opacity: 1; white-space: pre; opacity: 1;"> 14:50:30</text></g><g class="xtick"><text text-anchor="start" x="0" y="408" transform="translate(585.69,0) rotate(90,0,402)" style="font-family: 'Open Sans', verdana, arial, sans-serif; font-size: 12px; fill: rgb(42, 63, 95); fill-opacity: 1; white-space: pre; opacity: 1;"> 14:50:46</text></g><g class="xtick"><text text-anchor="start" x="0" y="408" transform="translate(600.13,0) rotate(90,0,402)" style="font-family: 'Open Sans', verdana, arial, sans-serif; font-size: 12px; fill: rgb(42, 63, 95); fill-opacity: 1; white-space: pre; opacity: 1;"> 14:51:02</text></g><g class="xtick"><text text-anchor="start" x="0" y="408" transform="translate(614.58,0) rotate(90,0,402)" style="font-family: 'Open Sans', verdana, arial, sans-serif; font-size: 12px; fill: rgb(42, 63, 95); fill-opacity: 1; white-space: pre; opacity: 1;"> 14:51:18</text></g></g><g class="yaxislayer-above"><g class="ytick"><text text-anchor="end" x="79" y="4.199999999999999" transform="translate(0,381.83)" style="font-family: 'Open Sans', verdana, arial, sans-serif; font-size: 12px; fill: rgb(42, 63, 95); fill-opacity: 1; white-space: pre; opacity: 1;">0</text></g><g class="ytick"><text text-anchor="end" x="79" y="4.199999999999999" style="font-family: 'Open Sans', verdana, arial, sans-serif; font-size: 12px; fill: rgb(42, 63, 95); fill-opacity: 1; white-space: pre; opacity: 1;" transform="translate(0,332.16)">500</text></g><g class="ytick"><text text-anchor="end" x="79" y="4.199999999999999" style="font-family: 'Open Sans', verdana, arial, sans-serif; font-size: 12px; fill: rgb(42, 63, 95); fill-opacity: 1; white-space: pre; opacity: 1;" transform="translate(0,282.49)">1000</text></g><g class="ytick"><text text-anchor="end" x="79" y="4.199999999999999" style="font-family: 'Open Sans', verdana, arial, sans-serif; font-size: 12px; fill: rgb(42, 63, 95); fill-opacity: 1; white-space: pre; opacity: 1;" transform="translate(0,232.81)">1500</text></g><g class="ytick"><text text-anchor="end" x="79" y="4.199999999999999" style="font-family: 'Open Sans', verdana, arial, sans-serif; font-size: 12px; fill: rgb(42, 63, 95); fill-opacity: 1; white-space: pre; opacity: 1;" transform="translate(0,183.14)">2000</text></g><g class="ytick"><text text-anchor="end" x="79" y="4.199999999999999" style="font-family: 'Open Sans', verdana, arial, sans-serif; font-size: 12px; fill: rgb(42, 63, 95); fill-opacity: 1; white-space: pre; opacity: 1;" transform="translate(0,133.47)">2500</text></g><g class="ytick"><text text-anchor="end" x="79" y="4.199999999999999" style="font-family: 'Open Sans', verdana, arial, sans-serif; font-size: 12px; fill: rgb(42, 63, 95); fill-opacity: 1; white-space: pre; opacity: 1;" transform="translate(0,83.8)">3000</text></g></g><g class="overaxes-above"/></g></g><g class="polarlayer"/><g class="smithlayer"/><g class="ternarylayer"/><g class="geolayer"/><g class="funnelarealayer"/><g class="pielayer"/><g class="iciclelayer"/><g class="treemaplayer"/><g class="sunburstlayer"/><g class="glimages"/><defs id="topdefs-81dd5b"><g class="clips"/></defs><g class="layer-above"><g class="imagelayer"/><g class="shapelayer"/></g><g class="infolayer"><g class="g-gtitle"/><g class="g-xtitle"><text class="xtitle" x="350" y="487.190625" text-anchor="middle" style="font-family: 'Open Sans', verdana, arial, sans-serif; font-size: 14px; fill: rgb(42, 63, 95); opacity: 1; font-weight: normal; white-space: pre;">timestamp</text></g><g class="g-ytitle"><text class="ytitle" transform="rotate(-90,24.184375000000003,227.5)" x="24.184375000000003" y="227.5" text-anchor="middle" style="font-family: 'Open Sans', verdana, arial, sans-serif; font-size: 14px; fill: rgb(42, 63, 95); opacity: 1; font-weight: normal; white-space: pre;">operations/second</text></g></g></svg>