<svg class="main-svg" xmlns="http://www.w3.org/2000/svg" xmlns:xlink="http://www.w3.org/1999/xlink" width="700" height="500" style="" viewBox="0 0 700 500"><rect x="0" y="0" width="700" height="500" style="fill: rgb(255, 255, 255); fill-opacity: 1;"/><defs id="defs-dcadcc"><g class="clips"><clipPath id="clipdcadccxyplot" class="plotclip"><rect width="479" height="360"/></clipPath><clipPath class="axesclip" id="clipdcadccx"><rect x="80" y="0" width="479" height="500"/></clipPath><clipPath class="axesclip" id="clipdcadccy"><rect x="0" y="60" width="700" height="360"/></clipPath><clipPath class="axesclip" id="clipdcadccxy"><rect x="80" y="60" width="479" height="360"/></clipPath></g><g class="gradients"/><g class="patterns"/></defs><g class="bglayer"><rect class="bg" x="80" y="60" width="479" height="360" style="fill: rgb(229, 236, 246); fill-opacity: 1; stroke-width: 0;"/></g><g class="layer-below"><g class="imagelayer"/><g class="shapelayer"/></g><g class="cartesianlayer"><g class="subplot xy"><g class="layer-subplot"><g class="shapelayer"/><g class="imagelayer"/></g><g class="minor-gridlayer"><g class="x"/><g class="y"/></g><g class="gridlayer"><g class="x"><path class="xgrid crisp" transform="translate(91.43,0)" d="M0,60v360" style="stroke: rgb(255, 255, 255); stroke-opacity: 1; stroke-width: 1px;"/><path class="xgrid crisp" transform="translate(205.75,0)" d="M0,60v360" style="stroke: rgb(255, 255, 255); stroke-opacity: 1; stroke-width: 1px;"/><path class="xgrid crisp" transform="translate(320.07,0)" d="M0,60v360" style="stroke: rgb(255, 255, 255); stroke-opacity: 1; stroke-width: 1px;"/><path class="xgrid crisp" transform="translate(434.39,0)" d="M0,60v360" style="stroke: rgb(255, 255, 255); stroke-opacity: 1; stroke-width: 1px;"/><path class="xgrid crisp" transform="translate(548.71,0)" d="M0,60v360" style="stroke: rgb(255, 255, 255); stroke-opacity: 1; stroke-width: 1px;"/></g><g class="y"><path class="ygrid crisp" transform="translate(0,383.8)" d="M80,0h479" style="stroke: rgb(255, 255, 255); stroke-opacity: 1; stroke-width: 1px;"/><path class="ygrid crisp" transform="translate(0,347.44)" d="M80,0h479" style="stroke: rgb(255, 255, 255); stroke-opacity: 1; stroke-width: 1px;"/><path class="ygrid crisp" transform="translate(0,311.08000000000004)" d="M80,0h479" style="stroke: rgb(255, 255, 255); stroke-opacity: 1; stroke-width: 1px;"/><path class="ygrid crisp" transform="translate(0,274.72)" d="M80,0h479" style="stroke: rgb(255, 255, 255); stroke-opacity: 1; stroke-width: 1px;"/><path class="ygrid crisp" transform="translate(0,238.35)" d="M80,0h479" style="stroke: rgb(255, 255, 255); stroke-opacity: 1; stroke-width: 1px;"/><path class="ygrid crisp" transform="translate(0,201.99)" d="M80,0h479" style="stroke: rgb(255, 255, 255); stroke-opacity: 1; stroke-width: 1px;"/><path class="ygrid crisp" transform="translate(0,165.63)" d="M80,0h479" style="stroke: rgb(255, 255, 255); stroke-opacity: 1; stroke-width: 1px;"/><path class="ygrid crisp" transform="translate(0,129.26999999999998)" d="M80,0h479" style="stroke: rgb(255, 255, 255); stroke-opacity: 1; stroke-width: 1px;"/><path class="ygrid crisp" transform="translate(0,92.91)" d="M80,0h479" style="stroke: rgb(255, 255, 255); stroke-opacity: 1; stroke-width: 1px;"/></g></g><g class="zerolinelayer"/><path class="xlines-below"/><path class="ylines-below"/><g class="overlines-below"/><g class="xaxislayer-below"/><g class="yaxislayer-below"/><g class="overaxes-below"/><g class="plot" transform="translate(80,60)" clip-path="url(#clipdcadccxyplot)"><g class="scatterlayer mlayer"><g class="trace scatter trace382496" style="stroke-miterlimit: 2; opacity: 1;"><g class="fills"/><g class="errorbars"/><g class="lines"><path class="js-line" d="M0,339.44L1.14,335.07L2.29,337.25L3.43,338.71L4.57,335.44L5.72,341.62L6.86,335.82L8,340.53L9.15,331.07L10.29,337.98L11.43,335.44L12.58,335.44L13.72,334.35L14.86,331.8L16,337.62L17.15,334.35L18.29,338.71L19.43,333.98L20.58,333.98L21.72,331.8L22.86,331.83L24.01,333.98L25.15,332.53L26.29,331.44L27.44,60.91L29.72,260.17L30.87,263.44L32.01,293.62L33.15,297.98L34.3,314.71L35.44,317.98L36.58,321.62L37.73,321.29L38.87,306.35L40.01,317.98L41.16,317.26L42.3,325.98L43.44,329.26L44.58,324.16L45.73,316.53L46.87,320.89L48.01,316.89L49.16,317.26L50.3,319.8L51.44,328.89L52.59,329.98L53.73,326.38L54.87,322.35L56.02,334.35L58.3,326.35L59.45,335.07L62.88,323.44L64.02,330.71L65.16,321.26L66.31,325.62L67.45,323.8L68.59,319.07L69.74,319.84L70.88,327.8L72.02,321.98L73.16,333.98L74.31,323.07L75.45,327.44L76.59,322.35L77.74,336.16L78.88,324.16L80.02,329.98L81.17,325.62L82.31,332.89L83.45,327.07L84.6,327.44L85.74,330.74L86.88,329.62L89.17,325.98L90.31,337.62L91.46,330.35L92.6,328.89L93.74,327.8L94.89,323.44L96.03,321.62L97.17,325.26L98.32,321.26L99.46,321.98L100.6,328.53L101.74,324.93L105.17,319.44L106.32,320.53L107.46,330.35L108.6,324.53L109.75,320.53L110.89,319.8L112.03,322.71L113.18,320.89L114.32,324.16L115.46,319.8L116.61,327.8L117.75,327.47L121.18,320.89L122.32,324.16L123.47,325.98L124.61,323.8L125.75,59.82L126.89,189.99L129.18,283.8L130.32,291.08L131.47,281.62L132.61,290.35L137.18,310.71L138.33,312.53L139.47,305.98L140.61,304.53L141.76,308.53L142.9,308.89L144.04,302.35L145.19,310.35L146.33,309.26L147.47,315.07L148.62,320.16L149.76,315.12L150.9,319.8L152.05,313.98L153.19,308.53L154.33,312.17L155.47,316.53L156.62,316.89L158.9,311.44L160.05,316.53L161.19,319.8L162.33,312.89L163.48,318.35L164.62,316.89L165.76,317.98L166.91,326.02L168.05,317.62L169.19,317.62L170.34,319.07L171.48,322.71L172.62,320.16L173.77,319.8L174.91,319.07L176.05,317.26L177.2,325.98L178.34,320.16L179.48,321.26L180.63,325.62L182.91,309.67L184.05,307.8L185.2,307.07L186.34,311.44L187.48,316.89L188.63,316.17L189.77,309.26L190.91,317.26L192.06,316.17L193.2,312.17L194.34,303.07L195.49,315.07L196.63,308.89L197.77,316.53L198.92,315.48L200.06,321.62L201.2,317.98L202.35,103.09L205.78,272.89L206.92,291.44L208.06,293.98L209.21,307.44L210.35,295.44L211.49,296.17L212.63,292.89L213.78,307.44L214.92,315.07L216.06,311.12L217.21,318.71L218.35,315.8L219.49,312.89L220.64,316.17L221.78,317.26L222.92,311.07L224.07,315.8L225.21,311.44L226.35,304.17L227.5,309.26L229.78,315.44L230.93,316.89L232.07,315.44L233.21,311.12L234.36,309.62L235.5,315.44L236.64,316.89L237.79,315.8L238.93,304.17L240.07,304.89L241.21,313.62L242.36,313.62L243.5,318.71L244.64,318.35L246.93,308.17L248.07,316.17L250.36,316.53L251.5,313.98L252.65,320.16L253.79,316.89L256.08,306.35L257.22,307.44L258.36,301.98L259.51,311.44L260.65,314.35L261.79,308.89L264.08,317.26L265.22,318.75L266.37,323.8L267.51,323.07L268.65,317.62L269.79,323.8L270.94,321.62L272.08,324.53L273.22,318.71L274.37,325.26L276.65,317.62L277.8,317.62L278.94,293.62L280.08,53.27L281.23,232.53L282.37,260.27L285.8,304.53L286.94,301.26L288.09,299.44L289.23,308.17L290.37,304.17L291.52,311.07L292.66,314.35L293.8,307.44L294.95,314.35L296.09,312.89L297.23,320.53L298.37,319.12L299.52,321.98L300.66,321.98L301.8,326.71L302.95,317.98L304.09,328.16L305.23,316.89L306.38,323.07L307.52,316.53L308.66,320.89L309.81,312.89L313.24,320.53L314.38,325.26L315.52,318.39L316.67,328.53L317.81,329.26L318.95,319.44L320.1,317.98L321.24,319.07L322.38,318.71L323.53,323.44L324.67,321.62L325.81,323.07L326.95,328.53L328.1,325.62L329.24,324.53L330.38,326.35L331.53,333.65L332.67,323.07L333.81,325.62L334.96,325.26L336.1,331.07L337.24,323.44L338.39,327.8L339.53,322.71L340.67,320.89L341.82,334.35L344.1,321.98L345.25,323.44L346.39,320.89L347.53,322.35L348.68,329.29L349.82,326.35L350.96,328.89L352.11,320.16L353.25,322.71L354.39,328.16L356.68,319.07L357.82,324.16L358.96,320.89L360.11,320.16L361.25,323.44L362.39,334.71L363.54,320.89L364.68,324.2L365.82,311.8L366.97,318.71L368.11,319.44L369.25,311.07L370.4,50L371.54,214.35L374.97,296.89L376.11,287.44L378.4,309.62L379.54,316.17L380.68,313.62L381.83,317.3L382.97,312.89L384.11,316.17L385.26,316.17L386.4,312.17L387.54,304.89L388.69,318.35L389.83,316.17L390.97,318.35L392.12,330.71L393.26,323.44L395.55,315.44L396.69,318.35L397.83,320.16L398.98,317.66L400.12,307.44L401.26,310.35L402.41,311.07L403.55,316.89L404.69,319.8L405.84,319.44L408.12,320.89L409.26,327.8L410.41,321.98L411.55,328.53L412.69,326.35L413.84,320.16L414.98,326.74L416.12,323.8L417.27,328.53L418.41,317.62L420.7,324.89L421.84,319.8L422.98,328.16L424.13,317.98L425.27,317.26L426.41,319.44L427.56,320.89L428.7,328.53L430.99,330.35L432.13,324.93L433.27,325.26L434.42,328.16L435.56,328.53L436.7,325.98L437.84,322.35L438.99,332.53L440.13,333.26L441.27,325.98L443.56,319.8L444.7,319.07L445.85,319.07L446.99,331.07L448.13,328.16L449.28,323.11L450.42,324.53L451.56,324.16L452.71,326.35L453.85,325.98L457.28,320.89L458.42,324.53L459.57,310.35L460.71,27.09L461.85,192.17L463,242.71L464.14,252.53L465.28,279.52L467.57,293.98L468.71,296.17L469.85,302.35L471,300.89L473.28,311.44L474.43,307.44L475.57,306.71L476.71,297.26L477.86,303.07L479,292.89" style="vector-effect: none; fill: none; stroke: rgb(99, 110, 250); stroke-opacity: 1; stroke-width: 2px; opacity: 1;"/></g><g class="points"/><g class="text"/></g><g class="trace scatter tracebe3658" style="stroke-miterlimit: 2; opacity: 1;"><g class="fills"/><g class="errorbars"/><g class="lines"><path class="js-line" d="M0,330.35L1.14,333.26L2.29,327.44L3.43,332.92L4.57,324.89L5.72,330.35L6.86,323.07L8,328.53L9.15,323.44L10.29,334.71L11.43,329.26L12.58,332.89L13.72,333.98L14.86,329.26L16,336.53L17.15,335.8L18.29,337.62L19.43,336.55L20.58,337.98L21.72,339.44L22.86,335.44L24.01,338.71L25.15,335.44L26.29,337.25L27.44,335.8L28.58,339.8L29.72,335.44L30.87,338.71L32.01,331.8L33.15,330.35L34.3,337.98L35.44,333.65L36.58,334.35L37.73,337.62L38.87,330.71L40.01,341.25L41.16,331.07L42.3,334.71L43.44,331.07L44.58,326.35L45.73,331.8L46.87,329.62L48.01,325.62L49.16,331.44L50.3,331.07L51.44,330.74L52.59,335.07L53.73,333.98L54.87,327.8L56.02,336.16L57.16,335.07L58.3,334.71L59.45,336.89L60.59,336.89L61.73,339.8L62.88,336.16L64.02,340.89L65.16,334.71L66.31,342L67.45,336.53L68.59,340.16L69.74,336.53L70.88,339.07L72.02,337.25L73.16,338.71L74.31,334.35L75.45,336.16L76.59,337.62L77.74,337.62L78.88,334.71L80.02,336.89L81.17,337.62L82.31,331.47L83.45,339.07L84.6,333.62L85.74,336.16L86.88,335.44L88.03,338.71L89.17,337.62L90.31,336.53L91.46,336.53L92.6,336.16L93.74,337.25L94.89,331.8L96.03,339.07L97.17,331.07L98.32,332.92L99.46,331.07L100.6,332.89L101.74,336.16L102.89,336.16L104.03,333.26L105.17,337.98L106.32,332.53L107.46,339.07L108.6,330.71L109.75,336.53L110.89,336.16L112.03,333.98L113.18,336.16L114.32,328.56L115.46,329.98L116.61,336.53L117.75,324.53L118.89,331.8L120.04,338.71L121.18,328.89L122.32,330.71L123.47,335.07L124.61,327.44L125.75,329.62L126.89,335.07L128.04,320.53L130.32,330.71L131.47,332.92L132.61,324.53L133.75,332.89L134.9,335.07L136.04,330.71L137.18,336.89L138.33,330.71L139.47,333.98L140.61,333.62L142.9,331.8L144.04,337.62L145.19,332.16L146.33,335.82L147.47,335.44L148.62,332.53L152.05,331.07L153.19,332.16L154.33,327.07L155.47,327.8L156.62,327.07L157.76,328.16L158.9,331.8L160.05,329.26L161.19,330.35L162.33,327.8L163.48,333.28L164.62,332.53L165.76,257.62L166.91,18L168.05,231.08L169.19,276.17L171.48,304.53L172.62,304.17L174.91,323.07L176.05,316.53L177.2,325.62L178.34,325.26L180.63,322.35L181.77,317.26L184.05,324.89L185.2,320.16L186.34,312.89L187.48,311.44L188.63,315.44L189.77,322.71L190.91,322.71L192.06,317.26L193.2,321.62L194.34,316.89L195.49,314.35L196.63,302.77L197.77,314.35L198.92,314.71L200.06,327.8L201.2,315.8L202.35,323.8L203.49,318.35L204.63,319.07L205.78,321.26L206.92,326.71L208.06,322.35L209.21,326.71L210.35,325.98L211.49,322.71L212.63,327.11L213.78,328.89L214.92,328.89L216.06,327.8L217.21,334.35L219.49,322.71L220.64,323.07L221.78,329.26L222.92,324.53L224.07,323.44L225.21,319.8L226.35,318.71L227.5,319.44L228.64,317.62L229.78,323.84L230.93,323.8L232.07,322.35L233.21,321.62L234.36,319.07L235.5,318.71L236.64,315.44L237.79,319.07L238.93,318.71L241.21,329.26L242.36,322.35L243.5,327.44L244.64,319.07L245.79,316.57L246.93,318.71L248.07,315.44L249.22,314.71L251.5,311.07L252.65,314.71L253.79,313.26L254.93,156.17L256.08,127.81L257.22,244.53L258.36,269.99L259.51,257.26L260.65,291.8L261.79,285.26L262.94,285.33L264.08,303.8L265.22,309.98L266.37,300.17L268.65,316.89L269.79,316.89L270.94,316.53L272.08,310.35L273.22,315.44L274.37,313.98L275.51,318.71L276.65,316.89L277.8,319.8L278.94,320.53L280.08,315.48L281.23,313.98L282.37,320.16L283.51,316.53L284.66,324.16L285.8,323.8L286.94,322.35L288.09,318.35L289.23,320.53L290.37,315.07L291.52,318.35L292.66,319.07L293.8,321.26L294.95,320.89L296.09,322.71L297.23,322.38L298.37,322.71L299.52,328.16L300.66,323.07L301.8,324.16L302.95,330.71L304.09,328.89L305.23,325.62L306.38,326.71L307.52,328.89L308.66,328.89L312.09,322.71L313.24,324.93L314.38,328.53L315.52,320.16L316.67,320.89L317.81,325.98L318.95,324.16L320.1,320.16L321.24,325.62L322.38,325.26L323.53,317.98L324.67,317.98L326.95,322.35L328.1,327.8L329.24,317.66L330.38,320.16L331.53,323.44L332.67,322.35L333.81,324.53L334.96,334.71L337.24,324.16L338.39,328.53L339.53,329.98L340.67,320.53L341.82,325.26L342.96,275.8L344.1,104.54L345.25,226.49L346.39,271.8L347.53,281.26L348.68,294.71L349.82,285.26L352.11,309.26L353.25,309.98L354.39,308.53L355.53,321.98L357.82,317.98L358.96,325.98L360.11,322.35L361.25,322.75L362.39,324.53L363.54,328.53L364.68,327.44L365.82,321.62L366.97,318.71L368.11,320.89L369.25,327.44L370.4,325.26L371.54,331.8L372.68,320.16L373.83,321.98L374.97,329.26L376.11,331.8L377.26,326.71L378.4,329.65L379.54,321.26L380.68,317.62L381.83,316.53L382.97,320.89L384.11,317.98L385.26,322.71L386.4,323.44L387.54,324.53L388.69,318.35L389.83,319.07L390.97,322.35L392.12,321.62L393.26,317.98L394.4,328.2L395.55,322.35L396.69,326.71L397.83,322.71L398.98,321.98L400.12,326.35L401.26,332.16L402.41,326.35L403.55,329.62L404.69,325.26L405.84,323.8L406.98,327.44L408.12,324.53L409.26,332.16L410.41,325.29L411.55,327.44L412.69,331.07L413.84,326.35L416.12,328.16L417.27,326.35L418.41,322.71L419.55,326.71L420.7,332.89L421.84,329.62L422.98,324.53L424.13,326.35L425.27,330.71L426.41,330.74L427.56,330.71L428.7,331.8L429.84,329.98L430.99,329.98L432.13,332.53L433.27,332.16L434.42,331.44L435.56,332.53L436.7,331.44L437.84,333.26L438.99,328.16L440.13,332.89L441.27,334.71L442.42,328.2L443.56,317.26L444.7,94L446.99,269.62L448.13,295.44L449.28,294.71L450.42,296.53L452.71,308.53L453.85,311.44L456.14,323.8L457.28,307.8L458.42,315.8L459.57,316.57L460.71,313.26L461.85,316.53L463,318.71L464.14,317.98L465.28,323.8L466.42,321.26L467.57,309.62L468.71,314.35L469.85,313.98L471,315.44L472.14,318.35L473.28,325.62L474.43,323.07L475.57,322.38L476.71,318.71L477.86,319.07L479,313.98" style="vector-effect: none; fill: none; stroke: rgb(239, 85, 59); stroke-opacity: 1; stroke-width: 2px; opacity: 1;"/></g><g class="points"/><g class="text"/></g></g></g><g class="overplot"/><path class="xlines-above crisp" d="M0,0" style="fill: none;"/><path class="ylines-above crisp" d="M0,0" style="fill: none;"/><g class="overlines-above"/><g class="xaxislayer-above"><g class="xtick"><text text-anchor="middle" x="0" y="433" transform="translate(91.43,0)" style="font-family: 'Open Sans', verdana, arial, sans-serif; font-size: 12px; fill: rgb(42, 63, 95); fill-opacity: 1; white-space: pre; opacity: 1;">100</text></g><g class="xtick"><text text-anchor="middle" x="0" y="433" style="font-family: 'Open Sans', verdana, arial, sans-serif; font-size: 12px; fill: rgb(42, 63, 95); fill-opacity: 1; white-space: pre; opacity: 1;" transform="translate(205.75,0)">200</text></g><g class="xtick"><text text-anchor="middle" x="0" y="433" style="font-family: 'Open Sans', verdana, arial, sans-serif; font-size: 12px; fill: rgb(42, 63, 95); fill-opacity: 1; white-space: pre; opacity: 1;" transform="translate(320.07,0)">300</text></g><g class="xtick"><text text-anchor="middle" x="0" y="433" style="font-family: 'Open Sans', verdana, arial, sans-serif; font-size: 12px; fill: rgb(42, 63, 95); fill-opacity: 1; white-space: pre; opacity: 1;" transform="translate(434.39,0)">400</text></g><g class="xtick"><text text-anchor="middle" x="0" y="433" style="font-family: 'Open Sans', verdana, arial, sans-serif; font-size: 12px; fill: rgb(42, 63, 95); fill-opacity: 1; white-space: pre; opacity: 1;" transform="translate(548.71,0)">500</text></g></g><g class="yaxislayer-above"><g class="ytick"><text text-anchor="end" x="79" y="4.199999999999999" transform="translate(0,383.8)" style="font-family: 'Open Sans', verdana, arial, sans-serif; font-size: 12px; fill: rgb(42, 63, 95); fill-opacity: 1; white-space: pre; opacity: 1;">100</text></g><g class="ytick"><text text-anchor="end" x="79" y="4.199999999999999" style="font-family: 'Open Sans', verdana, arial, sans-serif; font-size: 12px; fill: rgb(42, 63, 95); fill-opacity: 1; white-space: pre; opacity: 1;" transform="translate(0,347.44)">200</text></g><g class="ytick"><text text-anchor="end" x="79" y="4.199999999999999" style="font-family: 'Open Sans', verdana, arial, sans-serif; font-size: 12px; fill: rgb(42, 63, 95); fill-opacity: 1; white-space: pre; opacity: 1;" transform="translate(0,311.08000000000004)">300</text></g><g class="ytick"><text text-anchor="end" x="79" y="4.199999999999999" style="font-family: 'Open Sans', verdana, arial, sans-serif; font-size: 12px; fill: rgb(42, 63, 95); fill-opacity: 1; white-space: pre; opacity: 1;" transform="translate(0,274.72)">400</text></g><g class="ytick"><text text-anchor="end" x="79" y="4.199999999999999" style="font-family: 'Open Sans', verdana, arial, sans-serif; font-size: 12px; fill: rgb(42, 63, 95); fill-opacity: 1; white-space: pre; opacity: 1;" transform="translate(0,238.35)">500</text></g><g class="ytick"><text text-anchor="end" x="79" y="4.199999999999999" style="font-family: 'Open Sans', verdana, arial, sans-serif; font-size: 12px; fill: rgb(42, 63, 95); fill-opacity: 1; white-space: pre; opacity: 1;" transform="translate(0,201.99)">600</text></g><g class="ytick"><text text-anchor="end" x="79" y="4.199999999999999" style="font-family: 'Open Sans', verdana, arial, sans-serif; font-size: 12px; fill: rgb(42, 63, 95); fill-opacity: 1; white-space: pre; opacity: 1;" transform="translate(0,165.63)">700</text></g><g class="ytick"><text text-anchor="end" x="79" y="4.199999999999999" style="font-family: 'Open Sans', verdana, arial, sans-serif; font-size: 12px; fill: rgb(42, 63, 95); fill-opacity: 1; white-space: pre; opacity: 1;" transform="translate(0,129.26999999999998)">800</text></g><g class="ytick"><text text-anchor="end" x="79" y="4.199999999999999" style="font-family: 'Open Sans', verdana, arial, sans-serif; font-size: 12px; fill: rgb(42, 63, 95); fill-opacity: 1; white-space: pre; opacity: 1;" transform="translate(0,92.91)">900</text></g></g><g class="overaxes-above"/></g></g><g class="polarlayer"/><g class="smithlayer"/><g class="ternarylayer"/><g class="geolayer"/><g class="funnelarealayer"/><g class="pielayer"/><g class="iciclelayer"/><g class="treemaplayer"/><g class="sunburstlayer"/><g class="glimages"/><defs id="topdefs-dcadcc"><g class="clips"/><clipPath id="legenddcadcc"><rect width="119" height="67" x="0" y="0"/></clipPath></defs><g class="layer-above"><g class="imagelayer"/><g class="shapelayer"/></g><g class="infolayer"><g class="legend" pointer-events="all" transform="translate(568.5799999999999,60)"><rect class="bg" shape-rendering="crispEdges" style="stroke: rgb(68, 68, 68); stroke-opacity: 1; fill: rgb(255, 255, 255); fill-opacity: 1; stroke-width: 0px;" width="119" height="67" x="0" y="0"/><g class="scrollbox" transform="" clip-path="url(#legenddcadcc)"><text class="legendtitletext" text-anchor="start" x="2" y="18.2" style="font-family: 'Open Sans', verdana, arial, sans-serif; font-size: 14px; fill: rgb(42, 63, 95); fill-opacity: 1; white-space: pre;">Latency</text><g class="groups" transform=""><g class="traces" transform="translate(0,32.7)" style="opacity: 1;"><text class="legendtext" text-anchor="start" x="40" y="4.680000000000001" style="font-family: 'Open Sans', verdana, arial, sans-serif; font-size: 12px; fill: rgb(42, 63, 95); fill-opacity: 1; white-space: pre;">cluster-run1</text><g class="layers" style="opacity: 1;"><g class="legendfill"/><g class="legendlines"><path class="js-line" d="M5,0h30" style="fill: none; stroke: rgb(99, 110, 250); stroke-opacity: 1; stroke-width: 2px;"/></g><g class="legendsymbols"><g class="legendpoints"/></g></g><rect class="legendtoggle" x="0" y="-9.5" width="113.78125" height="19" style="fill: rgb(0, 0, 0); fill-opacity: 0;"/></g></g><g class="groups" transform=""><g class="traces" transform="translate(0,51.7)" style="opacity: 1;"><text class="legendtext" text-anchor="start" x="40" y="4.680000000000001" style="font-family: 'Open Sans', verdana, arial, sans-serif; font-size: 12px; fill: rgb(42, 63, 95); fill-opacity: 1; white-space: pre;">cluster-run2</text><g class="layers" style="opacity: 1;"><g class="legendfill"/><g class="legendlines"><path class="js-line" d="M5,0h30" style="fill: none; stroke: rgb(239, 85, 59); stroke-opacity: 1; stroke-width: 2px;"/></g><g class="legendsymbols"><g class="legendpoints"/></g></g><rect class="legendtoggle" x="0" y="-9.5" width="113.78125" height="19" style="fill: rgb(0, 0, 0); fill-opacity: 0;"/></g></g></g><rect class="scrollbar" rx="20" ry="3" width="0" height="0" style="fill: rgb(128, 139, 164); fill-opacity: 1;" x="0" y="0"/></g><g class="g-gtitle"/><g class="g-xtitle"><text class="xtitle" x="319.5" y="459.8" text-anchor="middle" style="font-family: 'Open Sans', verdana, arial, sans-serif; font-size: 14px; fill: rgb(42, 63, 95); opacity: 1; font-weight: normal; white-space: pre;">seconds</text></g><g class="g-ytitle"><text class="ytitle" transform="rotate(-90,31.809375000000003,240)" x="31.809375000000003" y="240" text-anchor="middle" style="font-family: 'Open Sans', verdana, arial, sans-serif; font-size: 14px; fill: rgb(42, 63, 95); opacity: 1; font-weight: normal; white-space: pre;">operations</text></g></g></svg>