<svg class="main-svg" xmlns="http://www.w3.org/2000/svg" xmlns:xlink="http://www.w3.org/1999/xlink" width="700" height="500" style="" viewBox="0 0 700 500"><rect x="0" y="0" width="700" height="500" style="fill: rgb(255, 255, 255); fill-opacity: 1;"/><defs id="defs-33480c"><g class="clips"><clipPath id="clip33480cxyplot" class="plotclip"><rect width="511" height="360"/></clipPath><clipPath class="axesclip" id="clip33480cx"><rect x="80" y="0" width="511" height="500"/></clipPath><clipPath class="axesclip" id="clip33480cy"><rect x="0" y="60" width="700" height="360"/></clipPath><clipPath class="axesclip" id="clip33480cxy"><rect x="80" y="60" width="511" height="360"/></clipPath></g><g class="gradients"/><g class="patterns"/></defs><g class="bglayer"><rect class="bg" x="80" y="60" width="511" height="360" style="fill: rgb(229, 236, 246); fill-opacity: 1; stroke-width: 0;"/></g><g class="layer-below"><g class="imagelayer"/><g class="shapelayer"/></g><g class="cartesianlayer"><g class="subplot xy"><g class="layer-subplot"><g class="shapelayer"/><g class="imagelayer"/></g><g class="minor-gridlayer"><g class="x"/><g class="y"/></g><g class="gridlayer"><g class="x"><path class="xgrid crisp" transform="translate(92.14,0)" d="M0,60v360" style="stroke: rgb(255, 255, 255); stroke-opacity: 1; stroke-width: 1px;"/><path class="xgrid crisp" transform="translate(213.52,0)" d="M0,60v360" style="stroke: rgb(255, 255, 255); stroke-opacity: 1; stroke-width: 1px;"/><path class="xgrid crisp" transform="translate(334.89,0)" d="M0,60v360" style="stroke: rgb(255, 255, 255); stroke-opacity: 1; stroke-width: 1px;"/><path class="xgrid crisp" transform="translate(456.27,0)" d="M0,60v360" style="stroke: rgb(255, 255, 255); stroke-opacity: 1; stroke-width: 1px;"/><path class="xgrid crisp" transform="translate(577.65,0)" d="M0,60v360" style="stroke: rgb(255, 255, 255); stroke-opacity: 1; stroke-width: 1px;"/></g><g class="y"><path class="ygrid crisp" transform="translate(0,351.69)" d="M80,0h511" style="stroke: rgb(255, 255, 255); stroke-opacity: 1; stroke-width: 1px;"/><path class="ygrid crisp" transform="translate(0,301.38)" d="M80,0h511" style="stroke: rgb(255, 255, 255); stroke-opacity: 1; stroke-width: 1px;"/><path class="ygrid crisp" transform="translate(0,251.07)" d="M80,0h511" style="stroke: rgb(255, 255, 255); stroke-opacity: 1; stroke-width: 1px;"/><path class="ygrid crisp" transform="translate(0,200.76)" d="M80,0h511" style="stroke: rgb(255, 255, 255); stroke-opacity: 1; stroke-width: 1px;"/><path class="ygrid crisp" transform="translate(0,150.45)" d="M80,0h511" style="stroke: rgb(255, 255, 255); stroke-opacity: 1; stroke-width: 1px;"/><path class="ygrid crisp" transform="translate(0,100.14)" d="M80,0h511" style="stroke: rgb(255, 255, 255); stroke-opacity: 1; stroke-width: 1px;"/></g></g><g class="zerolinelayer"><path class="yzl zl crisp" transform="translate(0,402)" d="M80,0h511" style="stroke: rgb(255, 255, 255); stroke-opacity: 1; stroke-width: 2px;"/></g><path class="xlines-below"/><path class="ylines-below"/><g class="overlines-below"/><g class="xaxislayer-below"/><g class="yaxislayer-below"/><g class="overaxes-below"/><g class="plot" transform="translate(80,60)" clip-path="url(#clip33480cxyplot)"><g class="scatterlayer mlayer"><g class="trace scatter traced13c8d" style="stroke-miterlimit: 2; opacity: 1;"><g class="fills"/><g class="errorbars"/><g class="lines"><path class="js-line" d="M0,308.8L1.21,313.32L2.43,311.31L3.64,313.32L4.86,312.82L6.07,315.34L7.28,315.84L8.5,315.34L9.71,312.32L10.92,315.84L12.14,311.81L13.35,314.83L14.57,312.85L15.78,313.83L16.99,312.32L18.21,316.34L19.42,311.81L20.63,314.83L21.85,315.84L23.06,311.81L24.28,317.35L25.49,313.83L26.7,317.35L27.92,313.32L29.13,313.32L30.34,311.81L31.56,314.33L32.77,310.84L33.99,314.33L35.2,309.3L36.41,316.34L37.63,309.3L38.84,318.35L40.05,308.29L41.27,314.83L42.48,311.81L43.7,315.34L44.91,310.3L46.12,315.84L48.55,313.32L49.76,314.36L50.98,313.83L52.19,315.34L53.41,310.3L54.62,313.32L55.83,309.8L57.05,316.34L58.26,309.8L59.48,316.34L60.69,310.81L61.9,314.83L63.12,309.8L64.33,316.34L65.54,310.81L66.76,317.85L69.19,311.31L70.4,313.32L71.61,311.81L72.83,314.33L74.04,312.32L75.25,313.32L76.47,315.34L77.68,313.32L80.11,315.84L81.32,311.81L82.54,316.84L83.75,313.32L84.96,316.84L86.18,310.84L87.39,317.85L88.61,314.83L89.82,315.84L91.03,313.83L92.25,317.85L93.46,313.83L94.67,313.83L95.89,319.36L97.1,312.82L98.32,318.35L99.53,312.82L100.74,316.34L101.96,312.82L103.17,315.86L104.38,313.32L105.6,314.83L108.03,312.82L109.24,313.83L110.45,313.83L111.67,316.84L112.88,314.33L114.1,317.85L115.31,313.32L116.52,316.84L117.74,313.32L118.95,315.84L121.38,314.83L122.59,316.87L123.81,312.32L125.02,318.86L126.23,310.81L127.45,318.35L128.66,314.83L129.87,315.84L131.09,316.34L132.3,312.82L134.73,316.84L135.94,317.35L137.16,310.81L138.37,316.84L139.58,314.33L140.8,314.83L143.23,314.83L144.44,315.84L145.65,312.32L146.87,315.34L148.08,312.82L149.29,316.84L150.51,311.81L151.72,319.36L152.94,311.81L154.15,315.34L155.36,317.85L156.58,313.83L157.79,317.35L159,311.81L160.22,318.88L161.43,315.34L162.65,315.34L163.86,313.32L165.07,314.83L166.29,312.82L167.5,315.84L168.71,312.32L169.93,311.81L171.14,313.32L172.36,311.81L173.57,314.33L174.78,314.33L176,312.82L177.21,315.34L178.43,311.34L179.64,315.84L180.85,312.82L182.07,318.35L183.28,315.84L184.49,312.32L185.71,318.86L186.92,311.81L188.14,318.86L189.35,312.32L190.56,314.33L191.78,312.82L192.99,314.83L194.2,312.32L195.42,316.37L196.63,313.83L197.85,314.83L199.06,317.85L200.27,311.31L201.49,320.37L202.7,314.83L203.91,314.33L205.13,314.83L207.56,316.34L208.77,310.81L209.98,317.85L211.2,18L212.41,74.85L213.62,193.08L214.84,235.95L216.05,238.36L217.27,261.5L218.48,242.89L219.69,269.55L220.91,244.9L223.33,272.07L224.55,274.08L225.76,268.04L226.98,274.58L228.19,284.14L229.4,281.63L230.62,276.09L231.83,287.16L233.05,287.22L234.26,294.71L235.47,296.72L236.69,297.22L239.11,288.17L240.33,287.16L241.54,286.66L242.76,271.57L243.97,279.61L245.18,295.21L246.4,295.71L247.61,295.21L250.04,296.72L251.25,298.78L252.47,306.78L253.68,303.26L254.89,308.29L256.11,301.75L257.32,309.8L258.53,306.28L259.75,312.32L260.96,306.78L262.18,307.29L263.39,310.3L264.6,308.8L265.82,312.32L267.03,308.8L268.24,312.85L269.46,313.32L270.67,312.82L271.89,316.34L273.1,312.82L274.31,316.84L275.53,314.33L277.95,317.35L279.17,316.84L280.38,316.34L281.6,319.36L282.81,316.84L284.02,319.86L285.24,319.86L286.45,316.87L287.67,316.84L288.88,317.85L290.09,320.87L291.31,320.87L292.52,315.34L293.73,318.35L294.95,321.88L296.16,318.35L297.38,319.86L298.59,317.35L299.8,320.87L301.02,321.37L302.23,317.35L303.44,316.87L304.66,322.88L305.87,318.35L307.09,318.35L308.3,320.37L309.51,315.34L310.73,320.37L313.15,318.86L314.37,317.85L316.8,319.36L318.01,318.86L319.22,319.36L320.44,318.35L322.86,321.37L324.08,321.37L325.29,318.86L326.51,319.36L327.72,320.37L328.93,320.37L330.15,315.34L331.36,320.37L332.57,321.37L333.79,315.84L336.22,323.39L337.43,317.35L338.64,322.38L339.86,320.39L341.07,318.86L342.29,322.38L343.5,317.85L344.71,319.86L347.14,318.35L348.35,319.86L349.57,317.85L350.78,318.35L352,320.87L353.21,319.86L354.42,319.36L355.64,319.86L356.85,318.86L358.06,321.39L359.28,320.87L360.49,321.37L361.71,322.38L362.92,316.84L364.13,321.37L365.35,321.88L366.56,319.86L367.77,321.37L370.2,319.86L371.42,320.87L372.63,320.87L373.84,317.85L375.06,320.87L376.27,317.37L377.48,320.87L378.7,319.36L379.91,318.35L381.13,321.88L383.55,317.85L384.77,319.36L387.19,320.37L388.41,318.86L389.62,320.87L390.84,320.87L392.05,317.85L393.26,321.88L394.48,320.89L395.69,317.35L396.9,320.37L398.12,320.87L399.33,320.37L400.55,318.35L404.19,321.88L405.4,320.87L406.62,318.86L407.83,320.37L409.04,319.86L410.26,320.37L411.47,319.89L412.68,318.35L413.9,322.88L415.11,316.84L416.33,321.37L417.54,320.37L418.75,318.86L419.97,319.86L421.18,322.38L422.39,318.35L423.61,318.35L424.82,319.36L426.04,321.88L427.25,320.37L428.46,321.37L429.68,318.35L432.1,320.87L433.32,316.84L435.75,319.86L436.96,318.35L438.17,318.35L439.39,321.37L440.6,315.84L441.81,320.87L443.03,317.85L444.24,319.86L445.46,322.38L446.67,318.35L447.88,318.86L449.1,322.4L450.31,316.34L451.52,322.88L452.74,319.86L453.95,320.37L456.38,318.35L457.59,318.86L458.81,322.38L460.02,317.85L461.24,319.86L462.45,320.37L463.66,321.88L464.88,319.36L466.09,316.34L467.3,317.85L468.52,321.9L469.73,317.85L470.95,320.37L472.16,317.85L473.37,318.86L474.59,321.88L475.8,315.84L477.01,323.39L478.23,317.85L479.44,319.86L480.66,320.87L481.87,319.36L483.08,321.88L484.3,317.85L485.51,317.85L486.72,323.91L487.94,317.85L489.15,319.36L490.37,321.37L491.58,317.85L492.79,320.37L494.01,319.86L495.22,319.36L496.43,323.39L497.65,319.36L498.86,319.86L500.08,322.88L501.29,316.34L502.5,322.88L503.72,319.36L507.36,321.37L508.57,318.86L509.79,323.89L511,319.36" style="vector-effect: none; fill: none; stroke: rgb(99, 110, 250); stroke-opacity: 1; stroke-width: 2px; opacity: 1;"/></g><g class="points"/><g class="text"/></g><g class="trace scatter trace613f53" style="stroke-miterlimit: 2; opacity: 1;"><g class="fills"/><g class="errorbars"/><g class="lines"><path class="js-line" d="M0,341.5L1.21,340.49L2.43,340.49L4.86,342L6.07,340.49L9.71,340.99L10.92,342L12.14,338.98L13.35,340.99L14.57,341.5L15.78,339.48L16.99,342L18.21,336.97L19.42,337.98L20.63,340.49L21.85,342L23.06,340.99L24.28,340.49L25.49,342L26.7,340.49L27.92,340.99L29.13,342L30.34,340.49L31.56,342L32.77,339.48L33.99,342L35.2,342L36.41,342L37.63,340.49L38.84,340.49L40.05,342L42.48,340.49L43.7,340.49L44.91,342L46.12,340.99L47.34,342L48.55,340.49L55.83,340.49L57.05,342L59.48,340.49L60.69,340.49L61.9,340.49L63.12,342L65.54,340.49L66.76,340.49L67.97,340.49L69.19,342L71.61,340.49L72.83,340.49L75.25,340.49L76.47,339.48L77.68,335.96L78.9,342L80.11,340.49L81.32,340.99L82.54,340.49L83.75,342L84.96,340.49L86.18,342L87.39,340.49L88.61,341.5L89.82,341.5L91.03,340.49L92.25,340.49L93.46,342L94.67,342L95.89,340.99L97.1,340.49L98.32,342L99.53,340.49L100.74,340.99L101.96,342L103.17,340.49L104.38,342L105.6,340.49L108.03,342L109.24,340.49L110.45,340.49L111.67,339.48L112.88,342L114.1,340.49L117.74,340.99L118.95,342L120.16,340.49L121.38,340.49L122.59,340.49L123.81,342L126.23,340.49L127.45,340.49L128.66,342L129.87,340.49L131.09,340.99L132.3,340.49L134.73,340.49L135.94,338.98L137.16,336.47L138.37,342L139.58,340.49L140.8,342L142.01,340.49L143.23,340.99L144.44,342L145.65,340.49L146.87,342L148.08,340.49L150.51,342L151.72,340.49L152.94,340.49L154.15,342L155.36,342L156.58,340.99L157.79,340.49L159,342L160.22,340.49L161.43,340.99L162.65,342L163.86,340.49L165.07,340.49L166.29,342L167.5,342L168.71,340.99L169.93,340.49L171.14,340.99L173.57,340.49L174.78,342L176,340.49L177.21,340.49L179.64,342L180.85,340.49L182.07,340.49L183.28,342L184.49,340.49L185.71,340.99L186.92,342L188.14,340.49L190.56,340.99L191.78,342L192.99,342L194.2,338.98L196.63,342L197.85,339.48L199.06,342L200.27,338.98L201.49,335.96L202.7,340.99L203.91,342L205.13,340.49L206.34,342L207.56,340.49L208.77,342L209.98,340.99L212.41,341.5L213.62,342L214.84,340.49L216.05,340.99L217.27,340.49L218.48,342L220.91,342L222.12,340.99L223.33,340.49L224.55,342L225.76,340.49L226.98,340.99L228.19,342L229.4,340.49L230.62,342L231.83,340.49L233.05,342L234.26,340.99L236.69,340.49L237.9,340.49L241.54,340.49L242.76,342L243.97,340.49L245.18,340.99L246.4,342L247.61,340.49L248.82,340.49L250.04,341.5L253.68,340.49L254.89,340.49L256.11,342L257.32,340.99L259.75,340.49L260.96,342L262.18,340.49L263.39,340.49L264.6,339.48L265.82,335.97L267.03,342L268.24,340.49L269.46,341.5L270.67,341.5L271.89,340.49L273.1,342L274.31,340.49L275.53,340.99L276.74,342L277.95,340.49L279.17,342L280.38,338.98L281.6,342L282.81,342L284.02,342L285.24,340.99L286.45,340.49L287.67,342L290.09,340.49L291.31,342L292.52,340.49L293.73,340.99L294.95,342L296.16,340.49L297.38,340.49L298.59,342L301.02,339.49L302.23,342L303.44,340.49L304.66,340.49L305.87,342L307.09,340.99L309.51,340.49L310.73,340.49L311.94,342L313.15,340.99L314.37,340.49L315.58,342L316.8,340.49L318.01,340.49L319.22,342L320.44,340.99L322.86,340.49L324.08,340.49L325.29,340.99L326.51,338.98L327.72,339.48L328.93,338.48L331.36,342L332.57,340.49L333.79,340.49L335,342L336.22,340.99L337.43,342L338.64,340.49L339.86,342L341.07,340.49L342.29,340.99L343.5,340.49L344.71,342L345.93,342L347.14,340.49L349.57,342L350.78,340.49L352,340.49L353.21,342L354.42,340.49L355.64,340.99L356.85,342L358.06,340.49L359.28,340.49L360.49,342L361.71,340.99L362.92,338.98L365.35,342L366.56,340.49L367.77,342L368.99,340.99L371.42,340.49L372.63,340.49L375.06,342L376.27,340.49L378.7,340.49L379.91,342L381.13,340.49L382.34,340.99L384.77,340.49L385.98,340.99L388.41,335.97L389.62,342L390.84,340.49L392.05,342L394.48,340.49L395.69,342L396.9,340.99L398.12,342L399.33,340.49L400.55,340.99L401.76,341.5L402.97,340.49L406.62,342L407.83,340.49L409.04,340.49L410.26,342L412.68,340.49L413.9,342L415.11,340.49L416.33,340.99L417.54,342L418.75,340.49L426.04,340.49L427.25,342L429.68,340.49L430.89,340.49L432.1,340.49L433.32,342L435.75,340.49L436.96,340.49L438.17,340.49L439.39,342L441.81,340.49L443.03,340.49L445.46,340.99L446.67,338.98L447.88,342L449.1,335.96L450.31,340.49L451.52,342L453.95,340.49L455.17,342L456.38,340.49L457.59,342L458.81,340.99L460.02,342L461.24,340.49L462.45,342L463.66,339.48L464.88,342L466.09,342L467.3,340.49L468.52,342L469.73,340.49L470.95,340.99L472.16,340.49L473.37,342L474.59,340.49L477.01,342L478.23,340.49L485.51,340.49L486.72,342L487.94,340.49L489.15,340.99L491.58,340.49L492.79,341.5L496.43,340.49L497.65,340.49L498.86,342L500.08,340.99L502.5,340.49L503.72,340.49L504.93,340.49L506.14,342L508.57,335.96L509.79,342L511,340.49" style="vector-effect: none; fill: none; stroke: rgb(239, 85, 59); stroke-opacity: 1; stroke-width: 2px; opacity: 1;"/></g><g class="points"/><g class="text"/></g></g></g><g class="overplot"/><path class="xlines-above crisp" d="M0,0" style="fill: none;"/><path class="ylines-above crisp" d="M0,0" style="fill: none;"/><g class="overlines-above"/><g class="xaxislayer-above"><g class="xtick"><text text-anchor="middle" x="0" y="433" transform="translate(92.14,0)" style="font-family: 'Open Sans', verdana, arial, sans-serif; font-size: 12px; fill: rgb(42, 63, 95); fill-opacity: 1; white-space: pre; opacity: 1;">100</text></g><g class="xtick"><text text-anchor="middle" x="0" y="433" style="font-family: 'Open Sans', verdana, arial, sans-serif; font-size: 12px; fill: rgb(42, 63, 95); fill-opacity: 1; white-space: pre; opacity: 1;" transform="translate(213.52,0)">200</text></g><g class="xtick"><text text-anchor="middle" x="0" y="433" style="font-family: 'Open Sans', verdana, arial, sans-serif; font-size: 12px; fill: rgb(42, 63, 95); fill-opacity: 1; white-space: pre; opacity: 1;" transform="translate(334.89,0)">300</text></g><g class="xtick"><text text-anchor="middle" x="0" y="433" style="font-family: 'Open Sans', verdana, arial, sans-serif; font-size: 12px; fill: rgb(42, 63, 95); fill-opacity: 1; white-space: pre; opacity: 1;" transform="translate(456.27,0)">400</text></g><g class="xtick"><text text-anchor="middle" x="0" y="433" style="font-family: 'Open Sans', verdana, arial, sans-serif; font-size: 12px; fill: rgb(42, 63, 95); fill-opacity: 1; white-space: pre; opacity: 1;" transform="translate(577.65,0)">500</text></g></g><g class="yaxislayer-above"><g class="ytick"><text text-anchor="end" x="79" y="4.199999999999999" transform="translate(0,402)" style="font-family: 'Open Sans', verdana, arial, sans-serif; font-size: 12px; fill: rgb(42, 63, 95); fill-opacity: 1; white-space: pre; opacity: 1;">0</text></g><g class="ytick"><text text-anchor="end" x="79" y="4.199999999999999" style="font-family: 'Open Sans', verdana, arial, sans-serif; font-size: 12px; fill: rgb(42, 63, 95); fill-opacity: 1; white-space: pre; opacity: 1;" transform="translate(0,351.69)">100</text></g><g class="ytick"><text text-anchor="end" x="79" y="4.199999999999999" style="font-family: 'Open Sans', verdana, arial, sans-serif; font-size: 12px; fill: rgb(42, 63, 95); fill-opacity: 1; white-space: pre; opacity: 1;" transform="translate(0,301.38)">200</text></g><g class="ytick"><text text-anchor="end" x="79" y="4.199999999999999" style="font-family: 'Open Sans', verdana, arial, sans-serif; font-size: 12px; fill: rgb(42, 63, 95); fill-opacity: 1; white-space: pre; opacity: 1;" transform="translate(0,251.07)">300</text></g><g class="ytick"><text text-anchor="end" x="79" y="4.199999999999999" style="font-family: 'Open Sans', verdana, arial, sans-serif; font-size: 12px; fill: rgb(42, 63, 95); fill-opacity: 1; white-space: pre; opacity: 1;" transform="translate(0,200.76)">400</text></g><g class="ytick"><text text-anchor="end" x="79" y="4.199999999999999" style="font-family: 'Open Sans', verdana, arial, sans-serif; font-size: 12px; fill: rgb(42, 63, 95); fill-opacity: 1; white-space: pre; opacity: 1;" transform="translate(0,150.45)">500</text></g><g class="ytick"><text text-anchor="end" x="79" y="4.199999999999999" style="font-family: 'Open Sans', verdana, arial, sans-serif; font-size: 12px; fill: rgb(42, 63, 95); fill-opacity: 1; white-space: pre; opacity: 1;" transform="translate(0,100.14)">600</text></g></g><g class="overaxes-above"/></g></g><g class="polarlayer"/><g class="smithlayer"/><g class="ternarylayer"/><g class="geolayer"/><g class="funnelarealayer"/><g class="pielayer"/><g class="iciclelayer"/><g class="treemaplayer"/><g class="sunburstlayer"/><g class="glimages"/><defs id="topdefs-33480c"><g class="clips"/><clipPath id="legend33480c"><rect width="87" height="67" x="0" y="0"/></clipPath></defs><g class="layer-above"><g class="imagelayer"/><g class="shapelayer"/></g><g class="infolayer"><g class="legend" pointer-events="all" transform="translate(601.22,60)"><rect class="bg" shape-rendering="crispEdges" style="stroke: rgb(68, 68, 68); stroke-opacity: 1; fill: rgb(255, 255, 255); fill-opacity: 1; stroke-width: 0px;" width="87" height="67" x="0" y="0"/><g class="scrollbox" transform="" clip-path="url(#legend33480c)"><text class="legendtitletext" text-anchor="start" x="2" y="18.2" style="font-family: 'Open Sans', verdana, arial, sans-serif; font-size: 14px; fill: rgb(42, 63, 95); fill-opacity: 1; white-space: pre;">Latency</text><g class="groups" transform=""><g class="traces" transform="translate(0,32.7)" style="opacity: 1;"><text class="legendtext" text-anchor="start" x="40" y="4.680000000000001" style="font-family: 'Open Sans', verdana, arial, sans-serif; font-size: 12px; fill: rgb(42, 63, 95); fill-opacity: 1; white-space: pre;">cluster</text><g class="layers" style="opacity: 1;"><g class="legendfill"/><g class="legendlines"><path class="js-line" d="M5,0h30" style="fill: none; stroke: rgb(99, 110, 250); stroke-opacity: 1; stroke-width: 2px;"/></g><g class="legendsymbols"><g class="legendpoints"/></g></g><rect class="legendtoggle" x="0" y="-9.5" width="81.984375" height="19" style="fill: rgb(0, 0, 0); fill-opacity: 0;"/></g></g><g class="groups" transform=""><g class="traces" transform="translate(0,51.7)" style="opacity: 1;"><text class="legendtext" text-anchor="start" x="40" y="4.680000000000001" style="font-family: 'Open Sans', verdana, arial, sans-serif; font-size: 12px; fill: rgb(42, 63, 95); fill-opacity: 1; white-space: pre;">tc-1ms</text><g class="layers" style="opacity: 1;"><g class="legendfill"/><g class="legendlines"><path class="js-line" d="M5,0h30" style="fill: none; stroke: rgb(239, 85, 59); stroke-opacity: 1; stroke-width: 2px;"/></g><g class="legendsymbols"><g class="legendpoints"/></g></g><rect class="legendtoggle" x="0" y="-9.5" width="81.984375" height="19" style="fill: rgb(0, 0, 0); fill-opacity: 0;"/></g></g></g><rect class="scrollbar" rx="20" ry="3" width="0" height="0" style="fill: rgb(128, 139, 164); fill-opacity: 1;" x="0" y="0"/></g><g class="g-gtitle"/><g class="g-xtitle"><text class="xtitle" x="335.5" y="459.8" text-anchor="middle" style="font-family: 'Open Sans', verdana, arial, sans-serif; font-size: 14px; fill: rgb(42, 63, 95); opacity: 1; font-weight: normal; white-space: pre;">seconds</text></g><g class="g-ytitle"><text class="ytitle" transform="rotate(-90,31.809375000000003,240)" x="31.809375000000003" y="240" text-anchor="middle" style="font-family: 'Open Sans', verdana, arial, sans-serif; font-size: 14px; fill: rgb(42, 63, 95); opacity: 1; font-weight: normal; white-space: pre;">operations</text></g></g></svg>