<svg class="main-svg" xmlns="http://www.w3.org/2000/svg" xmlns:xlink="http://www.w3.org/1999/xlink" width="700" height="500" style="" viewBox="0 0 700 500"><rect x="0" y="0" width="700" height="500" style="fill: rgb(255, 255, 255); fill-opacity: 1;"/><defs id="defs-f9899a"><g class="clips"><clipPath id="clipf9899axyplot" class="plotclip"><rect width="479" height="360"/></clipPath><clipPath class="axesclip" id="clipf9899ax"><rect x="80" y="0" width="479" height="500"/></clipPath><clipPath class="axesclip" id="clipf9899ay"><rect x="0" y="60" width="700" height="360"/></clipPath><clipPath class="axesclip" id="clipf9899axy"><rect x="80" y="60" width="479" height="360"/></clipPath></g><g class="gradients"/><g class="patterns"/></defs><g class="bglayer"><rect class="bg" x="80" y="60" width="479" height="360" style="fill: rgb(229, 236, 246); fill-opacity: 1; stroke-width: 0;"/></g><g class="layer-below"><g class="imagelayer"/><g class="shapelayer"/></g><g class="cartesianlayer"><g class="subplot xy"><g class="layer-subplot"><g class="shapelayer"/><g class="imagelayer"/></g><g class="minor-gridlayer"><g class="x"/><g class="y"/></g><g class="gridlayer"><g class="x"><path class="xgrid crisp" transform="translate(91.4,0)" d="M0,60v360" style="stroke: rgb(255, 255, 255); stroke-opacity: 1; stroke-width: 1px;"/><path class="xgrid crisp" transform="translate(205.45,0)" d="M0,60v360" style="stroke: rgb(255, 255, 255); stroke-opacity: 1; stroke-width: 1px;"/><path class="xgrid crisp" transform="translate(319.5,0)" d="M0,60v360" style="stroke: rgb(255, 255, 255); stroke-opacity: 1; stroke-width: 1px;"/><path class="xgrid crisp" transform="translate(433.55,0)" d="M0,60v360" style="stroke: rgb(255, 255, 255); stroke-opacity: 1; stroke-width: 1px;"/><path class="xgrid crisp" transform="translate(547.6,0)" d="M0,60v360" style="stroke: rgb(255, 255, 255); stroke-opacity: 1; stroke-width: 1px;"/></g><g class="y"><path class="ygrid crisp" transform="translate(0,377.7)" d="M80,0h479" style="stroke: rgb(255, 255, 255); stroke-opacity: 1; stroke-width: 1px;"/><path class="ygrid crisp" transform="translate(0,340.89)" d="M80,0h479" style="stroke: rgb(255, 255, 255); stroke-opacity: 1; stroke-width: 1px;"/><path class="ygrid crisp" transform="translate(0,304.07)" d="M80,0h479" style="stroke: rgb(255, 255, 255); stroke-opacity: 1; stroke-width: 1px;"/><path class="ygrid crisp" transform="translate(0,267.26)" d="M80,0h479" style="stroke: rgb(255, 255, 255); stroke-opacity: 1; stroke-width: 1px;"/><path class="ygrid crisp" transform="translate(0,230.44)" d="M80,0h479" style="stroke: rgb(255, 255, 255); stroke-opacity: 1; stroke-width: 1px;"/><path class="ygrid crisp" transform="translate(0,193.63)" d="M80,0h479" style="stroke: rgb(255, 255, 255); stroke-opacity: 1; stroke-width: 1px;"/><path class="ygrid crisp" transform="translate(0,156.81)" d="M80,0h479" style="stroke: rgb(255, 255, 255); stroke-opacity: 1; stroke-width: 1px;"/><path class="ygrid crisp" transform="translate(0,120)" d="M80,0h479" style="stroke: rgb(255, 255, 255); stroke-opacity: 1; stroke-width: 1px;"/><path class="ygrid crisp" transform="translate(0,83.19)" d="M80,0h479" style="stroke: rgb(255, 255, 255); stroke-opacity: 1; stroke-width: 1px;"/></g></g><g class="zerolinelayer"><path class="yzl zl crisp" transform="translate(0,414.52)" d="M80,0h479" style="stroke: rgb(255, 255, 255); stroke-opacity: 1; stroke-width: 2px;"/></g><path class="xlines-below"/><path class="ylines-below"/><g class="overlines-below"/><g class="xaxislayer-below"/><g class="yaxislayer-below"/><g class="overaxes-below"/><g class="plot" transform="translate(80,60)" clip-path="url(#clipf9899axyplot)"><g class="scatterlayer mlayer"><g class="trace scatter tracecac9ae" style="stroke-miterlimit: 2; opacity: 1;"><g class="fills"/><g class="errorbars"/><g class="lines"><path class="js-line" d="M0,328.75L1.14,321.38L2.28,329.85L3.42,326.91L4.56,326.91L5.7,322.86L6.84,328.75L7.98,324.7L9.12,326.54L12.55,326.91L13.69,322.86L14.83,328.77L15.97,320.65L17.11,329.85L18.25,327.64L19.39,321.38L20.53,323.96L21.67,326.91L22.81,325.8L23.95,323.22L25.09,327.27L26.23,328.75L27.37,325.07L28.51,329.85L29.65,327.64L30.79,324.73L31.93,328.75L33.07,328.38L34.21,323.22L35.35,322.86L36.5,324.33L37.64,327.64L38.78,322.12L39.92,318.81L41.06,329.11L42.2,325.43L43.34,327.64L44.48,329.11L45.62,328.01L46.76,330.98L47.9,327.64L49.04,321.02L50.18,328.75L51.32,326.17L52.46,321.38L53.6,323.96L54.74,331.32L55.88,325.07L57.02,324.7L58.16,325.43L59.3,327.64L61.59,320.28L62.73,328.4L65.01,324.33L66.15,328.01L67.29,331.69L68.43,329.11L69.57,325.43L70.71,332.8L71.85,325.43L72.99,328.75L74.13,330.96L75.27,326.54L76.41,326.91L77.55,332.06L78.69,322.86L79.83,324.36L80.97,327.27L82.11,327.64L84.4,331.32L85.54,323.22L86.68,333.53L87.82,328.75L88.96,335.01L90.1,328.75L91.24,334.64L92.38,329.11L93.52,327.64L94.66,334.29L95.8,327.27L96.94,335.74L98.08,326.54L99.22,337.95L100.36,326.54L101.5,337.58L102.64,328.01L103.78,337.58L104.92,329.11L106.06,336.48L107.2,328.75L108.35,335.01L109.49,331.69L110.63,335.01L112.91,335.74L114.05,332.43L115.19,335.74L116.33,333.53L117.47,333.53L118.61,338.32L119.75,330.96L120.89,335.37L122.03,330.22L123.17,333.16L124.31,331.69L125.45,328.01L126.59,335.37L127.73,326.54L128.87,336.86L130.01,325.43L131.15,338.69L132.3,324.33L133.44,336.11L134.58,327.27L135.72,329.11L136.86,332.8L138,326.91L139.14,335.37L140.28,327.64L141.42,330.96L142.56,332.8L143.7,328.38L144.84,332.8L145.98,328.04L147.12,333.53L148.26,329.11L149.4,331.69L150.54,331.32L151.68,328.38L152.82,337.95L153.96,328.01L155.1,330.96L156.25,321.38L157.39,328.38L158.53,325.8L159.67,325.8L160.81,332.8L161.95,334.64L163.09,333.19L164.23,326.17L165.37,323.96L166.51,326.54L167.65,327.27L168.79,326.54L169.93,326.91L171.07,328.75L172.21,329.48L173.35,327.64L174.49,325.43L175.63,327.64L176.77,321.75L177.91,328.75L179.05,332.45L180.2,331.32L182.48,335.01L183.62,335.01L184.76,333.16L185.9,334.27L188.18,335.74L189.32,336.48L191.6,311.08L192.74,317.33L193.88,321.38L195.02,316.6L196.16,314.43L197.3,315.49L199.58,319.91L200.72,323.96L201.86,328.38L203,320.65L204.15,321.02L205.29,324.7L206.43,318.44L207.57,319.91L208.71,326.17L209.85,324.33L210.99,320.65L212.13,328.4L213.27,325.07L214.41,324.33L215.55,328.75L216.69,324.33L217.83,330.59L218.97,326.54L220.11,322.49L221.25,330.22L223.53,322.12L224.67,326.91L225.81,328.75L226.95,326.17L228.1,328.38L229.24,325.09L230.38,328.38L231.52,329.11L232.66,319.17L233.8,323.59L234.94,323.59L236.08,324.7L238.36,321.02L239.5,321.02L240.64,327.64L241.78,320.28L242.92,323.59L244.06,324.33L245.2,324.36L246.34,325.43L247.48,323.96L248.62,319.91L250.9,330.22L252.05,324.7L253.19,324.7L254.33,329.48L255.47,330.22L256.61,321.75L257.75,327.64L258.89,328.38L260.03,327.27L261.17,319.17L262.31,333.19L263.45,323.59L264.59,327.64L265.73,327.64L266.87,327.64L268.01,330.22L271.43,323.59L272.57,326.54L273.71,327.64L274.85,323.96L276,328.38L277.14,329.11L278.28,325.09L279.42,327.64L281.7,328.01L282.84,329.48L285.12,328.01L286.26,328.75L287.4,325.8L288.54,330.22L289.68,327.64L290.82,329.48L291.96,329.85L293.1,328.38L294.24,331.69L295.38,331.35L296.52,326.54L297.66,328.38L298.8,328.38L299.95,326.17L302.23,329.11L303.37,328.75L304.51,332.43L305.65,330.59L306.79,332.8L307.93,329.11L309.07,331.69L310.21,328.75L311.35,328.01L312.49,330.98L313.63,327.64L314.77,329.48L315.91,328.38L317.05,331.69L318.19,324.33L319.33,332.43L320.47,324.33L321.61,333.53L322.75,326.17L323.9,327.64L325.04,328.75L326.18,324.7L327.32,330.96L328.46,327.27L329.6,327.67L330.74,326.17L331.88,330.22L333.02,323.96L334.16,332.8L335.3,327.64L336.44,333.16L337.58,329.11L338.72,328.75L339.86,331.69L341,327.64L342.14,333.53L343.28,325.07L344.42,333.9L345.56,326.54L346.7,331.35L347.85,330.22L348.99,330.59L352.41,328.75L353.55,327.64L354.69,332.43L355.83,329.48L356.97,330.59L358.11,330.59L359.25,334.27L360.39,331.32L362.67,336.13L363.81,336.48L364.95,331.69L366.09,334.27L367.23,326.17L368.37,334.27L369.51,329.11L370.65,334.27L371.8,330.59L372.94,331.32L374.08,332.06L375.22,330.59L377.5,332.43L378.64,329.85L379.78,333.19L380.92,329.11L382.06,335.01L383.2,327.64L384.34,334.64L385.48,328.75L386.62,333.53L387.76,326.91L388.9,331.32L390.04,324.33L391.18,335.37L392.32,328.75L393.46,331.69L394.6,329.85L395.75,325.07L396.89,332.45L398.03,327.27L399.17,326.17L400.31,329.85L401.45,330.22L402.59,327.27L403.73,336.85L404.87,325.07L406.01,333.16L407.15,328.75L408.29,330.22L409.43,332.8L410.57,330.22L411.71,326.91L412.85,329.11L413.99,327.67L415.13,327.64L416.27,325.8L417.41,329.11L418.55,325.8L419.7,330.22L420.84,325.43L421.98,333.9L423.12,325.8L424.26,332.8L425.4,328.38L426.54,333.16L427.68,331.69L428.82,336.11L429.96,330.98L431.1,332.06L433.38,332.06L434.52,332.43L436.8,334.27L437.94,333.53L439.08,332.43L440.22,335.74L441.36,331.32L442.5,334.64L443.65,336.11L444.79,333.9L445.93,339.44L447.07,332.06L448.21,338.69L449.35,330.96L450.49,335.01L451.63,331.69L452.77,334.27L453.91,331.69L456.19,335.37L457.33,332.06L458.47,336.48L459.61,333.16L461.89,337.6L463.03,333.53L464.17,336.48L465.31,335.01L466.45,337.21L467.6,334.64L468.74,337.21L469.88,337.58L471.02,336.48L472.16,337.58L473.3,336.11L474.44,336.11L475.58,337.58L476.72,337.21L477.86,335.76L479,339.05" style="vector-effect: none; fill: none; stroke: rgb(99, 110, 250); stroke-opacity: 1; stroke-width: 2px; opacity: 1;"/></g><g class="points"/><g class="text"/></g><g class="trace scatter traced0aca4" style="stroke-miterlimit: 2; opacity: 1;"><g class="fills"/><g class="errorbars"/><g class="lines"><path class="js-line" d="M0,322.12L1.14,318.81L2.28,320.65L3.42,321.38L4.56,327.27L5.7,333.53L6.84,329.85L7.98,331.32L9.12,321.78L10.26,329.48L11.4,325.8L12.55,333.16L13.69,329.48L15.97,334.27L17.11,327.27L18.25,329.11L19.39,328.75L20.53,327.27L21.67,332.06L22.81,326.17L23.95,335.01L25.09,326.2L26.23,333.16L27.37,328.75L28.51,332.06L29.65,332.06L30.79,334.27L31.93,331.32L33.07,333.53L34.21,331.69L35.35,333.16L36.5,333.53L37.64,332.8L38.78,338.32L39.92,332.43L41.06,336.86L42.2,332.43L43.34,337.95L44.48,333.16L46.76,337.95L47.9,330.96L49.04,340.53L50.18,332.43L52.46,336.48L53.6,335.74L55.88,334.27L57.02,337.23L58.16,335.01L59.3,336.85L60.45,334.64L61.59,337.21L63.87,337.21L65.01,337.58L66.15,335.74L67.29,337.95L68.43,336.85L69.57,337.21L70.71,338.32L71.85,335.74L72.99,338.33L74.13,338.32L75.27,335.01L76.41,338.32L77.55,335.74L78.69,338.32L79.83,336.11L80.97,335.74L82.11,339.05L83.25,336.48L84.4,336.85L85.54,338.32L86.68,337.21L87.82,338.32L88.96,336.13L90.1,337.21L91.24,336.11L92.38,336.85L94.66,335.01L95.8,337.21L96.94,333.53L98.08,337.21L99.22,329.85L100.36,338.32L101.5,334.64L102.64,334.64L103.78,336.85L104.92,331.69L106.06,337.97L107.2,331.69L108.35,338.69L109.49,330.22L110.63,338.32L111.77,334.27L112.91,333.53L114.05,336.85L115.19,333.16L116.33,336.48L117.47,333.53L118.61,339.05L119.75,333.16L120.89,333.9L122.03,335.37L123.17,334.29L124.31,336.85L125.45,335.74L126.59,339.42L127.73,334.27L128.87,336.11L130.01,334.64L131.15,335.01L132.3,337.58L133.44,332.8L134.58,338.69L135.72,334.27L136.86,336.11L138,334.64L139.14,337.21L140.28,339.07L141.42,336.11L142.56,337.21L143.7,335.74L144.84,335.01L145.98,338.32L147.12,335.01L148.26,339.42L149.4,336.85L150.54,337.58L151.68,339.42L152.82,336.48L153.96,337.21L155.1,335.74L156.25,337.23L157.39,337.21L158.53,336.48L159.67,338.32L160.81,335.37L161.95,337.21L164.23,335.01L165.37,337.95L166.51,336.48L167.65,336.85L168.79,336.11L169.93,333.9L171.07,337.21L172.21,334.27L173.35,337.97L174.49,335.37L176.77,336.11L177.91,335.37L179.05,336.48L180.2,335.37L183.62,338.32L184.76,335.01L185.9,335.01L187.04,339.05L189.32,336.11L190.46,336.5L191.6,336.48L192.74,337.95L193.88,337.58L195.02,336.11L196.16,337.58L197.3,337.58L198.44,336.48L199.58,337.58L200.72,337.21L201.86,334.64L203,336.48L204.15,334.27L205.29,335.01L206.43,336.86L207.57,335.74L208.71,337.58L209.85,335.01L210.99,335.74L212.13,334.64L213.27,337.21L214.41,337.95L215.55,337.21L216.69,336.48L217.83,334.27L218.97,336.11L220.11,335.37L221.25,336.48L222.39,339.42L223.53,333.19L224.67,338.69L225.81,334.27L226.95,335.74L228.1,337.95L229.24,336.11L231.52,334.27L232.66,337.21L233.8,332.06L234.94,337.58L236.08,340.16L237.22,334.64L238.36,335.74L239.5,333.92L240.64,337.21L241.78,335.01L242.92,335.01L244.06,339.79L245.2,334.27L246.34,339.42L247.48,336.48L248.62,336.11L249.76,342L250.9,333.9L252.05,337.95L253.19,335.01L254.33,335.74L255.47,339.42L256.61,334.29L257.75,338.69L260.03,335.01L261.17,340.9L262.31,335.01L263.45,336.85L264.59,333.16L265.73,337.21L266.87,337.58L268.01,334.27L269.15,341.26L270.29,334.64L271.43,336.85L272.57,336.13L273.71,334.64L274.85,340.53L276,334.27L277.14,336.11L278.28,336.48L279.42,335.37L280.56,341.63L281.7,335.01L282.84,336.85L283.98,334.27L285.12,335.74L286.26,333.9L287.4,336.85L288.54,336.5L289.68,333.16L290.82,340.16L291.96,334.27L293.1,335.01L294.24,337.95L295.38,335.74L296.52,340.53L297.66,335.01L298.8,337.95L299.95,337.58L301.09,336.48L302.23,340.9L304.51,333.53L305.65,336.13L306.79,332.43L307.93,340.9L309.07,333.53L310.21,338.69L311.35,335.37L312.49,335.01L313.63,338.69L314.77,333.9L315.91,338.32L317.05,336.11L318.19,334.27L319.33,335.74L320.47,314.02L321.61,18L322.75,201.37L323.9,238.92L325.04,270.21L326.18,279.78L329.6,300.4L330.74,292.3L333.02,306.29L334.16,309.24L335.3,315.86L336.44,311.44L337.58,323.59L338.72,315.9L339.86,322.86L341,318.07L345.56,323.59L346.7,329.48L347.85,327.64L348.99,330.22L351.27,323.22L352.41,335.01L353.55,328.75L354.69,332.08L355.83,327.64L356.97,335.01L358.11,330.59L359.25,333.53L360.39,330.59L361.53,333.16L363.81,332.43L364.95,334.27L366.09,333.9L367.23,335.01L369.51,335.01L370.65,333.55L371.8,335.37L372.94,332.06L374.08,334.27L375.22,333.53L376.36,335.74L377.5,334.64L378.64,334.64L379.78,335.74L380.92,334.27L382.06,336.11L383.2,333.53L384.34,336.85L385.48,333.9L386.62,334.64L387.76,335.76L388.9,335.01L390.04,336.48L391.18,333.16L392.32,335.74L393.46,335.37L394.6,333.16L395.75,336.48L396.89,334.64L398.03,336.11L399.17,333.16L400.31,338.69L401.45,334.64L402.59,336.48L403.73,334.66L404.87,334.64L406.01,335.01L407.15,333.16L408.29,335.37L409.43,334.27L410.57,338.32L411.71,335.37L412.85,337.21L413.99,336.85L415.13,334.27L416.27,335.01L418.55,335.37L419.7,333.19L420.84,337.21L421.98,333.16L423.12,336.11L424.26,336.85L425.4,332.43L426.54,335.37L427.68,333.9L428.82,336.48L429.96,333.53L431.1,336.11L432.24,334.64L433.38,336.48L434.52,337.95L435.66,335.74L436.8,336.86L437.94,335.01L439.08,337.58L440.22,336.11L441.36,336.85L442.5,336.11L443.65,335.37L444.79,338.69L445.93,336.85L447.07,337.58L448.21,336.85L449.35,334.64L450.49,338.32L451.63,334.64L453.91,338.32L455.05,336.48L456.19,337.21L457.33,335.74L458.47,338.69L459.61,338.32L460.75,336.85L461.89,337.58L464.17,334.27L465.31,336.48L466.45,335.01L467.6,337.97L468.74,334.64L469.88,321.38L471.02,31.65L472.16,210.94L475.58,256.59L476.72,259.54L479,284.2" style="vector-effect: none; fill: none; stroke: rgb(239, 85, 59); stroke-opacity: 1; stroke-width: 2px; opacity: 1;"/></g><g class="points"/><g class="text"/></g></g></g><g class="overplot"/><path class="xlines-above crisp" d="M0,0" style="fill: none;"/><path class="ylines-above crisp" d="M0,0" style="fill: none;"/><g class="overlines-above"/><g class="xaxislayer-above"><g class="xtick"><text text-anchor="middle" x="0" y="433" transform="translate(91.4,0)" style="font-family: 'Open Sans', verdana, arial, sans-serif; font-size: 12px; fill: rgb(42, 63, 95); fill-opacity: 1; white-space: pre; opacity: 1;">100</text></g><g class="xtick"><text text-anchor="middle" x="0" y="433" style="font-family: 'Open Sans', verdana, arial, sans-serif; font-size: 12px; fill: rgb(42, 63, 95); fill-opacity: 1; white-space: pre; opacity: 1;" transform="translate(205.45,0)">200</text></g><g class="xtick"><text text-anchor="middle" x="0" y="433" style="font-family: 'Open Sans', verdana, arial, sans-serif; font-size: 12px; fill: rgb(42, 63, 95); fill-opacity: 1; white-space: pre; opacity: 1;" transform="translate(319.5,0)">300</text></g><g class="xtick"><text text-anchor="middle" x="0" y="433" style="font-family: 'Open Sans', verdana, arial, sans-serif; font-size: 12px; fill: rgb(42, 63, 95); fill-opacity: 1; white-space: pre; opacity: 1;" transform="translate(433.55,0)">400</text></g><g class="xtick"><text text-anchor="middle" x="0" y="433" style="font-family: 'Open Sans', verdana, arial, sans-serif; font-size: 12px; fill: rgb(42, 63, 95); fill-opacity: 1; white-space: pre; opacity: 1;" transform="translate(547.6,0)">500</text></g></g><g class="yaxislayer-above"><g class="ytick"><text text-anchor="end" x="79" y="4.199999999999999" transform="translate(0,414.52)" style="font-family: 'Open Sans', verdana, arial, sans-serif; font-size: 12px; fill: rgb(42, 63, 95); fill-opacity: 1; white-space: pre; opacity: 1;">0</text></g><g class="ytick"><text text-anchor="end" x="79" y="4.199999999999999" style="font-family: 'Open Sans', verdana, arial, sans-serif; font-size: 12px; fill: rgb(42, 63, 95); fill-opacity: 1; white-space: pre; opacity: 1;" transform="translate(0,377.7)">100</text></g><g class="ytick"><text text-anchor="end" x="79" y="4.199999999999999" style="font-family: 'Open Sans', verdana, arial, sans-serif; font-size: 12px; fill: rgb(42, 63, 95); fill-opacity: 1; white-space: pre; opacity: 1;" transform="translate(0,340.89)">200</text></g><g class="ytick"><text text-anchor="end" x="79" y="4.199999999999999" style="font-family: 'Open Sans', verdana, arial, sans-serif; font-size: 12px; fill: rgb(42, 63, 95); fill-opacity: 1; white-space: pre; opacity: 1;" transform="translate(0,304.07)">300</text></g><g class="ytick"><text text-anchor="end" x="79" y="4.199999999999999" style="font-family: 'Open Sans', verdana, arial, sans-serif; font-size: 12px; fill: rgb(42, 63, 95); fill-opacity: 1; white-space: pre; opacity: 1;" transform="translate(0,267.26)">400</text></g><g class="ytick"><text text-anchor="end" x="79" y="4.199999999999999" style="font-family: 'Open Sans', verdana, arial, sans-serif; font-size: 12px; fill: rgb(42, 63, 95); fill-opacity: 1; white-space: pre; opacity: 1;" transform="translate(0,230.44)">500</text></g><g class="ytick"><text text-anchor="end" x="79" y="4.199999999999999" style="font-family: 'Open Sans', verdana, arial, sans-serif; font-size: 12px; fill: rgb(42, 63, 95); fill-opacity: 1; white-space: pre; opacity: 1;" transform="translate(0,193.63)">600</text></g><g class="ytick"><text text-anchor="end" x="79" y="4.199999999999999" style="font-family: 'Open Sans', verdana, arial, sans-serif; font-size: 12px; fill: rgb(42, 63, 95); fill-opacity: 1; white-space: pre; opacity: 1;" transform="translate(0,156.81)">700</text></g><g class="ytick"><text text-anchor="end" x="79" y="4.199999999999999" style="font-family: 'Open Sans', verdana, arial, sans-serif; font-size: 12px; fill: rgb(42, 63, 95); fill-opacity: 1; white-space: pre; opacity: 1;" transform="translate(0,120)">800</text></g><g class="ytick"><text text-anchor="end" x="79" y="4.199999999999999" style="font-family: 'Open Sans', verdana, arial, sans-serif; font-size: 12px; fill: rgb(42, 63, 95); fill-opacity: 1; white-space: pre; opacity: 1;" transform="translate(0,83.19)">900</text></g></g><g class="overaxes-above"/></g></g><g class="polarlayer"/><g class="smithlayer"/><g class="ternarylayer"/><g class="geolayer"/><g class="funnelarealayer"/><g class="pielayer"/><g class="iciclelayer"/><g class="treemaplayer"/><g class="sunburstlayer"/><g class="glimages"/><defs id="topdefs-f9899a"><g class="clips"/><clipPath id="legendf9899a"><rect width="119" height="67" x="0" y="0"/></clipPath></defs><g class="layer-above"><g class="imagelayer"/><g class="shapelayer"/></g><g class="infolayer"><g class="legend" pointer-events="all" transform="translate(568.5799999999999,60)"><rect class="bg" shape-rendering="crispEdges" style="stroke: rgb(68, 68, 68); stroke-opacity: 1; fill: rgb(255, 255, 255); fill-opacity: 1; stroke-width: 0px;" width="119" height="67" x="0" y="0"/><g class="scrollbox" transform="" clip-path="url(#legendf9899a)"><text class="legendtitletext" text-anchor="start" x="2" y="18.2" style="font-family: 'Open Sans', verdana, arial, sans-serif; font-size: 14px; fill: rgb(42, 63, 95); fill-opacity: 1; white-space: pre;">Latency</text><g class="groups" transform=""><g class="traces" transform="translate(0,32.7)" style="opacity: 1;"><text class="legendtext" text-anchor="start" x="40" y="4.680000000000001" style="font-family: 'Open Sans', verdana, arial, sans-serif; font-size: 12px; fill: rgb(42, 63, 95); fill-opacity: 1; white-space: pre;">cluster-run1</text><g class="layers" style="opacity: 1;"><g class="legendfill"/><g class="legendlines"><path class="js-line" d="M5,0h30" style="fill: none; stroke: rgb(99, 110, 250); stroke-opacity: 1; stroke-width: 2px;"/></g><g class="legendsymbols"><g class="legendpoints"/></g></g><rect class="legendtoggle" x="0" y="-9.5" width="113.78125" height="19" style="fill: rgb(0, 0, 0); fill-opacity: 0;"/></g></g><g class="groups" transform=""><g class="traces" transform="translate(0,51.7)" style="opacity: 1;"><text class="legendtext" text-anchor="start" x="40" y="4.680000000000001" style="font-family: 'Open Sans', verdana, arial, sans-serif; font-size: 12px; fill: rgb(42, 63, 95); fill-opacity: 1; white-space: pre;">cluster-run2</text><g class="layers" style="opacity: 1;"><g class="legendfill"/><g class="legendlines"><path class="js-line" d="M5,0h30" style="fill: none; stroke: rgb(239, 85, 59); stroke-opacity: 1; stroke-width: 2px;"/></g><g class="legendsymbols"><g class="legendpoints"/></g></g><rect class="legendtoggle" x="0" y="-9.5" width="113.78125" height="19" style="fill: rgb(0, 0, 0); fill-opacity: 0;"/></g></g></g><rect class="scrollbar" rx="20" ry="3" width="0" height="0" style="fill: rgb(128, 139, 164); fill-opacity: 1;" x="0" y="0"/></g><g class="g-gtitle"/><g class="g-xtitle"><text class="xtitle" x="319.5" y="459.8" text-anchor="middle" style="font-family: 'Open Sans', verdana, arial, sans-serif; font-size: 14px; fill: rgb(42, 63, 95); opacity: 1; font-weight: normal; white-space: pre;">seconds</text></g><g class="g-ytitle"><text class="ytitle" transform="rotate(-90,31.809375000000003,240)" x="31.809375000000003" y="240" text-anchor="middle" style="font-family: 'Open Sans', verdana, arial, sans-serif; font-size: 14px; fill: rgb(42, 63, 95); opacity: 1; font-weight: normal; white-space: pre;">operations</text></g></g></svg>