<svg xmlns="http://www.w3.org/2000/svg" version="1.1" width="365" height="313">
<path d="M 2.878906 130.319336 L 2.878906 123.412109 L 6.729980 123.412109 L 6.729980 124.335938 L 3.738281 124.335938 L 3.738281 130.319336 Z " fill="rgb(0, 0, 0)" fill-opacity="1.000000" />
<path d="M 2.878906 143.319336 L 2.878906 129.300781 L 3.738281 129.300781 L 3.738281 143.319336 Z " fill="rgb(0, 0, 0)" fill-opacity="1.000000" />
<path d="M 2.878906 156.319336 L 2.878906 142.300781 L 3.738281 142.300781 L 3.738281 156.319336 Z " fill="rgb(0, 0, 0)" fill-opacity="1.000000" />
<path d="M 2.878906 169.319336 L 2.878906 155.300781 L 3.738281 155.300781 L 3.738281 169.319336 Z " fill="rgb(0, 0, 0)" fill-opacity="1.000000" />
<path d="M 2.878906 182.319336 L 2.878906 168.300781 L 3.738281 168.300781 L 3.738281 182.319336 Z " fill="rgb(0, 0, 0)" fill-opacity="1.000000" />
<path d="M 2.878906 195.319336 L 2.878906 181.300781 L 3.738281 181.300781 L 3.738281 195.319336 Z " fill="rgb(0, 0, 0)" fill-opacity="1.000000" />
<path d="M 2.878906 208.319336 L 2.878906 194.300781 L 3.738281 194.300781 L 3.738281 208.319336 Z " fill="rgb(0, 0, 0)" fill-opacity="1.000000" />
<path d="M 2.878906 221.319336 L 2.878906 207.300781 L 3.738281 207.300781 L 3.738281 221.319336 Z " fill="rgb(0, 0, 0)" fill-opacity="1.000000" />
<path d="M 2.878906 234.319336 L 2.878906 220.300781 L 3.738281 220.300781 L 3.738281 234.319336 Z " fill="rgb(0, 0, 0)" fill-opacity="1.000000" />
<path d="M 2.878906 247.319336 L 2.878906 233.300781 L 3.738281 233.300781 L 3.738281 247.319336 Z " fill="rgb(0, 0, 0)" fill-opacity="1.000000" />
<path d="M 2.878906 260.319336 L 2.878906 246.300781 L 3.738281 246.300781 L 3.738281 260.319336 Z " fill="rgb(0, 0, 0)" fill-opacity="1.000000" />
<path d="M 2.878906 273.319336 L 2.878906 259.300781 L 3.738281 259.300781 L 3.738281 273.319336 Z " fill="rgb(0, 0, 0)" fill-opacity="1.000000" />
<path d="M 2.878906 286.319336 L 2.878906 272.300781 L 3.738281 272.300781 L 3.738281 286.319336 Z " fill="rgb(0, 0, 0)" fill-opacity="1.000000" />
<path d="M 2.878906 299.319336 L 2.878906 285.300781 L 3.738281 285.300781 L 3.738281 299.319336 Z " fill="rgb(0, 0, 0)" fill-opacity="1.000000" />
<path d="M 2.878906 306.335938 L 2.878906 298.300781 L 3.738281 298.300781 L 3.738281 305.412109 L 6.729980 305.412109 L 6.729980 306.335938 Z " fill="rgb(0, 0, 0)" fill-opacity="1.000000" />
<path d="M 6.892578 306.335938 L 6.892578 305.412109 L 13.729980 305.412109 L 13.729980 306.335938 Z " fill="rgb(0, 0, 0)" fill-opacity="1.000000" />
<path d="M 13.892578 306.335938 L 13.892578 305.412109 L 20.729980 305.412109 L 20.729980 306.335938 Z " fill="rgb(0, 0, 0)" fill-opacity="1.000000" />
<path d="M 20.892578 306.335938 L 20.892578 305.412109 L 27.729980 305.412109 L 27.729980 306.335938 Z " fill="rgb(0, 0, 0)" fill-opacity="1.000000" />
<path d="M 27.892578 306.335938 L 27.892578 305.412109 L 34.729980 305.412109 L 34.729980 306.335938 Z " fill="rgb(0, 0, 0)" fill-opacity="1.000000" />
<path d="M 34.892578 306.335938 L 34.892578 305.412109 L 41.729980 305.412109 L 41.729980 306.335938 Z " fill="rgb(0, 0, 0)" fill-opacity="1.000000" />
<path d="M 41.892578 306.335938 L 41.892578 305.412109 L 48.729980 305.412109 L 48.729980 306.335938 Z " fill="rgb(0, 0, 0)" fill-opacity="1.000000" />
<path d="M 48.892578 306.335938 L 48.892578 305.412109 L 55.729980 305.412109 L 55.729980 306.335938 Z " fill="rgb(0, 0, 0)" fill-opacity="1.000000" />
<path d="M 55.892578 306.335938 L 55.892578 305.412109 L 62.729980 305.412109 L 62.729980 306.335938 Z " fill="rgb(0, 0, 0)" fill-opacity="1.000000" />
<path d="M 62.892578 306.335938 L 62.892578 305.412109 L 69.729980 305.412109 L 69.729980 306.335938 Z " fill="rgb(0, 0, 0)" fill-opacity="1.000000" />
<path d="M 69.892578 306.335938 L 69.892578 305.412109 L 76.729980 305.412109 L 76.729980 306.335938 Z " fill="rgb(0, 0, 0)" fill-opacity="1.000000" />
<path d="M 76.892578 306.335938 L 76.892578 305.412109 L 83.729980 305.412109 L 83.729980 306.335938 Z " fill="rgb(0, 0, 0)" fill-opacity="1.000000" />
<path d="M 83.892578 306.335938 L 83.892578 305.412109 L 90.729980 305.412109 L 90.729980 306.335938 Z " fill="rgb(0, 0, 0)" fill-opacity="1.000000" />
<path d="M 90.892578 306.335938 L 90.892578 305.412109 L 97.729980 305.412109 L 97.729980 306.335938 Z " fill="rgb(0, 0, 0)" fill-opacity="1.000000" />
<path d="M 97.892578 306.335938 L 97.892578 305.412109 L 104.729980 305.412109 L 104.729980 306.335938 Z " fill="rgb(0, 0, 0)" fill-opacity="1.000000" />
<path d="M 104.892578 306.335938 L 104.892578 305.412109 L 111.729980 305.412109 L 111.729980 306.335938 Z " fill="rgb(0, 0, 0)" fill-opacity="1.000000" />
<path d="M 111.892578 306.335938 L 111.892578 305.412109 L 118.729980 305.412109 L 118.729980 306.335938 Z " fill="rgb(0, 0, 0)" fill-opacity="1.000000" />
<path d="M 118.892578 306.335938 L 118.892578 305.412109 L 125.729980 305.412109 L 125.729980 306.335938 Z " fill="rgb(0, 0, 0)" fill-opacity="1.000000" />
<path d="M 125.892578 306.335938 L 125.892578 305.412109 L 132.729980 305.412109 L 132.729980 306.335938 Z " fill="rgb(0, 0, 0)" fill-opacity="1.000000" />
<path d="M 132.892578 306.335938 L 132.892578 305.412109 L 139.729980 305.412109 L 139.729980 306.335938 Z " fill="rgb(0, 0, 0)" fill-opacity="1.000000" />
<path d="M 139.892578 306.335938 L 139.892578 305.412109 L 146.729980 305.412109 L 146.729980 306.335938 Z " fill="rgb(0, 0, 0)" fill-opacity="1.000000" />
<path d="M 146.892578 306.335938 L 146.892578 305.412109 L 153.729980 305.412109 L 153.729980 306.335938 Z " fill="rgb(0, 0, 0)" fill-opacity="1.000000" />
<path d="M 153.892578 306.335938 L 153.892578 305.412109 L 160.729980 305.412109 L 160.729980 306.335938 Z " fill="rgb(0, 0, 0)" fill-opacity="1.000000" />
<path d="M 160.892578 306.335938 L 160.892578 305.412109 L 167.729980 305.412109 L 167.729980 306.335938 Z " fill="rgb(0, 0, 0)" fill-opacity="1.000000" />
<path d="M 167.892578 306.335938 L 167.892578 305.412109 L 174.729980 305.412109 L 174.729980 306.335938 Z " fill="rgb(0, 0, 0)" fill-opacity="1.000000" />
<path d="M 174.892578 306.335938 L 174.892578 305.412109 L 181.729980 305.412109 L 181.729980 306.335938 Z " fill="rgb(0, 0, 0)" fill-opacity="1.000000" />
<path d="M 181.892578 306.335938 L 181.892578 305.412109 L 188.729980 305.412109 L 188.729980 306.335938 Z " fill="rgb(0, 0, 0)" fill-opacity="1.000000" />
<path d="M 188.892578 306.335938 L 188.892578 305.412109 L 195.729980 305.412109 L 195.729980 306.335938 Z " fill="rgb(0, 0, 0)" fill-opacity="1.000000" />
<path d="M 195.892578 306.335938 L 195.892578 305.412109 L 202.729980 305.412109 L 202.729980 306.335938 Z " fill="rgb(0, 0, 0)" fill-opacity="1.000000" />
<path d="M 202.892578 306.335938 L 202.892578 305.412109 L 209.729980 305.412109 L 209.729980 306.335938 Z " fill="rgb(0, 0, 0)" fill-opacity="1.000000" />
<path d="M 209.892578 306.335938 L 209.892578 305.412109 L 216.729980 305.412109 L 216.729980 306.335938 Z " fill="rgb(0, 0, 0)" fill-opacity="1.000000" />
<path d="M 216.892578 306.335938 L 216.892578 305.412109 L 223.729980 305.412109 L 223.729980 306.335938 Z " fill="rgb(0, 0, 0)" fill-opacity="1.000000" />
<path d="M 223.892578 306.335938 L 223.892578 305.412109 L 230.729980 305.412109 L 230.729980 306.335938 Z " fill="rgb(0, 0, 0)" fill-opacity="1.000000" />
<path d="M 230.892578 306.335938 L 230.892578 305.412109 L 237.729980 305.412109 L 237.729980 306.335938 Z " fill="rgb(0, 0, 0)" fill-opacity="1.000000" />
<path d="M 237.892578 306.335938 L 237.892578 305.412109 L 244.729980 305.412109 L 244.729980 306.335938 Z " fill="rgb(0, 0, 0)" fill-opacity="1.000000" />
<path d="M 244.892578 306.335938 L 244.892578 305.412109 L 251.729980 305.412109 L 251.729980 306.335938 Z " fill="rgb(0, 0, 0)" fill-opacity="1.000000" />
<path d="M 251.892578 306.335938 L 251.892578 305.412109 L 258.729980 305.412109 L 258.729980 306.335938 Z " fill="rgb(0, 0, 0)" fill-opacity="1.000000" />
<path d="M 258.892578 306.335938 L 258.892578 305.412109 L 265.729980 305.412109 L 265.729980 306.335938 Z " fill="rgb(0, 0, 0)" fill-opacity="1.000000" />
<path d="M 265.892578 306.335938 L 265.892578 305.412109 L 272.729980 305.412109 L 272.729980 306.335938 Z " fill="rgb(0, 0, 0)" fill-opacity="1.000000" />
<path d="M 272.892578 306.335938 L 272.892578 305.412109 L 279.729980 305.412109 L 279.729980 306.335938 Z " fill="rgb(0, 0, 0)" fill-opacity="1.000000" />
<path d="M 279.892578 306.335938 L 279.892578 305.412109 L 286.729980 305.412109 L 286.729980 306.335938 Z " fill="rgb(0, 0, 0)" fill-opacity="1.000000" />
<path d="M 286.892578 306.335938 L 286.892578 305.412109 L 293.729980 305.412109 L 293.729980 306.335938 Z " fill="rgb(0, 0, 0)" fill-opacity="1.000000" />
<path d="M 293.892578 306.335938 L 293.892578 305.412109 L 300.729980 305.412109 L 300.729980 306.335938 Z " fill="rgb(0, 0, 0)" fill-opacity="1.000000" />
<path d="M 300.892578 306.335938 L 300.892578 305.412109 L 307.729980 305.412109 L 307.729980 306.335938 Z " fill="rgb(0, 0, 0)" fill-opacity="1.000000" />
<path d="M 307.892578 306.335938 L 307.892578 305.412109 L 314.729980 305.412109 L 314.729980 306.335938 Z " fill="rgb(0, 0, 0)" fill-opacity="1.000000" />
<path d="M 314.892578 306.335938 L 314.892578 305.412109 L 321.729980 305.412109 L 321.729980 306.335938 Z " fill="rgb(0, 0, 0)" fill-opacity="1.000000" />
<path d="M 321.892578 306.335938 L 321.892578 305.412109 L 328.729980 305.412109 L 328.729980 306.335938 Z " fill="rgb(0, 0, 0)" fill-opacity="1.000000" />
<path d="M 328.892578 306.335938 L 328.892578 305.412109 L 335.729980 305.412109 L 335.729980 306.335938 Z " fill="rgb(0, 0, 0)" fill-opacity="1.000000" />
<path d="M 335.892578 306.335938 L 335.892578 305.412109 L 342.729980 305.412109 L 342.729980 306.335938 Z " fill="rgb(0, 0, 0)" fill-opacity="1.000000" />
<path d="M 342.892578 306.335938 L 342.892578 305.412109 L 349.729980 305.412109 L 349.729980 306.335938 Z " fill="rgb(0, 0, 0)" fill-opacity="1.000000" />
<path d="M 349.892578 306.335938 L 349.892578 305.412109 L 356.729980 305.412109 L 356.729980 306.335938 Z " fill="rgb(0, 0, 0)" fill-opacity="1.000000" />
<path d="M 356.892578 306.335938 L 356.892578 305.412109 L 359.878906 305.412109 L 359.878906 298.300781 L 360.738281 298.300781 L 360.738281 306.335938 Z " fill="rgb(0, 0, 0)" fill-opacity="1.000000" />
<path d="M 23.878906 143.319336 L 23.878906 136.412109 L 27.729980 136.412109 L 27.729980 137.335938 L 24.738281 137.335938 L 24.738281 143.319336 Z " fill="rgb(0, 0, 0)" fill-opacity="1.000000" />
<path d="M 23.878906 156.319336 L 23.878906 142.300781 L 24.738281 142.300781 L 24.738281 156.319336 Z " fill="rgb(0, 0, 0)" fill-opacity="1.000000" />
<path d="M 23.878906 163.335938 L 23.878906 155.300781 L 24.738281 155.300781 L 24.738281 162.412109 L 27.729980 162.412109 L 27.729980 163.335938 Z " fill="rgb(0, 0, 0)" fill-opacity="1.000000" />
<path d="M 84.032227 179.418945 L 87.308594 172.866211 L 90.590332 179.418945 Z " fill="rgb(0, 0, 0)" fill-opacity="1.000000" />
<path d="M 86.878906 195.319336 L 86.878906 181.300781 L 87.738281 181.300781 L 87.738281 195.319336 Z " fill="rgb(0, 0, 0)" fill-opacity="1.000000" />
<path d="M 86.878906 208.319336 L 86.878906 194.300781 L 87.738281 194.300781 L 87.738281 208.319336 Z " fill="rgb(0, 0, 0)" fill-opacity="1.000000" />
<path d="M 86.878906 215.335938 L 86.878906 207.300781 L 87.738281 207.300781 L 87.738281 214.412109 L 90.729980 214.412109 L 90.729980 215.335938 Z " fill="rgb(0, 0, 0)" fill-opacity="1.000000" />
<path d="M 121.878906 273.319336 L 121.878906 266.412109 L 125.729980 266.412109 L 125.729980 267.335938 L 122.738281 267.335938 L 122.738281 273.319336 Z " fill="rgb(0, 0, 0)" fill-opacity="1.000000" />
<path d="M 121.878906 286.319336 L 121.878906 272.300781 L 122.738281 272.300781 L 122.738281 286.319336 Z " fill="rgb(0, 0, 0)" fill-opacity="1.000000" />
<path d="M 121.878906 293.335938 L 121.878906 285.300781 L 122.738281 285.300781 L 122.738281 292.412109 L 125.729980 292.412109 L 125.729980 293.335938 Z " fill="rgb(0, 0, 0)" fill-opacity="1.000000" />
<path d="M 125.892578 293.335938 L 125.892578 292.412109 L 132.729980 292.412109 L 132.729980 293.335938 Z " fill="rgb(0, 0, 0)" fill-opacity="1.000000" />
<path d="M 132.892578 293.335938 L 132.892578 292.412109 L 139.729980 292.412109 L 139.729980 293.335938 Z " fill="rgb(0, 0, 0)" fill-opacity="1.000000" />
<path d="M 139.892578 293.335938 L 139.892578 292.412109 L 146.729980 292.412109 L 146.729980 293.335938 Z " fill="rgb(0, 0, 0)" fill-opacity="1.000000" />
<path d="M 146.892578 293.335938 L 146.892578 292.412109 L 153.729980 292.412109 L 153.729980 293.335938 Z " fill="rgb(0, 0, 0)" fill-opacity="1.000000" />
<path d="M 153.892578 293.335938 L 153.892578 292.412109 L 160.729980 292.412109 L 160.729980 293.335938 Z " fill="rgb(0, 0, 0)" fill-opacity="1.000000" />
<path d="M 160.892578 293.335938 L 160.892578 292.412109 L 167.729980 292.412109 L 167.729980 293.335938 Z " fill="rgb(0, 0, 0)" fill-opacity="1.000000" />
<path d="M 167.892578 293.335938 L 167.892578 292.412109 L 174.729980 292.412109 L 174.729980 293.335938 Z " fill="rgb(0, 0, 0)" fill-opacity="1.000000" />
<path d="M 174.892578 293.335938 L 174.892578 292.412109 L 181.729980 292.412109 L 181.729980 293.335938 Z " fill="rgb(0, 0, 0)" fill-opacity="1.000000" />
<path d="M 181.892578 293.335938 L 181.892578 292.412109 L 188.729980 292.412109 L 188.729980 293.335938 Z " fill="rgb(0, 0, 0)" fill-opacity="1.000000" />
<path d="M 188.892578 293.335938 L 188.892578 292.412109 L 195.729980 292.412109 L 195.729980 293.335938 Z " fill="rgb(0, 0, 0)" fill-opacity="1.000000" />
<path d="M 195.892578 293.335938 L 195.892578 292.412109 L 202.729980 292.412109 L 202.729980 293.335938 Z " fill="rgb(0, 0, 0)" fill-opacity="1.000000" />
<path d="M 202.892578 293.335938 L 202.892578 292.412109 L 209.729980 292.412109 L 209.729980 293.335938 Z " fill="rgb(0, 0, 0)" fill-opacity="1.000000" />
<path d="M 209.892578 293.335938 L 209.892578 292.412109 L 216.729980 292.412109 L 216.729980 293.335938 Z " fill="rgb(0, 0, 0)" fill-opacity="1.000000" />
<path d="M 216.892578 293.335938 L 216.892578 292.412109 L 223.729980 292.412109 L 223.729980 293.335938 Z " fill="rgb(0, 0, 0)" fill-opacity="1.000000" />
<path d="M 223.892578 293.335938 L 223.892578 292.412109 L 230.729980 292.412109 L 230.729980 293.335938 Z " fill="rgb(0, 0, 0)" fill-opacity="1.000000" />
<path d="M 230.892578 293.335938 L 230.892578 292.412109 L 237.729980 292.412109 L 237.729980 293.335938 Z " fill="rgb(0, 0, 0)" fill-opacity="1.000000" />
<path d="M 237.892578 293.335938 L 237.892578 292.412109 L 244.729980 292.412109 L 244.729980 293.335938 Z " fill="rgb(0, 0, 0)" fill-opacity="1.000000" />
<path d="M 244.892578 293.335938 L 244.892578 292.412109 L 247.878906 292.412109 L 247.878906 285.300781 L 248.738281 285.300781 L 248.738281 293.335938 Z " fill="rgb(0, 0, 0)" fill-opacity="1.000000" />
<path d="M 359.878906 299.319336 L 359.878906 285.300781 L 360.738281 285.300781 L 360.738281 299.319336 Z " fill="rgb(0, 0, 0)" fill-opacity="1.000000" />
<path d="M 154.735840 274.980957 L 155.826172 274.980957 L 155.826172 278.053223 L 158.796387 278.053223 L 158.796387 274.980957 L 159.886719 274.980957 L 159.886719 283.000000 L 158.796387 283.000000 L 158.796387 278.966309 L 155.826172 278.966309 L 155.826172 283.000000 L 154.735840 283.000000 Z " fill="rgb(0, 0, 0)" fill-opacity="1.000000" />
<path d="M 164.770508 279.976074 L 164.442871 279.976074 Q 163.578125 279.976074 163.140381 280.279541 Q 162.702637 280.583008 162.702637 281.184570 Q 162.702637 281.727051 163.030273 282.027832 Q 163.357910 282.328613 163.937988 282.328613 Q 164.754395 282.328613 165.221680 281.761963 Q 165.688965 281.195312 165.694336 280.196289 L 165.694336 279.976074 Z M 166.687988 279.567871 L 166.687988 283.000000 L 165.694336 283.000000 L 165.694336 282.108398 Q 165.377441 282.645508 164.896729 282.900635 Q 164.416016 283.155762 163.728516 283.155762 Q 162.810059 283.155762 162.262207 282.637451 Q 161.714355 282.119141 161.714355 281.249023 Q 161.714355 280.244629 162.388428 279.723633 Q 163.062500 279.202637 164.367676 279.202637 L 165.694336 279.202637 L 165.694336 279.046875 Q 165.688965 278.327148 165.329102 278.002197 Q 164.969238 277.677246 164.179688 277.677246 Q 163.674805 277.677246 163.159180 277.822266 Q 162.643555 277.967285 162.154785 278.246582 L 162.154785 277.258301 Q 162.702637 277.048828 163.204834 276.944092 Q 163.707031 276.839355 164.179688 276.839355 Q 164.926270 276.839355 165.455322 277.059570 Q 165.984375 277.279785 166.312012 277.720215 Q 166.516113 277.988770 166.602051 278.383545 Q 166.687988 278.778320 166.687988 279.567871 Z " fill="rgb(0, 0, 0)" fill-opacity="1.000000" />
<path d="M 169.219238 276.973633 L 173.585938 276.973633 L 173.585938 277.875977 L 170.132324 282.194336 L 173.585938 282.194336 L 173.585938 283.000000 L 169.090332 283.000000 L 169.090332 282.086914 L 172.543945 277.763184 L 169.219238 277.763184 Z " fill="rgb(0, 0, 0)" fill-opacity="1.000000" />
<path d="M 181.015625 279.498047 L 181.015625 279.981445 L 176.734863 279.981445 L 176.734863 280.013672 Q 176.691895 281.243652 177.204834 281.780762 Q 177.717773 282.317871 178.652344 282.317871 Q 179.125000 282.317871 179.640625 282.167480 Q 180.156250 282.017090 180.741699 281.710938 L 180.741699 282.693848 Q 180.177734 282.924805 179.654053 283.040283 Q 179.130371 283.155762 178.641602 283.155762 Q 177.239746 283.155762 176.450195 282.315186 Q 175.660645 281.474609 175.660645 279.997559 Q 175.660645 278.558105 176.434082 277.698730 Q 177.207520 276.839355 178.496582 276.839355 Q 179.645996 276.839355 180.309326 277.618164 Q 180.972656 278.396973 181.015625 279.498047 Z M 180.027344 279.208008 Q 179.962891 278.584961 179.573486 278.131104 Q 179.184082 277.677246 178.453613 277.677246 Q 177.739258 277.677246 177.277344 278.149902 Q 176.815430 278.622559 176.772461 279.213379 Z " fill="rgb(0, 0, 0)" fill-opacity="1.000000" />
<path d="M 185.861816 280.824707 Q 185.861816 281.490723 186.106201 281.829102 Q 186.350586 282.167480 186.828613 282.167480 L 187.983398 282.167480 L 187.983398 283.000000 L 186.731934 283.000000 Q 185.845703 283.000000 185.359619 282.433350 Q 184.873535 281.866699 184.873535 280.824707 L 184.873535 275.383789 L 183.289062 275.383789 L 183.289062 274.610352 L 185.861816 274.610352 Z " fill="rgb(0, 0, 0)" fill-opacity="1.000000" />
<path d="M 194.698730 282.693848 Q 194.301270 282.924805 193.879639 283.040283 Q 193.458008 283.155762 193.017578 283.155762 Q 191.621094 283.155762 190.834229 282.317871 Q 190.047363 281.479980 190.047363 279.997559 Q 190.047363 278.515137 190.834229 277.677246 Q 191.621094 276.839355 193.017578 276.839355 Q 193.452637 276.839355 193.866211 276.952148 Q 194.279785 277.064941 194.698730 277.301270 L 194.698730 278.337891 Q 194.306641 277.988770 193.911865 277.833008 Q 193.517090 277.677246 193.017578 277.677246 Q 192.088379 277.677246 191.588867 278.278809 Q 191.089355 278.880371 191.089355 279.997559 Q 191.089355 281.109375 191.591553 281.713623 Q 192.093750 282.317871 193.017578 282.317871 Q 193.533203 282.317871 193.941406 282.159424 Q 194.349609 282.000977 194.698730 281.667969 Z " fill="rgb(0, 0, 0)" fill-opacity="1.000000" />
<path d="M 199.770508 279.976074 L 199.442871 279.976074 Q 198.578125 279.976074 198.140381 280.279541 Q 197.702637 280.583008 197.702637 281.184570 Q 197.702637 281.727051 198.030273 282.027832 Q 198.357910 282.328613 198.937988 282.328613 Q 199.754395 282.328613 200.221680 281.761963 Q 200.688965 281.195312 200.694336 280.196289 L 200.694336 279.976074 Z M 201.687988 279.567871 L 201.687988 283.000000 L 200.694336 283.000000 L 200.694336 282.108398 Q 200.377441 282.645508 199.896729 282.900635 Q 199.416016 283.155762 198.728516 283.155762 Q 197.810059 283.155762 197.262207 282.637451 Q 196.714355 282.119141 196.714355 281.249023 Q 196.714355 280.244629 197.388428 279.723633 Q 198.062500 279.202637 199.367676 279.202637 L 200.694336 279.202637 L 200.694336 279.046875 Q 200.688965 278.327148 200.329102 278.002197 Q 199.969238 277.677246 199.179688 277.677246 Q 198.674805 277.677246 198.159180 277.822266 Q 197.643555 277.967285 197.154785 278.246582 L 197.154785 277.258301 Q 197.702637 277.048828 198.204834 276.944092 Q 198.707031 276.839355 199.179688 276.839355 Q 199.926270 276.839355 200.455322 277.059570 Q 200.984375 277.279785 201.312012 277.720215 Q 201.516113 277.988770 201.602051 278.383545 Q 201.687988 278.778320 201.687988 279.567871 Z " fill="rgb(0, 0, 0)" fill-opacity="1.000000" />
<path d="M 208.226074 277.193848 L 208.226074 278.160645 Q 207.801758 277.913574 207.372070 277.790039 Q 206.942383 277.666504 206.496582 277.666504 Q 205.825195 277.666504 205.494873 277.884033 Q 205.164551 278.101562 205.164551 278.547363 Q 205.164551 278.950195 205.411621 279.148926 Q 205.658691 279.347656 206.641602 279.535645 L 207.039062 279.610840 Q 207.774902 279.750488 208.153564 280.169434 Q 208.532227 280.588379 208.532227 281.259766 Q 208.532227 282.151367 207.898438 282.653564 Q 207.264648 283.155762 206.136719 283.155762 Q 205.690918 283.155762 205.202148 283.061768 Q 204.713379 282.967773 204.144043 282.779785 L 204.144043 281.759277 Q 204.697266 282.043945 205.202148 282.186279 Q 205.707031 282.328613 206.158203 282.328613 Q 206.813477 282.328613 207.173340 282.062744 Q 207.533203 281.796875 207.533203 281.318848 Q 207.533203 280.631348 206.217285 280.368164 L 206.174316 280.357422 L 205.803711 280.282227 Q 204.949707 280.115723 204.557617 279.720947 Q 204.165527 279.326172 204.165527 278.644043 Q 204.165527 277.779297 204.750977 277.309326 Q 205.336426 276.839355 206.421387 276.839355 Q 206.904785 276.839355 207.350586 276.927979 Q 207.796387 277.016602 208.226074 277.193848 Z " fill="rgb(0, 0, 0)" fill-opacity="1.000000" />
<path d="M 213.297852 275.276367 L 213.297852 276.984375 L 215.542969 276.984375 L 215.542969 277.752441 L 213.297852 277.752441 L 213.297852 281.018066 Q 213.297852 281.684082 213.550293 281.947266 Q 213.802734 282.210449 214.431152 282.210449 L 215.542969 282.210449 L 215.542969 283.000000 L 214.334473 283.000000 Q 213.222656 283.000000 212.766113 282.554199 Q 212.309570 282.108398 212.309570 281.018066 L 212.309570 277.752441 L 210.703613 277.752441 L 210.703613 276.984375 L 212.309570 276.984375 L 212.309570 275.276367 Z " fill="rgb(0, 0, 0)" fill-opacity="1.000000" />
<path d="M 247.878906 286.319336 L 247.878906 272.300781 L 248.738281 272.300781 L 248.738281 286.319336 Z " fill="rgb(0, 0, 0)" fill-opacity="1.000000" />
<path d="M 359.878906 286.319336 L 359.878906 272.300781 L 360.738281 272.300781 L 360.738281 286.319336 Z " fill="rgb(0, 0, 0)" fill-opacity="1.000000" />
<path d="M 125.892578 267.335938 L 125.892578 266.412109 L 132.729980 266.412109 L 132.729980 267.335938 Z " fill="rgb(0, 0, 0)" fill-opacity="1.000000" />
<path d="M 132.892578 267.335938 L 132.892578 266.412109 L 139.729980 266.412109 L 139.729980 267.335938 Z " fill="rgb(0, 0, 0)" fill-opacity="1.000000" />
<path d="M 139.892578 267.335938 L 139.892578 266.412109 L 146.729980 266.412109 L 146.729980 267.335938 Z " fill="rgb(0, 0, 0)" fill-opacity="1.000000" />
<path d="M 146.892578 267.335938 L 146.892578 266.412109 L 153.729980 266.412109 L 153.729980 267.335938 Z " fill="rgb(0, 0, 0)" fill-opacity="1.000000" />
<path d="M 153.892578 267.335938 L 153.892578 266.412109 L 160.729980 266.412109 L 160.729980 267.335938 Z " fill="rgb(0, 0, 0)" fill-opacity="1.000000" />
<path d="M 160.892578 267.335938 L 160.892578 266.412109 L 167.729980 266.412109 L 167.729980 267.335938 Z " fill="rgb(0, 0, 0)" fill-opacity="1.000000" />
<path d="M 167.892578 267.335938 L 167.892578 266.412109 L 174.729980 266.412109 L 174.729980 267.335938 Z " fill="rgb(0, 0, 0)" fill-opacity="1.000000" />
<path d="M 174.892578 267.335938 L 174.892578 266.412109 L 181.729980 266.412109 L 181.729980 267.335938 Z " fill="rgb(0, 0, 0)" fill-opacity="1.000000" />
<path d="M 181.892578 267.335938 L 181.892578 266.412109 L 188.729980 266.412109 L 188.729980 267.335938 Z " fill="rgb(0, 0, 0)" fill-opacity="1.000000" />
<path d="M 188.892578 267.335938 L 188.892578 266.412109 L 195.729980 266.412109 L 195.729980 267.335938 Z " fill="rgb(0, 0, 0)" fill-opacity="1.000000" />
<path d="M 195.892578 267.335938 L 195.892578 266.412109 L 202.729980 266.412109 L 202.729980 267.335938 Z " fill="rgb(0, 0, 0)" fill-opacity="1.000000" />
<path d="M 202.892578 267.335938 L 202.892578 266.412109 L 209.729980 266.412109 L 209.729980 267.335938 Z " fill="rgb(0, 0, 0)" fill-opacity="1.000000" />
<path d="M 209.892578 267.335938 L 209.892578 266.412109 L 216.729980 266.412109 L 216.729980 267.335938 Z " fill="rgb(0, 0, 0)" fill-opacity="1.000000" />
<path d="M 216.892578 267.335938 L 216.892578 266.412109 L 223.729980 266.412109 L 223.729980 267.335938 Z " fill="rgb(0, 0, 0)" fill-opacity="1.000000" />
<path d="M 223.892578 267.335938 L 223.892578 266.412109 L 230.729980 266.412109 L 230.729980 267.335938 Z " fill="rgb(0, 0, 0)" fill-opacity="1.000000" />
<path d="M 230.892578 267.335938 L 230.892578 266.412109 L 237.729980 266.412109 L 237.729980 267.335938 Z " fill="rgb(0, 0, 0)" fill-opacity="1.000000" />
<path d="M 237.892578 267.335938 L 237.892578 266.412109 L 244.729980 266.412109 L 244.729980 267.335938 Z " fill="rgb(0, 0, 0)" fill-opacity="1.000000" />
<path d="M 247.878906 273.319336 L 247.878906 267.335938 L 244.892578 267.335938 L 244.892578 266.412109 L 248.738281 266.412109 L 248.738281 273.319336 Z " fill="rgb(0, 0, 0)" fill-opacity="1.000000" />
<path d="M 359.878906 273.319336 L 359.878906 259.300781 L 360.738281 259.300781 L 360.738281 273.319336 Z " fill="rgb(0, 0, 0)" fill-opacity="1.000000" />
<path d="M 184.878906 234.319336 L 184.878906 220.300781 L 185.738281 220.300781 L 185.738281 234.319336 Z " fill="rgb(0, 0, 0)" fill-opacity="1.000000" />
<path d="M 184.878906 247.319336 L 184.878906 233.300781 L 185.738281 233.300781 L 185.738281 247.319336 Z " fill="rgb(0, 0, 0)" fill-opacity="1.000000" />
<path d="M 185.308594 257.418945 L 182.032227 250.866211 L 188.590332 250.866211 Z " fill="rgb(0, 0, 0)" fill-opacity="1.000000" />
<path d="M 359.878906 260.319336 L 359.878906 246.300781 L 360.738281 246.300781 L 360.738281 260.319336 Z " fill="rgb(0, 0, 0)" fill-opacity="1.000000" />
<path d="M 359.878906 234.319336 L 359.878906 220.300781 L 360.738281 220.300781 L 360.738281 234.319336 Z " fill="rgb(0, 0, 0)" fill-opacity="1.000000" />
<path d="M 359.878906 247.319336 L 359.878906 233.300781 L 360.738281 233.300781 L 360.738281 247.319336 Z " fill="rgb(0, 0, 0)" fill-opacity="1.000000" />
<path d="M 90.892578 215.335938 L 90.892578 214.412109 L 97.729980 214.412109 L 97.729980 215.335938 Z " fill="rgb(0, 0, 0)" fill-opacity="1.000000" />
<path d="M 97.892578 215.335938 L 97.892578 214.412109 L 104.729980 214.412109 L 104.729980 215.335938 Z " fill="rgb(0, 0, 0)" fill-opacity="1.000000" />
<path d="M 104.892578 215.335938 L 104.892578 214.412109 L 111.729980 214.412109 L 111.729980 215.335938 Z " fill="rgb(0, 0, 0)" fill-opacity="1.000000" />
<path d="M 111.892578 215.335938 L 111.892578 214.412109 L 118.729980 214.412109 L 118.729980 215.335938 Z " fill="rgb(0, 0, 0)" fill-opacity="1.000000" />
<path d="M 118.892578 215.335938 L 118.892578 214.412109 L 125.729980 214.412109 L 125.729980 215.335938 Z " fill="rgb(0, 0, 0)" fill-opacity="1.000000" />
<path d="M 125.892578 215.335938 L 125.892578 214.412109 L 132.729980 214.412109 L 132.729980 215.335938 Z " fill="rgb(0, 0, 0)" fill-opacity="1.000000" />
<path d="M 132.892578 215.335938 L 132.892578 214.412109 L 139.729980 214.412109 L 139.729980 215.335938 Z " fill="rgb(0, 0, 0)" fill-opacity="1.000000" />
<path d="M 139.892578 215.335938 L 139.892578 214.412109 L 146.729980 214.412109 L 146.729980 215.335938 Z " fill="rgb(0, 0, 0)" fill-opacity="1.000000" />
<path d="M 146.892578 215.335938 L 146.892578 214.412109 L 153.729980 214.412109 L 153.729980 215.335938 Z " fill="rgb(0, 0, 0)" fill-opacity="1.000000" />
<path d="M 153.892578 215.335938 L 153.892578 214.412109 L 160.729980 214.412109 L 160.729980 215.335938 Z " fill="rgb(0, 0, 0)" fill-opacity="1.000000" />
<path d="M 160.892578 215.335938 L 160.892578 214.412109 L 167.729980 214.412109 L 167.729980 215.335938 Z " fill="rgb(0, 0, 0)" fill-opacity="1.000000" />
<path d="M 167.892578 215.335938 L 167.892578 214.412109 L 174.729980 214.412109 L 174.729980 215.335938 Z " fill="rgb(0, 0, 0)" fill-opacity="1.000000" />
<path d="M 174.892578 215.335938 L 174.892578 214.412109 L 181.729980 214.412109 L 181.729980 215.335938 Z " fill="rgb(0, 0, 0)" fill-opacity="1.000000" />
<path d="M 184.878906 221.319336 L 184.878906 215.335938 L 181.892578 215.335938 L 181.892578 214.412109 L 188.729980 214.412109 L 188.729980 215.335938 L 185.738281 215.335938 L 185.738281 221.319336 Z " fill="rgb(0, 0, 0)" fill-opacity="1.000000" />
<path d="M 188.892578 215.335938 L 188.892578 214.412109 L 195.729980 214.412109 L 195.729980 215.335938 Z " fill="rgb(0, 0, 0)" fill-opacity="1.000000" />
<path d="M 195.892578 215.335938 L 195.892578 214.412109 L 202.729980 214.412109 L 202.729980 215.335938 Z " fill="rgb(0, 0, 0)" fill-opacity="1.000000" />
<path d="M 202.892578 215.335938 L 202.892578 214.412109 L 209.729980 214.412109 L 209.729980 215.335938 Z " fill="rgb(0, 0, 0)" fill-opacity="1.000000" />
<path d="M 209.892578 215.335938 L 209.892578 214.412109 L 216.729980 214.412109 L 216.729980 215.335938 Z " fill="rgb(0, 0, 0)" fill-opacity="1.000000" />
<path d="M 216.892578 215.335938 L 216.892578 214.412109 L 223.729980 214.412109 L 223.729980 215.335938 Z " fill="rgb(0, 0, 0)" fill-opacity="1.000000" />
<path d="M 223.892578 215.335938 L 223.892578 214.412109 L 230.729980 214.412109 L 230.729980 215.335938 Z " fill="rgb(0, 0, 0)" fill-opacity="1.000000" />
<path d="M 230.892578 215.335938 L 230.892578 214.412109 L 237.729980 214.412109 L 237.729980 215.335938 Z " fill="rgb(0, 0, 0)" fill-opacity="1.000000" />
<path d="M 237.892578 215.335938 L 237.892578 214.412109 L 244.729980 214.412109 L 244.729980 215.335938 Z " fill="rgb(0, 0, 0)" fill-opacity="1.000000" />
<path d="M 244.892578 215.335938 L 244.892578 214.412109 L 251.729980 214.412109 L 251.729980 215.335938 Z " fill="rgb(0, 0, 0)" fill-opacity="1.000000" />
<path d="M 251.892578 215.335938 L 251.892578 214.412109 L 258.729980 214.412109 L 258.729980 215.335938 Z " fill="rgb(0, 0, 0)" fill-opacity="1.000000" />
<path d="M 258.892578 215.335938 L 258.892578 214.412109 L 265.729980 214.412109 L 265.729980 215.335938 Z " fill="rgb(0, 0, 0)" fill-opacity="1.000000" />
<path d="M 265.892578 215.335938 L 265.892578 214.412109 L 272.729980 214.412109 L 272.729980 215.335938 Z " fill="rgb(0, 0, 0)" fill-opacity="1.000000" />
<path d="M 272.892578 215.335938 L 272.892578 214.412109 L 279.729980 214.412109 L 279.729980 215.335938 Z " fill="rgb(0, 0, 0)" fill-opacity="1.000000" />
<path d="M 279.892578 215.335938 L 279.892578 214.412109 L 282.878906 214.412109 L 282.878906 207.300781 L 283.738281 207.300781 L 283.738281 215.335938 Z " fill="rgb(0, 0, 0)" fill-opacity="1.000000" />
<path d="M 359.878906 221.319336 L 359.878906 207.300781 L 360.738281 207.300781 L 360.738281 221.319336 Z " fill="rgb(0, 0, 0)" fill-opacity="1.000000" />
<path d="M 141.154785 183.980957 L 142.245117 183.980957 L 142.245117 191.086914 L 146.117676 191.086914 L 146.117676 192.000000 L 141.154785 192.000000 Z " fill="rgb(0, 0, 0)" fill-opacity="1.000000" />
<path d="M 282.878906 208.319336 L 282.878906 194.300781 L 283.738281 194.300781 L 283.738281 208.319336 Z " fill="rgb(0, 0, 0)" fill-opacity="1.000000" />
<path d="M 359.878906 208.319336 L 359.878906 194.300781 L 360.738281 194.300781 L 360.738281 208.319336 Z " fill="rgb(0, 0, 0)" fill-opacity="1.000000" />
<path d="M 150.770508 188.976074 L 150.442871 188.976074 Q 149.578125 188.976074 149.140381 189.279541 Q 148.702637 189.583008 148.702637 190.184570 Q 148.702637 190.727051 149.030273 191.027832 Q 149.357910 191.328613 149.937988 191.328613 Q 150.754395 191.328613 151.221680 190.761963 Q 151.688965 190.195312 151.694336 189.196289 L 151.694336 188.976074 Z M 152.687988 188.567871 L 152.687988 192.000000 L 151.694336 192.000000 L 151.694336 191.108398 Q 151.377441 191.645508 150.896729 191.900635 Q 150.416016 192.155762 149.728516 192.155762 Q 148.810059 192.155762 148.262207 191.637451 Q 147.714355 191.119141 147.714355 190.249023 Q 147.714355 189.244629 148.388428 188.723633 Q 149.062500 188.202637 150.367676 188.202637 L 151.694336 188.202637 L 151.694336 188.046875 Q 151.688965 187.327148 151.329102 187.002197 Q 150.969238 186.677246 150.179688 186.677246 Q 149.674805 186.677246 149.159180 186.822266 Q 148.643555 186.967285 148.154785 187.246582 L 148.154785 186.258301 Q 148.702637 186.048828 149.204834 185.944092 Q 149.707031 185.839355 150.179688 185.839355 Q 150.926270 185.839355 151.455322 186.059570 Q 151.984375 186.279785 152.312012 186.720215 Q 152.516113 186.988770 152.602051 187.383545 Q 152.687988 187.778320 152.687988 188.567871 Z " fill="rgb(0, 0, 0)" fill-opacity="1.000000" />
<path d="M 157.297852 184.276367 L 157.297852 185.984375 L 159.542969 185.984375 L 159.542969 186.752441 L 157.297852 186.752441 L 157.297852 190.018066 Q 157.297852 190.684082 157.550293 190.947266 Q 157.802734 191.210449 158.431152 191.210449 L 159.542969 191.210449 L 159.542969 192.000000 L 158.334473 192.000000 Q 157.222656 192.000000 156.766113 191.554199 Q 156.309570 191.108398 156.309570 190.018066 L 156.309570 186.752441 L 154.703613 186.752441 L 154.703613 185.984375 L 156.309570 185.984375 L 156.309570 184.276367 Z " fill="rgb(0, 0, 0)" fill-opacity="1.000000" />
<path d="M 167.015625 188.498047 L 167.015625 188.981445 L 162.734863 188.981445 L 162.734863 189.013672 Q 162.691895 190.243652 163.204834 190.780762 Q 163.717773 191.317871 164.652344 191.317871 Q 165.125000 191.317871 165.640625 191.167480 Q 166.156250 191.017090 166.741699 190.710938 L 166.741699 191.693848 Q 166.177734 191.924805 165.654053 192.040283 Q 165.130371 192.155762 164.641602 192.155762 Q 163.239746 192.155762 162.450195 191.315186 Q 161.660645 190.474609 161.660645 188.997559 Q 161.660645 187.558105 162.434082 186.698730 Q 163.207520 185.839355 164.496582 185.839355 Q 165.645996 185.839355 166.309326 186.618164 Q 166.972656 187.396973 167.015625 188.498047 Z M 166.027344 188.208008 Q 165.962891 187.584961 165.573486 187.131104 Q 165.184082 186.677246 164.453613 186.677246 Q 163.739258 186.677246 163.277344 187.149902 Q 162.815430 187.622559 162.772461 188.213379 Z " fill="rgb(0, 0, 0)" fill-opacity="1.000000" />
<path d="M 173.645020 188.272461 L 173.645020 192.000000 L 172.651367 192.000000 L 172.651367 188.272461 Q 172.651367 187.461426 172.366699 187.080078 Q 172.082031 186.698730 171.475098 186.698730 Q 170.782227 186.698730 170.408936 187.190186 Q 170.035645 187.681641 170.035645 188.600098 L 170.035645 192.000000 L 169.047363 192.000000 L 169.047363 185.984375 L 170.035645 185.984375 L 170.035645 186.886719 Q 170.298828 186.371094 170.750000 186.105225 Q 171.201172 185.839355 171.818848 185.839355 Q 172.737305 185.839355 173.191162 186.443604 Q 173.645020 187.047852 173.645020 188.272461 Z " fill="rgb(0, 0, 0)" fill-opacity="1.000000" />
<path d="M 180.698730 191.693848 Q 180.301270 191.924805 179.879639 192.040283 Q 179.458008 192.155762 179.017578 192.155762 Q 177.621094 192.155762 176.834229 191.317871 Q 176.047363 190.479980 176.047363 188.997559 Q 176.047363 187.515137 176.834229 186.677246 Q 177.621094 185.839355 179.017578 185.839355 Q 179.452637 185.839355 179.866211 185.952148 Q 180.279785 186.064941 180.698730 186.301270 L 180.698730 187.337891 Q 180.306641 186.988770 179.911865 186.833008 Q 179.517090 186.677246 179.017578 186.677246 Q 178.088379 186.677246 177.588867 187.278809 Q 177.089355 187.880371 177.089355 188.997559 Q 177.089355 190.109375 177.591553 190.713623 Q 178.093750 191.317871 179.017578 191.317871 Q 179.533203 191.317871 179.941406 191.159424 Q 180.349609 191.000977 180.698730 190.667969 Z " fill="rgb(0, 0, 0)" fill-opacity="1.000000" />
<path d="M 186.608398 190.066406 Q 186.361328 190.694824 185.979980 191.720703 Q 185.448242 193.138672 185.265625 193.450195 Q 185.018555 193.869141 184.647949 194.078613 Q 184.277344 194.288086 183.783203 194.288086 L 182.988281 194.288086 L 182.988281 193.460938 L 183.573730 193.460938 Q 184.008789 193.460938 184.255859 193.208496 Q 184.502930 192.956055 184.884277 191.903320 L 182.558594 185.984375 L 183.605957 185.984375 L 185.389160 190.689453 L 187.145508 185.984375 L 188.192871 185.984375 Z " fill="rgb(0, 0, 0)" fill-opacity="1.000000" />
<path d="M 191.304199 185.989746 L 192.979980 185.989746 L 192.979980 187.928711 L 191.304199 187.928711 Z M 191.304199 190.044922 L 192.979980 190.044922 L 192.979980 192.000000 L 191.304199 192.000000 Z " fill="rgb(0, 0, 0)" fill-opacity="1.000000" />
<path d="M 206.947754 184.969238 L 204.417969 189.207031 L 206.947754 189.207031 Z M 206.770508 183.980957 L 208.027344 183.980957 L 208.027344 189.207031 L 209.096191 189.207031 L 209.096191 190.087891 L 208.027344 190.087891 L 208.027344 192.000000 L 206.947754 192.000000 L 206.947754 190.087891 L 203.547852 190.087891 L 203.547852 189.062012 Z " fill="rgb(0, 0, 0)" fill-opacity="1.000000" />
<path d="M 213.630859 186.596680 Q 213.813477 186.209961 214.095459 186.024658 Q 214.377441 185.839355 214.774902 185.839355 Q 215.500000 185.839355 215.798096 186.400635 Q 216.096191 186.961914 216.096191 188.514160 L 216.096191 192.000000 L 215.193848 192.000000 L 215.193848 188.557129 Q 215.193848 187.284180 215.051514 186.975342 Q 214.909180 186.666504 214.533203 186.666504 Q 214.103516 186.666504 213.945068 186.996826 Q 213.786621 187.327148 213.786621 188.557129 L 213.786621 192.000000 L 212.884277 192.000000 L 212.884277 188.557129 Q 212.884277 187.268066 212.731201 186.967285 Q 212.578125 186.666504 212.180664 186.666504 Q 211.788574 186.666504 211.635498 186.996826 Q 211.482422 187.327148 211.482422 188.557129 L 211.482422 192.000000 L 210.585449 192.000000 L 210.585449 185.984375 L 211.482422 185.984375 L 211.482422 186.500000 Q 211.659668 186.177734 211.925537 186.008545 Q 212.191406 185.839355 212.529785 185.839355 Q 212.937988 185.839355 213.209229 186.027344 Q 213.480469 186.215332 213.630859 186.596680 Z " fill="rgb(0, 0, 0)" fill-opacity="1.000000" />
<path d="M 222.226074 186.193848 L 222.226074 187.160645 Q 221.801758 186.913574 221.372070 186.790039 Q 220.942383 186.666504 220.496582 186.666504 Q 219.825195 186.666504 219.494873 186.884033 Q 219.164551 187.101562 219.164551 187.547363 Q 219.164551 187.950195 219.411621 188.148926 Q 219.658691 188.347656 220.641602 188.535645 L 221.039062 188.610840 Q 221.774902 188.750488 222.153564 189.169434 Q 222.532227 189.588379 222.532227 190.259766 Q 222.532227 191.151367 221.898438 191.653564 Q 221.264648 192.155762 220.136719 192.155762 Q 219.690918 192.155762 219.202148 192.061768 Q 218.713379 191.967773 218.144043 191.779785 L 218.144043 190.759277 Q 218.697266 191.043945 219.202148 191.186279 Q 219.707031 191.328613 220.158203 191.328613 Q 220.813477 191.328613 221.173340 191.062744 Q 221.533203 190.796875 221.533203 190.318848 Q 221.533203 189.631348 220.217285 189.368164 L 220.174316 189.357422 L 219.803711 189.282227 Q 218.949707 189.115723 218.557617 188.720947 Q 218.165527 188.326172 218.165527 187.644043 Q 218.165527 186.779297 218.750977 186.309326 Q 219.336426 185.839355 220.421387 185.839355 Q 220.904785 185.839355 221.350586 185.927979 Q 221.796387 186.016602 222.226074 186.193848 Z " fill="rgb(0, 0, 0)" fill-opacity="1.000000" />
<path d="M 282.878906 195.319336 L 282.878906 181.300781 L 283.738281 181.300781 L 283.738281 195.319336 Z " fill="rgb(0, 0, 0)" fill-opacity="1.000000" />
<path d="M 359.878906 195.319336 L 359.878906 181.300781 L 360.738281 181.300781 L 360.738281 195.319336 Z " fill="rgb(0, 0, 0)" fill-opacity="1.000000" />
<path d="M 280.032227 179.418945 L 283.308594 172.866211 L 286.590332 179.418945 Z " fill="rgb(0, 0, 0)" fill-opacity="1.000000" />
<path d="M 359.878906 182.319336 L 359.878906 168.300781 L 360.738281 168.300781 L 360.738281 182.319336 Z " fill="rgb(0, 0, 0)" fill-opacity="1.000000" />
<path d="M 27.892578 163.335938 L 27.892578 162.412109 L 34.729980 162.412109 L 34.729980 163.335938 Z " fill="rgb(0, 0, 0)" fill-opacity="1.000000" />
<path d="M 34.892578 163.335938 L 34.892578 162.412109 L 41.729980 162.412109 L 41.729980 163.335938 Z " fill="rgb(0, 0, 0)" fill-opacity="1.000000" />
<path d="M 41.892578 163.335938 L 41.892578 162.412109 L 48.729980 162.412109 L 48.729980 163.335938 Z " fill="rgb(0, 0, 0)" fill-opacity="1.000000" />
<path d="M 48.892578 163.335938 L 48.892578 162.412109 L 55.729980 162.412109 L 55.729980 163.335938 Z " fill="rgb(0, 0, 0)" fill-opacity="1.000000" />
<path d="M 55.892578 163.335938 L 55.892578 162.412109 L 62.729980 162.412109 L 62.729980 163.335938 Z " fill="rgb(0, 0, 0)" fill-opacity="1.000000" />
<path d="M 62.892578 163.335938 L 62.892578 162.412109 L 69.729980 162.412109 L 69.729980 163.335938 Z " fill="rgb(0, 0, 0)" fill-opacity="1.000000" />
<path d="M 69.892578 163.335938 L 69.892578 162.412109 L 76.729980 162.412109 L 76.729980 163.335938 Z " fill="rgb(0, 0, 0)" fill-opacity="1.000000" />
<path d="M 76.892578 163.335938 L 76.892578 162.412109 L 83.729980 162.412109 L 83.729980 163.335938 Z " fill="rgb(0, 0, 0)" fill-opacity="1.000000" />
<path d="M 83.892578 163.335938 L 83.892578 162.412109 L 90.729980 162.412109 L 90.729980 163.335938 Z " fill="rgb(0, 0, 0)" fill-opacity="1.000000" />
<path d="M 90.892578 163.335938 L 90.892578 162.412109 L 97.729980 162.412109 L 97.729980 163.335938 Z " fill="rgb(0, 0, 0)" fill-opacity="1.000000" />
<path d="M 97.892578 163.335938 L 97.892578 162.412109 L 104.729980 162.412109 L 104.729980 163.335938 Z " fill="rgb(0, 0, 0)" fill-opacity="1.000000" />
<path d="M 104.892578 163.335938 L 104.892578 162.412109 L 111.729980 162.412109 L 111.729980 163.335938 Z " fill="rgb(0, 0, 0)" fill-opacity="1.000000" />
<path d="M 111.892578 163.335938 L 111.892578 162.412109 L 118.729980 162.412109 L 118.729980 163.335938 Z " fill="rgb(0, 0, 0)" fill-opacity="1.000000" />
<path d="M 118.892578 163.335938 L 118.892578 162.412109 L 125.729980 162.412109 L 125.729980 163.335938 Z " fill="rgb(0, 0, 0)" fill-opacity="1.000000" />
<path d="M 125.892578 163.335938 L 125.892578 162.412109 L 132.729980 162.412109 L 132.729980 163.335938 Z " fill="rgb(0, 0, 0)" fill-opacity="1.000000" />
<path d="M 132.892578 163.335938 L 132.892578 162.412109 L 139.729980 162.412109 L 139.729980 163.335938 Z " fill="rgb(0, 0, 0)" fill-opacity="1.000000" />
<path d="M 139.892578 163.335938 L 139.892578 162.412109 L 146.729980 162.412109 L 146.729980 163.335938 Z " fill="rgb(0, 0, 0)" fill-opacity="1.000000" />
<path d="M 146.892578 163.335938 L 146.892578 162.412109 L 149.878906 162.412109 L 149.878906 155.300781 L 150.738281 155.300781 L 150.738281 163.335938 Z " fill="rgb(0, 0, 0)" fill-opacity="1.000000" />
<path d="M 219.878906 163.335938 L 219.878906 155.300781 L 220.738281 155.300781 L 220.738281 162.412109 L 223.729980 162.412109 L 223.729980 163.335938 Z " fill="rgb(0, 0, 0)" fill-opacity="1.000000" />
<path d="M 223.892578 163.335938 L 223.892578 162.412109 L 230.729980 162.412109 L 230.729980 163.335938 Z " fill="rgb(0, 0, 0)" fill-opacity="1.000000" />
<path d="M 230.892578 163.335938 L 230.892578 162.412109 L 237.729980 162.412109 L 237.729980 163.335938 Z " fill="rgb(0, 0, 0)" fill-opacity="1.000000" />
<path d="M 237.892578 163.335938 L 237.892578 162.412109 L 244.729980 162.412109 L 244.729980 163.335938 Z " fill="rgb(0, 0, 0)" fill-opacity="1.000000" />
<path d="M 244.892578 163.335938 L 244.892578 162.412109 L 251.729980 162.412109 L 251.729980 163.335938 Z " fill="rgb(0, 0, 0)" fill-opacity="1.000000" />
<path d="M 251.892578 163.335938 L 251.892578 162.412109 L 258.729980 162.412109 L 258.729980 163.335938 Z " fill="rgb(0, 0, 0)" fill-opacity="1.000000" />
<path d="M 258.892578 163.335938 L 258.892578 162.412109 L 265.729980 162.412109 L 265.729980 163.335938 Z " fill="rgb(0, 0, 0)" fill-opacity="1.000000" />
<path d="M 265.892578 163.335938 L 265.892578 162.412109 L 272.729980 162.412109 L 272.729980 163.335938 Z " fill="rgb(0, 0, 0)" fill-opacity="1.000000" />
<path d="M 272.892578 163.335938 L 272.892578 162.412109 L 279.729980 162.412109 L 279.729980 163.335938 Z " fill="rgb(0, 0, 0)" fill-opacity="1.000000" />
<path d="M 279.892578 163.335938 L 279.892578 162.412109 L 286.729980 162.412109 L 286.729980 163.335938 Z " fill="rgb(0, 0, 0)" fill-opacity="1.000000" />
<path d="M 286.892578 163.335938 L 286.892578 162.412109 L 293.729980 162.412109 L 293.729980 163.335938 Z " fill="rgb(0, 0, 0)" fill-opacity="1.000000" />
<path d="M 293.892578 163.335938 L 293.892578 162.412109 L 300.729980 162.412109 L 300.729980 163.335938 Z " fill="rgb(0, 0, 0)" fill-opacity="1.000000" />
<path d="M 300.892578 163.335938 L 300.892578 162.412109 L 307.729980 162.412109 L 307.729980 163.335938 Z " fill="rgb(0, 0, 0)" fill-opacity="1.000000" />
<path d="M 307.892578 163.335938 L 307.892578 162.412109 L 314.729980 162.412109 L 314.729980 163.335938 Z " fill="rgb(0, 0, 0)" fill-opacity="1.000000" />
<path d="M 314.892578 163.335938 L 314.892578 162.412109 L 321.729980 162.412109 L 321.729980 163.335938 Z " fill="rgb(0, 0, 0)" fill-opacity="1.000000" />
<path d="M 321.892578 163.335938 L 321.892578 162.412109 L 328.729980 162.412109 L 328.729980 163.335938 Z " fill="rgb(0, 0, 0)" fill-opacity="1.000000" />
<path d="M 328.892578 163.335938 L 328.892578 162.412109 L 335.729980 162.412109 L 335.729980 163.335938 Z " fill="rgb(0, 0, 0)" fill-opacity="1.000000" />
<path d="M 335.892578 163.335938 L 335.892578 162.412109 L 342.729980 162.412109 L 342.729980 163.335938 Z " fill="rgb(0, 0, 0)" fill-opacity="1.000000" />
<path d="M 342.892578 163.335938 L 342.892578 162.412109 L 345.878906 162.412109 L 345.878906 155.300781 L 346.738281 155.300781 L 346.738281 163.335938 Z " fill="rgb(0, 0, 0)" fill-opacity="1.000000" />
<path d="M 359.878906 169.319336 L 359.878906 155.300781 L 360.738281 155.300781 L 360.738281 169.319336 Z " fill="rgb(0, 0, 0)" fill-opacity="1.000000" />
<path d="M 56.735840 144.980957 L 57.826172 144.980957 L 57.826172 148.053223 L 60.796387 148.053223 L 60.796387 144.980957 L 61.886719 144.980957 L 61.886719 153.000000 L 60.796387 153.000000 L 60.796387 148.966309 L 57.826172 148.966309 L 57.826172 153.000000 L 56.735840 153.000000 Z " fill="rgb(0, 0, 0)" fill-opacity="1.000000" />
<path d="M 66.770508 149.976074 L 66.442871 149.976074 Q 65.578125 149.976074 65.140381 150.279541 Q 64.702637 150.583008 64.702637 151.184570 Q 64.702637 151.727051 65.030273 152.027832 Q 65.357910 152.328613 65.937988 152.328613 Q 66.754395 152.328613 67.221680 151.761963 Q 67.688965 151.195312 67.694336 150.196289 L 67.694336 149.976074 Z M 68.687988 149.567871 L 68.687988 153.000000 L 67.694336 153.000000 L 67.694336 152.108398 Q 67.377441 152.645508 66.896729 152.900635 Q 66.416016 153.155762 65.728516 153.155762 Q 64.810059 153.155762 64.262207 152.637451 Q 63.714355 152.119141 63.714355 151.249023 Q 63.714355 150.244629 64.388428 149.723633 Q 65.062500 149.202637 66.367676 149.202637 L 67.694336 149.202637 L 67.694336 149.046875 Q 67.688965 148.327148 67.329102 148.002197 Q 66.969238 147.677246 66.179688 147.677246 Q 65.674805 147.677246 65.159180 147.822266 Q 64.643555 147.967285 64.154785 148.246582 L 64.154785 147.258301 Q 64.702637 147.048828 65.204834 146.944092 Q 65.707031 146.839355 66.179688 146.839355 Q 66.926270 146.839355 67.455322 147.059570 Q 67.984375 147.279785 68.312012 147.720215 Q 68.516113 147.988770 68.602051 148.383545 Q 68.687988 148.778320 68.687988 149.567871 Z " fill="rgb(0, 0, 0)" fill-opacity="1.000000" />
<path d="M 71.219238 146.973633 L 75.585938 146.973633 L 75.585938 147.875977 L 72.132324 152.194336 L 75.585938 152.194336 L 75.585938 153.000000 L 71.090332 153.000000 L 71.090332 152.086914 L 74.543945 147.763184 L 71.219238 147.763184 Z " fill="rgb(0, 0, 0)" fill-opacity="1.000000" />
<path d="M 83.015625 149.498047 L 83.015625 149.981445 L 78.734863 149.981445 L 78.734863 150.013672 Q 78.691895 151.243652 79.204834 151.780762 Q 79.717773 152.317871 80.652344 152.317871 Q 81.125000 152.317871 81.640625 152.167480 Q 82.156250 152.017090 82.741699 151.710938 L 82.741699 152.693848 Q 82.177734 152.924805 81.654053 153.040283 Q 81.130371 153.155762 80.641602 153.155762 Q 79.239746 153.155762 78.450195 152.315186 Q 77.660645 151.474609 77.660645 149.997559 Q 77.660645 148.558105 78.434082 147.698730 Q 79.207520 146.839355 80.496582 146.839355 Q 81.645996 146.839355 82.309326 147.618164 Q 82.972656 148.396973 83.015625 149.498047 Z M 82.027344 149.208008 Q 81.962891 148.584961 81.573486 148.131104 Q 81.184082 147.677246 80.453613 147.677246 Q 79.739258 147.677246 79.277344 148.149902 Q 78.815430 148.622559 78.772461 149.213379 Z " fill="rgb(0, 0, 0)" fill-opacity="1.000000" />
<path d="M 87.861816 150.824707 Q 87.861816 151.490723 88.106201 151.829102 Q 88.350586 152.167480 88.828613 152.167480 L 89.983398 152.167480 L 89.983398 153.000000 L 88.731934 153.000000 Q 87.845703 153.000000 87.359619 152.433350 Q 86.873535 151.866699 86.873535 150.824707 L 86.873535 145.383789 L 85.289062 145.383789 L 85.289062 144.610352 L 87.861816 144.610352 Z " fill="rgb(0, 0, 0)" fill-opacity="1.000000" />
<path d="M 96.698730 152.693848 Q 96.301270 152.924805 95.879639 153.040283 Q 95.458008 153.155762 95.017578 153.155762 Q 93.621094 153.155762 92.834229 152.317871 Q 92.047363 151.479980 92.047363 149.997559 Q 92.047363 148.515137 92.834229 147.677246 Q 93.621094 146.839355 95.017578 146.839355 Q 95.452637 146.839355 95.866211 146.952148 Q 96.279785 147.064941 96.698730 147.301270 L 96.698730 148.337891 Q 96.306641 147.988770 95.911865 147.833008 Q 95.517090 147.677246 95.017578 147.677246 Q 94.088379 147.677246 93.588867 148.278809 Q 93.089355 148.880371 93.089355 149.997559 Q 93.089355 151.109375 93.591553 151.713623 Q 94.093750 152.317871 95.017578 152.317871 Q 95.533203 152.317871 95.941406 152.159424 Q 96.349609 152.000977 96.698730 151.667969 Z " fill="rgb(0, 0, 0)" fill-opacity="1.000000" />
<path d="M 101.770508 149.976074 L 101.442871 149.976074 Q 100.578125 149.976074 100.140381 150.279541 Q 99.702637 150.583008 99.702637 151.184570 Q 99.702637 151.727051 100.030273 152.027832 Q 100.357910 152.328613 100.937988 152.328613 Q 101.754395 152.328613 102.221680 151.761963 Q 102.688965 151.195312 102.694336 150.196289 L 102.694336 149.976074 Z M 103.687988 149.567871 L 103.687988 153.000000 L 102.694336 153.000000 L 102.694336 152.108398 Q 102.377441 152.645508 101.896729 152.900635 Q 101.416016 153.155762 100.728516 153.155762 Q 99.810059 153.155762 99.262207 152.637451 Q 98.714355 152.119141 98.714355 151.249023 Q 98.714355 150.244629 99.388428 149.723633 Q 100.062500 149.202637 101.367676 149.202637 L 102.694336 149.202637 L 102.694336 149.046875 Q 102.688965 148.327148 102.329102 148.002197 Q 101.969238 147.677246 101.179688 147.677246 Q 100.674805 147.677246 100.159180 147.822266 Q 99.643555 147.967285 99.154785 148.246582 L 99.154785 147.258301 Q 99.702637 147.048828 100.204834 146.944092 Q 100.707031 146.839355 101.179688 146.839355 Q 101.926270 146.839355 102.455322 147.059570 Q 102.984375 147.279785 103.312012 147.720215 Q 103.516113 147.988770 103.602051 148.383545 Q 103.687988 148.778320 103.687988 149.567871 Z " fill="rgb(0, 0, 0)" fill-opacity="1.000000" />
<path d="M 110.226074 147.193848 L 110.226074 148.160645 Q 109.801758 147.913574 109.372070 147.790039 Q 108.942383 147.666504 108.496582 147.666504 Q 107.825195 147.666504 107.494873 147.884033 Q 107.164551 148.101562 107.164551 148.547363 Q 107.164551 148.950195 107.411621 149.148926 Q 107.658691 149.347656 108.641602 149.535645 L 109.039062 149.610840 Q 109.774902 149.750488 110.153564 150.169434 Q 110.532227 150.588379 110.532227 151.259766 Q 110.532227 152.151367 109.898438 152.653564 Q 109.264648 153.155762 108.136719 153.155762 Q 107.690918 153.155762 107.202148 153.061768 Q 106.713379 152.967773 106.144043 152.779785 L 106.144043 151.759277 Q 106.697266 152.043945 107.202148 152.186279 Q 107.707031 152.328613 108.158203 152.328613 Q 108.813477 152.328613 109.173340 152.062744 Q 109.533203 151.796875 109.533203 151.318848 Q 109.533203 150.631348 108.217285 150.368164 L 108.174316 150.357422 L 107.803711 150.282227 Q 106.949707 150.115723 106.557617 149.720947 Q 106.165527 149.326172 106.165527 148.644043 Q 106.165527 147.779297 106.750977 147.309326 Q 107.336426 146.839355 108.421387 146.839355 Q 108.904785 146.839355 109.350586 146.927979 Q 109.796387 147.016602 110.226074 147.193848 Z " fill="rgb(0, 0, 0)" fill-opacity="1.000000" />
<path d="M 115.297852 145.276367 L 115.297852 146.984375 L 117.542969 146.984375 L 117.542969 147.752441 L 115.297852 147.752441 L 115.297852 151.018066 Q 115.297852 151.684082 115.550293 151.947266 Q 115.802734 152.210449 116.431152 152.210449 L 117.542969 152.210449 L 117.542969 153.000000 L 116.334473 153.000000 Q 115.222656 153.000000 114.766113 152.554199 Q 114.309570 152.108398 114.309570 151.018066 L 114.309570 147.752441 L 112.703613 147.752441 L 112.703613 146.984375 L 114.309570 146.984375 L 114.309570 145.276367 Z " fill="rgb(0, 0, 0)" fill-opacity="1.000000" />
<path d="M 149.878906 156.319336 L 149.878906 142.300781 L 150.738281 142.300781 L 150.738281 156.319336 Z " fill="rgb(0, 0, 0)" fill-opacity="1.000000" />
<path d="M 154.032227 150.142578 L 160.590332 146.866211 L 160.590332 153.418945 Z " fill="rgb(0, 0, 0)" fill-opacity="1.000000" />
<path d="M 160.892578 150.335938 L 160.892578 149.412109 L 167.729980 149.412109 L 167.729980 150.335938 Z " fill="rgb(0, 0, 0)" fill-opacity="1.000000" />
<path d="M 167.892578 150.335938 L 167.892578 149.412109 L 174.729980 149.412109 L 174.729980 150.335938 Z " fill="rgb(0, 0, 0)" fill-opacity="1.000000" />
<path d="M 174.892578 150.335938 L 174.892578 149.412109 L 181.729980 149.412109 L 181.729980 150.335938 Z " fill="rgb(0, 0, 0)" fill-opacity="1.000000" />
<path d="M 181.892578 150.335938 L 181.892578 149.412109 L 188.729980 149.412109 L 188.729980 150.335938 Z " fill="rgb(0, 0, 0)" fill-opacity="1.000000" />
<path d="M 188.892578 150.335938 L 188.892578 149.412109 L 195.729980 149.412109 L 195.729980 150.335938 Z " fill="rgb(0, 0, 0)" fill-opacity="1.000000" />
<path d="M 195.892578 150.335938 L 195.892578 149.412109 L 202.729980 149.412109 L 202.729980 150.335938 Z " fill="rgb(0, 0, 0)" fill-opacity="1.000000" />
<path d="M 202.892578 150.335938 L 202.892578 149.412109 L 209.729980 149.412109 L 209.729980 150.335938 Z " fill="rgb(0, 0, 0)" fill-opacity="1.000000" />
<path d="M 210.032227 153.418945 L 210.032227 146.866211 L 216.590332 150.142578 Z " fill="rgb(0, 0, 0)" fill-opacity="1.000000" />
<path d="M 219.878906 156.319336 L 219.878906 142.300781 L 220.738281 142.300781 L 220.738281 156.319336 Z " fill="rgb(0, 0, 0)" fill-opacity="1.000000" />
<path d="M 252.735840 144.980957 L 253.826172 144.980957 L 253.826172 148.053223 L 256.796387 148.053223 L 256.796387 144.980957 L 257.886719 144.980957 L 257.886719 153.000000 L 256.796387 153.000000 L 256.796387 148.966309 L 253.826172 148.966309 L 253.826172 153.000000 L 252.735840 153.000000 Z " fill="rgb(0, 0, 0)" fill-opacity="1.000000" />
<path d="M 262.770508 149.976074 L 262.442871 149.976074 Q 261.578125 149.976074 261.140381 150.279541 Q 260.702637 150.583008 260.702637 151.184570 Q 260.702637 151.727051 261.030273 152.027832 Q 261.357910 152.328613 261.937988 152.328613 Q 262.754395 152.328613 263.221680 151.761963 Q 263.688965 151.195312 263.694336 150.196289 L 263.694336 149.976074 Z M 264.687988 149.567871 L 264.687988 153.000000 L 263.694336 153.000000 L 263.694336 152.108398 Q 263.377441 152.645508 262.896729 152.900635 Q 262.416016 153.155762 261.728516 153.155762 Q 260.810059 153.155762 260.262207 152.637451 Q 259.714355 152.119141 259.714355 151.249023 Q 259.714355 150.244629 260.388428 149.723633 Q 261.062500 149.202637 262.367676 149.202637 L 263.694336 149.202637 L 263.694336 149.046875 Q 263.688965 148.327148 263.329102 148.002197 Q 262.969238 147.677246 262.179688 147.677246 Q 261.674805 147.677246 261.159180 147.822266 Q 260.643555 147.967285 260.154785 148.246582 L 260.154785 147.258301 Q 260.702637 147.048828 261.204834 146.944092 Q 261.707031 146.839355 262.179688 146.839355 Q 262.926270 146.839355 263.455322 147.059570 Q 263.984375 147.279785 264.312012 147.720215 Q 264.516113 147.988770 264.602051 148.383545 Q 264.687988 148.778320 264.687988 149.567871 Z " fill="rgb(0, 0, 0)" fill-opacity="1.000000" />
<path d="M 267.219238 146.973633 L 271.585938 146.973633 L 271.585938 147.875977 L 268.132324 152.194336 L 271.585938 152.194336 L 271.585938 153.000000 L 267.090332 153.000000 L 267.090332 152.086914 L 270.543945 147.763184 L 267.219238 147.763184 Z " fill="rgb(0, 0, 0)" fill-opacity="1.000000" />
<path d="M 279.015625 149.498047 L 279.015625 149.981445 L 274.734863 149.981445 L 274.734863 150.013672 Q 274.691895 151.243652 275.204834 151.780762 Q 275.717773 152.317871 276.652344 152.317871 Q 277.125000 152.317871 277.640625 152.167480 Q 278.156250 152.017090 278.741699 151.710938 L 278.741699 152.693848 Q 278.177734 152.924805 277.654053 153.040283 Q 277.130371 153.155762 276.641602 153.155762 Q 275.239746 153.155762 274.450195 152.315186 Q 273.660645 151.474609 273.660645 149.997559 Q 273.660645 148.558105 274.434082 147.698730 Q 275.207520 146.839355 276.496582 146.839355 Q 277.645996 146.839355 278.309326 147.618164 Q 278.972656 148.396973 279.015625 149.498047 Z M 278.027344 149.208008 Q 277.962891 148.584961 277.573486 148.131104 Q 277.184082 147.677246 276.453613 147.677246 Q 275.739258 147.677246 275.277344 148.149902 Q 274.815430 148.622559 274.772461 149.213379 Z " fill="rgb(0, 0, 0)" fill-opacity="1.000000" />
<path d="M 283.861816 150.824707 Q 283.861816 151.490723 284.106201 151.829102 Q 284.350586 152.167480 284.828613 152.167480 L 285.983398 152.167480 L 285.983398 153.000000 L 284.731934 153.000000 Q 283.845703 153.000000 283.359619 152.433350 Q 282.873535 151.866699 282.873535 150.824707 L 282.873535 145.383789 L 281.289062 145.383789 L 281.289062 144.610352 L 283.861816 144.610352 Z " fill="rgb(0, 0, 0)" fill-opacity="1.000000" />
<path d="M 292.698730 152.693848 Q 292.301270 152.924805 291.879639 153.040283 Q 291.458008 153.155762 291.017578 153.155762 Q 289.621094 153.155762 288.834229 152.317871 Q 288.047363 151.479980 288.047363 149.997559 Q 288.047363 148.515137 288.834229 147.677246 Q 289.621094 146.839355 291.017578 146.839355 Q 291.452637 146.839355 291.866211 146.952148 Q 292.279785 147.064941 292.698730 147.301270 L 292.698730 148.337891 Q 292.306641 147.988770 291.911865 147.833008 Q 291.517090 147.677246 291.017578 147.677246 Q 290.088379 147.677246 289.588867 148.278809 Q 289.089355 148.880371 289.089355 149.997559 Q 289.089355 151.109375 289.591553 151.713623 Q 290.093750 152.317871 291.017578 152.317871 Q 291.533203 152.317871 291.941406 152.159424 Q 292.349609 152.000977 292.698730 151.667969 Z " fill="rgb(0, 0, 0)" fill-opacity="1.000000" />
<path d="M 297.770508 149.976074 L 297.442871 149.976074 Q 296.578125 149.976074 296.140381 150.279541 Q 295.702637 150.583008 295.702637 151.184570 Q 295.702637 151.727051 296.030273 152.027832 Q 296.357910 152.328613 296.937988 152.328613 Q 297.754395 152.328613 298.221680 151.761963 Q 298.688965 151.195312 298.694336 150.196289 L 298.694336 149.976074 Z M 299.687988 149.567871 L 299.687988 153.000000 L 298.694336 153.000000 L 298.694336 152.108398 Q 298.377441 152.645508 297.896729 152.900635 Q 297.416016 153.155762 296.728516 153.155762 Q 295.810059 153.155762 295.262207 152.637451 Q 294.714355 152.119141 294.714355 151.249023 Q 294.714355 150.244629 295.388428 149.723633 Q 296.062500 149.202637 297.367676 149.202637 L 298.694336 149.202637 L 298.694336 149.046875 Q 298.688965 148.327148 298.329102 148.002197 Q 297.969238 147.677246 297.179688 147.677246 Q 296.674805 147.677246 296.159180 147.822266 Q 295.643555 147.967285 295.154785 148.246582 L 295.154785 147.258301 Q 295.702637 147.048828 296.204834 146.944092 Q 296.707031 146.839355 297.179688 146.839355 Q 297.926270 146.839355 298.455322 147.059570 Q 298.984375 147.279785 299.312012 147.720215 Q 299.516113 147.988770 299.602051 148.383545 Q 299.687988 148.778320 299.687988 149.567871 Z " fill="rgb(0, 0, 0)" fill-opacity="1.000000" />
<path d="M 306.226074 147.193848 L 306.226074 148.160645 Q 305.801758 147.913574 305.372070 147.790039 Q 304.942383 147.666504 304.496582 147.666504 Q 303.825195 147.666504 303.494873 147.884033 Q 303.164551 148.101562 303.164551 148.547363 Q 303.164551 148.950195 303.411621 149.148926 Q 303.658691 149.347656 304.641602 149.535645 L 305.039062 149.610840 Q 305.774902 149.750488 306.153564 150.169434 Q 306.532227 150.588379 306.532227 151.259766 Q 306.532227 152.151367 305.898438 152.653564 Q 305.264648 153.155762 304.136719 153.155762 Q 303.690918 153.155762 303.202148 153.061768 Q 302.713379 152.967773 302.144043 152.779785 L 302.144043 151.759277 Q 302.697266 152.043945 303.202148 152.186279 Q 303.707031 152.328613 304.158203 152.328613 Q 304.813477 152.328613 305.173340 152.062744 Q 305.533203 151.796875 305.533203 151.318848 Q 305.533203 150.631348 304.217285 150.368164 L 304.174316 150.357422 L 303.803711 150.282227 Q 302.949707 150.115723 302.557617 149.720947 Q 302.165527 149.326172 302.165527 148.644043 Q 302.165527 147.779297 302.750977 147.309326 Q 303.336426 146.839355 304.421387 146.839355 Q 304.904785 146.839355 305.350586 146.927979 Q 305.796387 147.016602 306.226074 147.193848 Z " fill="rgb(0, 0, 0)" fill-opacity="1.000000" />
<path d="M 311.297852 145.276367 L 311.297852 146.984375 L 313.542969 146.984375 L 313.542969 147.752441 L 311.297852 147.752441 L 311.297852 151.018066 Q 311.297852 151.684082 311.550293 151.947266 Q 311.802734 152.210449 312.431152 152.210449 L 313.542969 152.210449 L 313.542969 153.000000 L 312.334473 153.000000 Q 311.222656 153.000000 310.766113 152.554199 Q 310.309570 152.108398 310.309570 151.018066 L 310.309570 147.752441 L 308.703613 147.752441 L 308.703613 146.984375 L 310.309570 146.984375 L 310.309570 145.276367 Z " fill="rgb(0, 0, 0)" fill-opacity="1.000000" />
<path d="M 345.878906 156.319336 L 345.878906 142.300781 L 346.738281 142.300781 L 346.738281 156.319336 Z " fill="rgb(0, 0, 0)" fill-opacity="1.000000" />
<path d="M 359.878906 156.319336 L 359.878906 142.300781 L 360.738281 142.300781 L 360.738281 156.319336 Z " fill="rgb(0, 0, 0)" fill-opacity="1.000000" />
<path d="M 27.892578 137.335938 L 27.892578 136.412109 L 34.729980 136.412109 L 34.729980 137.335938 Z " fill="rgb(0, 0, 0)" fill-opacity="1.000000" />
<path d="M 34.892578 137.335938 L 34.892578 136.412109 L 41.729980 136.412109 L 41.729980 137.335938 Z " fill="rgb(0, 0, 0)" fill-opacity="1.000000" />
<path d="M 41.892578 137.335938 L 41.892578 136.412109 L 48.729980 136.412109 L 48.729980 137.335938 Z " fill="rgb(0, 0, 0)" fill-opacity="1.000000" />
<path d="M 48.892578 137.335938 L 48.892578 136.412109 L 55.729980 136.412109 L 55.729980 137.335938 Z " fill="rgb(0, 0, 0)" fill-opacity="1.000000" />
<path d="M 55.892578 137.335938 L 55.892578 136.412109 L 62.729980 136.412109 L 62.729980 137.335938 Z " fill="rgb(0, 0, 0)" fill-opacity="1.000000" />
<path d="M 62.892578 137.335938 L 62.892578 136.412109 L 69.729980 136.412109 L 69.729980 137.335938 Z " fill="rgb(0, 0, 0)" fill-opacity="1.000000" />
<path d="M 69.892578 137.335938 L 69.892578 136.412109 L 76.729980 136.412109 L 76.729980 137.335938 Z " fill="rgb(0, 0, 0)" fill-opacity="1.000000" />
<path d="M 76.892578 137.335938 L 76.892578 136.412109 L 83.729980 136.412109 L 83.729980 137.335938 Z " fill="rgb(0, 0, 0)" fill-opacity="1.000000" />
<path d="M 83.892578 137.335938 L 83.892578 136.412109 L 90.729980 136.412109 L 90.729980 137.335938 Z " fill="rgb(0, 0, 0)" fill-opacity="1.000000" />
<path d="M 90.892578 137.335938 L 90.892578 136.412109 L 97.729980 136.412109 L 97.729980 137.335938 Z " fill="rgb(0, 0, 0)" fill-opacity="1.000000" />
<path d="M 97.892578 137.335938 L 97.892578 136.412109 L 104.729980 136.412109 L 104.729980 137.335938 Z " fill="rgb(0, 0, 0)" fill-opacity="1.000000" />
<path d="M 104.892578 137.335938 L 104.892578 136.412109 L 111.729980 136.412109 L 111.729980 137.335938 Z " fill="rgb(0, 0, 0)" fill-opacity="1.000000" />
<path d="M 111.892578 137.335938 L 111.892578 136.412109 L 118.729980 136.412109 L 118.729980 137.335938 Z " fill="rgb(0, 0, 0)" fill-opacity="1.000000" />
<path d="M 118.892578 137.335938 L 118.892578 136.412109 L 125.729980 136.412109 L 125.729980 137.335938 Z " fill="rgb(0, 0, 0)" fill-opacity="1.000000" />
<path d="M 125.892578 137.335938 L 125.892578 136.412109 L 132.729980 136.412109 L 132.729980 137.335938 Z " fill="rgb(0, 0, 0)" fill-opacity="1.000000" />
<path d="M 132.892578 137.335938 L 132.892578 136.412109 L 139.729980 136.412109 L 139.729980 137.335938 Z " fill="rgb(0, 0, 0)" fill-opacity="1.000000" />
<path d="M 139.892578 137.335938 L 139.892578 136.412109 L 146.729980 136.412109 L 146.729980 137.335938 Z " fill="rgb(0, 0, 0)" fill-opacity="1.000000" />
<path d="M 149.878906 143.319336 L 149.878906 137.335938 L 146.892578 137.335938 L 146.892578 136.412109 L 150.738281 136.412109 L 150.738281 143.319336 Z " fill="rgb(0, 0, 0)" fill-opacity="1.000000" />
<path d="M 219.878906 143.319336 L 219.878906 136.412109 L 223.729980 136.412109 L 223.729980 137.335938 L 220.738281 137.335938 L 220.738281 143.319336 Z " fill="rgb(0, 0, 0)" fill-opacity="1.000000" />
<path d="M 223.892578 137.335938 L 223.892578 136.412109 L 230.729980 136.412109 L 230.729980 137.335938 Z " fill="rgb(0, 0, 0)" fill-opacity="1.000000" />
<path d="M 230.892578 137.335938 L 230.892578 136.412109 L 237.729980 136.412109 L 237.729980 137.335938 Z " fill="rgb(0, 0, 0)" fill-opacity="1.000000" />
<path d="M 237.892578 137.335938 L 237.892578 136.412109 L 244.729980 136.412109 L 244.729980 137.335938 Z " fill="rgb(0, 0, 0)" fill-opacity="1.000000" />
<path d="M 244.892578 137.335938 L 244.892578 136.412109 L 251.729980 136.412109 L 251.729980 137.335938 Z " fill="rgb(0, 0, 0)" fill-opacity="1.000000" />
<path d="M 251.892578 137.335938 L 251.892578 136.412109 L 258.729980 136.412109 L 258.729980 137.335938 Z " fill="rgb(0, 0, 0)" fill-opacity="1.000000" />
<path d="M 258.892578 137.335938 L 258.892578 136.412109 L 265.729980 136.412109 L 265.729980 137.335938 Z " fill="rgb(0, 0, 0)" fill-opacity="1.000000" />
<path d="M 265.892578 137.335938 L 265.892578 136.412109 L 272.729980 136.412109 L 272.729980 137.335938 Z " fill="rgb(0, 0, 0)" fill-opacity="1.000000" />
<path d="M 272.892578 137.335938 L 272.892578 136.412109 L 279.729980 136.412109 L 279.729980 137.335938 Z " fill="rgb(0, 0, 0)" fill-opacity="1.000000" />
<path d="M 279.892578 137.335938 L 279.892578 136.412109 L 286.729980 136.412109 L 286.729980 137.335938 Z " fill="rgb(0, 0, 0)" fill-opacity="1.000000" />
<path d="M 286.892578 137.335938 L 286.892578 136.412109 L 293.729980 136.412109 L 293.729980 137.335938 Z " fill="rgb(0, 0, 0)" fill-opacity="1.000000" />
<path d="M 293.892578 137.335938 L 293.892578 136.412109 L 300.729980 136.412109 L 300.729980 137.335938 Z " fill="rgb(0, 0, 0)" fill-opacity="1.000000" />
<path d="M 300.892578 137.335938 L 300.892578 136.412109 L 307.729980 136.412109 L 307.729980 137.335938 Z " fill="rgb(0, 0, 0)" fill-opacity="1.000000" />
<path d="M 307.892578 137.335938 L 307.892578 136.412109 L 314.729980 136.412109 L 314.729980 137.335938 Z " fill="rgb(0, 0, 0)" fill-opacity="1.000000" />
<path d="M 314.892578 137.335938 L 314.892578 136.412109 L 321.729980 136.412109 L 321.729980 137.335938 Z " fill="rgb(0, 0, 0)" fill-opacity="1.000000" />
<path d="M 321.892578 137.335938 L 321.892578 136.412109 L 328.729980 136.412109 L 328.729980 137.335938 Z " fill="rgb(0, 0, 0)" fill-opacity="1.000000" />
<path d="M 328.892578 137.335938 L 328.892578 136.412109 L 335.729980 136.412109 L 335.729980 137.335938 Z " fill="rgb(0, 0, 0)" fill-opacity="1.000000" />
<path d="M 335.892578 137.335938 L 335.892578 136.412109 L 342.729980 136.412109 L 342.729980 137.335938 Z " fill="rgb(0, 0, 0)" fill-opacity="1.000000" />
<path d="M 345.878906 143.319336 L 345.878906 137.335938 L 342.892578 137.335938 L 342.892578 136.412109 L 346.738281 136.412109 L 346.738281 143.319336 Z " fill="rgb(0, 0, 0)" fill-opacity="1.000000" />
<path d="M 359.878906 143.319336 L 359.878906 129.300781 L 360.738281 129.300781 L 360.738281 143.319336 Z " fill="rgb(0, 0, 0)" fill-opacity="1.000000" />
<path d="M 6.892578 124.335938 L 6.892578 123.412109 L 13.729980 123.412109 L 13.729980 124.335938 Z " fill="rgb(0, 0, 0)" fill-opacity="1.000000" />
<path d="M 13.892578 124.335938 L 13.892578 123.412109 L 20.729980 123.412109 L 20.729980 124.335938 Z " fill="rgb(0, 0, 0)" fill-opacity="1.000000" />
<path d="M 20.892578 124.335938 L 20.892578 123.412109 L 27.729980 123.412109 L 27.729980 124.335938 Z " fill="rgb(0, 0, 0)" fill-opacity="1.000000" />
<path d="M 27.892578 124.335938 L 27.892578 123.412109 L 34.729980 123.412109 L 34.729980 124.335938 Z " fill="rgb(0, 0, 0)" fill-opacity="1.000000" />
<path d="M 34.892578 124.335938 L 34.892578 123.412109 L 41.729980 123.412109 L 41.729980 124.335938 Z " fill="rgb(0, 0, 0)" fill-opacity="1.000000" />
<path d="M 41.892578 124.335938 L 41.892578 123.412109 L 48.729980 123.412109 L 48.729980 124.335938 Z " fill="rgb(0, 0, 0)" fill-opacity="1.000000" />
<path d="M 48.892578 124.335938 L 48.892578 123.412109 L 55.729980 123.412109 L 55.729980 124.335938 Z " fill="rgb(0, 0, 0)" fill-opacity="1.000000" />
<path d="M 55.892578 124.335938 L 55.892578 123.412109 L 62.729980 123.412109 L 62.729980 124.335938 Z " fill="rgb(0, 0, 0)" fill-opacity="1.000000" />
<path d="M 62.892578 124.335938 L 62.892578 123.412109 L 69.729980 123.412109 L 69.729980 124.335938 Z " fill="rgb(0, 0, 0)" fill-opacity="1.000000" />
<path d="M 69.892578 124.335938 L 69.892578 123.412109 L 76.729980 123.412109 L 76.729980 124.335938 Z " fill="rgb(0, 0, 0)" fill-opacity="1.000000" />
<path d="M 76.892578 124.335938 L 76.892578 123.412109 L 83.729980 123.412109 L 83.729980 124.335938 Z " fill="rgb(0, 0, 0)" fill-opacity="1.000000" />
<path d="M 83.892578 124.335938 L 83.892578 123.412109 L 90.729980 123.412109 L 90.729980 124.335938 Z " fill="rgb(0, 0, 0)" fill-opacity="1.000000" />
<path d="M 90.892578 124.335938 L 90.892578 123.412109 L 97.729980 123.412109 L 97.729980 124.335938 Z " fill="rgb(0, 0, 0)" fill-opacity="1.000000" />
<path d="M 97.892578 124.335938 L 97.892578 123.412109 L 104.729980 123.412109 L 104.729980 124.335938 Z " fill="rgb(0, 0, 0)" fill-opacity="1.000000" />
<path d="M 104.892578 124.335938 L 104.892578 123.412109 L 111.729980 123.412109 L 111.729980 124.335938 Z " fill="rgb(0, 0, 0)" fill-opacity="1.000000" />
<path d="M 111.892578 124.335938 L 111.892578 123.412109 L 118.729980 123.412109 L 118.729980 124.335938 Z " fill="rgb(0, 0, 0)" fill-opacity="1.000000" />
<path d="M 118.892578 124.335938 L 118.892578 123.412109 L 125.729980 123.412109 L 125.729980 124.335938 Z " fill="rgb(0, 0, 0)" fill-opacity="1.000000" />
<path d="M 125.892578 124.335938 L 125.892578 123.412109 L 132.729980 123.412109 L 132.729980 124.335938 Z " fill="rgb(0, 0, 0)" fill-opacity="1.000000" />
<path d="M 132.892578 124.335938 L 132.892578 123.412109 L 139.729980 123.412109 L 139.729980 124.335938 Z " fill="rgb(0, 0, 0)" fill-opacity="1.000000" />
<path d="M 139.892578 124.335938 L 139.892578 123.412109 L 146.729980 123.412109 L 146.729980 124.335938 Z " fill="rgb(0, 0, 0)" fill-opacity="1.000000" />
<path d="M 146.892578 124.335938 L 146.892578 123.412109 L 153.729980 123.412109 L 153.729980 124.335938 Z " fill="rgb(0, 0, 0)" fill-opacity="1.000000" />
<path d="M 153.892578 124.335938 L 153.892578 123.412109 L 160.729980 123.412109 L 160.729980 124.335938 Z " fill="rgb(0, 0, 0)" fill-opacity="1.000000" />
<path d="M 160.892578 124.335938 L 160.892578 123.412109 L 167.729980 123.412109 L 167.729980 124.335938 Z " fill="rgb(0, 0, 0)" fill-opacity="1.000000" />
<path d="M 167.892578 124.335938 L 167.892578 123.412109 L 174.729980 123.412109 L 174.729980 124.335938 Z " fill="rgb(0, 0, 0)" fill-opacity="1.000000" />
<path d="M 174.892578 124.335938 L 174.892578 123.412109 L 181.729980 123.412109 L 181.729980 124.335938 Z " fill="rgb(0, 0, 0)" fill-opacity="1.000000" />
<path d="M 181.892578 124.335938 L 181.892578 123.412109 L 188.729980 123.412109 L 188.729980 124.335938 Z " fill="rgb(0, 0, 0)" fill-opacity="1.000000" />
<path d="M 188.892578 124.335938 L 188.892578 123.412109 L 195.729980 123.412109 L 195.729980 124.335938 Z " fill="rgb(0, 0, 0)" fill-opacity="1.000000" />
<path d="M 195.892578 124.335938 L 195.892578 123.412109 L 202.729980 123.412109 L 202.729980 124.335938 Z " fill="rgb(0, 0, 0)" fill-opacity="1.000000" />
<path d="M 202.892578 124.335938 L 202.892578 123.412109 L 209.729980 123.412109 L 209.729980 124.335938 Z " fill="rgb(0, 0, 0)" fill-opacity="1.000000" />
<path d="M 209.892578 124.335938 L 209.892578 123.412109 L 216.729980 123.412109 L 216.729980 124.335938 Z " fill="rgb(0, 0, 0)" fill-opacity="1.000000" />
<path d="M 216.892578 124.335938 L 216.892578 123.412109 L 223.729980 123.412109 L 223.729980 124.335938 Z " fill="rgb(0, 0, 0)" fill-opacity="1.000000" />
<path d="M 223.892578 124.335938 L 223.892578 123.412109 L 230.729980 123.412109 L 230.729980 124.335938 Z " fill="rgb(0, 0, 0)" fill-opacity="1.000000" />
<path d="M 230.892578 124.335938 L 230.892578 123.412109 L 237.729980 123.412109 L 237.729980 124.335938 Z " fill="rgb(0, 0, 0)" fill-opacity="1.000000" />
<path d="M 237.892578 124.335938 L 237.892578 123.412109 L 244.729980 123.412109 L 244.729980 124.335938 Z " fill="rgb(0, 0, 0)" fill-opacity="1.000000" />
<path d="M 244.892578 124.335938 L 244.892578 123.412109 L 251.729980 123.412109 L 251.729980 124.335938 Z " fill="rgb(0, 0, 0)" fill-opacity="1.000000" />
<path d="M 251.892578 124.335938 L 251.892578 123.412109 L 258.729980 123.412109 L 258.729980 124.335938 Z " fill="rgb(0, 0, 0)" fill-opacity="1.000000" />
<path d="M 258.892578 124.335938 L 258.892578 123.412109 L 265.729980 123.412109 L 265.729980 124.335938 Z " fill="rgb(0, 0, 0)" fill-opacity="1.000000" />
<path d="M 265.892578 124.335938 L 265.892578 123.412109 L 272.729980 123.412109 L 272.729980 124.335938 Z " fill="rgb(0, 0, 0)" fill-opacity="1.000000" />
<path d="M 272.892578 124.335938 L 272.892578 123.412109 L 279.729980 123.412109 L 279.729980 124.335938 Z " fill="rgb(0, 0, 0)" fill-opacity="1.000000" />
<path d="M 279.892578 124.335938 L 279.892578 123.412109 L 286.729980 123.412109 L 286.729980 124.335938 Z " fill="rgb(0, 0, 0)" fill-opacity="1.000000" />
<path d="M 286.892578 124.335938 L 286.892578 123.412109 L 293.729980 123.412109 L 293.729980 124.335938 Z " fill="rgb(0, 0, 0)" fill-opacity="1.000000" />
<path d="M 293.892578 124.335938 L 293.892578 123.412109 L 300.729980 123.412109 L 300.729980 124.335938 Z " fill="rgb(0, 0, 0)" fill-opacity="1.000000" />
<path d="M 300.892578 124.335938 L 300.892578 123.412109 L 307.729980 123.412109 L 307.729980 124.335938 Z " fill="rgb(0, 0, 0)" fill-opacity="1.000000" />
<path d="M 307.892578 124.335938 L 307.892578 123.412109 L 314.729980 123.412109 L 314.729980 124.335938 Z " fill="rgb(0, 0, 0)" fill-opacity="1.000000" />
<path d="M 314.892578 124.335938 L 314.892578 123.412109 L 321.729980 123.412109 L 321.729980 124.335938 Z " fill="rgb(0, 0, 0)" fill-opacity="1.000000" />
<path d="M 321.892578 124.335938 L 321.892578 123.412109 L 328.729980 123.412109 L 328.729980 124.335938 Z " fill="rgb(0, 0, 0)" fill-opacity="1.000000" />
<path d="M 328.892578 124.335938 L 328.892578 123.412109 L 335.729980 123.412109 L 335.729980 124.335938 Z " fill="rgb(0, 0, 0)" fill-opacity="1.000000" />
<path d="M 335.892578 124.335938 L 335.892578 123.412109 L 342.729980 123.412109 L 342.729980 124.335938 Z " fill="rgb(0, 0, 0)" fill-opacity="1.000000" />
<path d="M 342.892578 124.335938 L 342.892578 123.412109 L 349.729980 123.412109 L 349.729980 124.335938 Z " fill="rgb(0, 0, 0)" fill-opacity="1.000000" />
<path d="M 349.892578 124.335938 L 349.892578 123.412109 L 356.729980 123.412109 L 356.729980 124.335938 Z " fill="rgb(0, 0, 0)" fill-opacity="1.000000" />
<path d="M 359.878906 130.319336 L 359.878906 124.335938 L 356.892578 124.335938 L 356.892578 123.412109 L 360.738281 123.412109 L 360.738281 130.319336 Z " fill="rgb(0, 0, 0)" fill-opacity="1.000000" />
<path d="M 114.878906 13.319336 L 114.878906 6.412109 L 118.729980 6.412109 L 118.729980 7.335938 L 115.738281 7.335938 L 115.738281 13.319336 Z " fill="rgb(0, 0, 0)" fill-opacity="1.000000" />
<path d="M 114.878906 26.319336 L 114.878906 12.300781 L 115.738281 12.300781 L 115.738281 26.319336 Z " fill="rgb(0, 0, 0)" fill-opacity="1.000000" />
<path d="M 114.878906 33.335938 L 114.878906 25.300781 L 115.738281 25.300781 L 115.738281 32.412109 L 118.729980 32.412109 L 118.729980 33.335938 Z " fill="rgb(0, 0, 0)" fill-opacity="1.000000" />
<path d="M 141.154785 66.980957 L 142.245117 66.980957 L 142.245117 74.086914 L 146.117676 74.086914 L 146.117676 75.000000 L 141.154785 75.000000 Z " fill="rgb(0, 0, 0)" fill-opacity="1.000000" />
<path d="M 184.878906 91.319336 L 184.878906 77.300781 L 185.738281 77.300781 L 185.738281 91.319336 Z " fill="rgb(0, 0, 0)" fill-opacity="1.000000" />
<path d="M 184.878906 104.319336 L 184.878906 90.300781 L 185.738281 90.300781 L 185.738281 104.319336 Z " fill="rgb(0, 0, 0)" fill-opacity="1.000000" />
<path d="M 185.308594 114.418945 L 182.032227 107.866211 L 188.590332 107.866211 Z " fill="rgb(0, 0, 0)" fill-opacity="1.000000" />
<path d="M 150.770508 71.976074 L 150.442871 71.976074 Q 149.578125 71.976074 149.140381 72.279541 Q 148.702637 72.583008 148.702637 73.184570 Q 148.702637 73.727051 149.030273 74.027832 Q 149.357910 74.328613 149.937988 74.328613 Q 150.754395 74.328613 151.221680 73.761963 Q 151.688965 73.195312 151.694336 72.196289 L 151.694336 71.976074 Z M 152.687988 71.567871 L 152.687988 75.000000 L 151.694336 75.000000 L 151.694336 74.108398 Q 151.377441 74.645508 150.896729 74.900635 Q 150.416016 75.155762 149.728516 75.155762 Q 148.810059 75.155762 148.262207 74.637451 Q 147.714355 74.119141 147.714355 73.249023 Q 147.714355 72.244629 148.388428 71.723633 Q 149.062500 71.202637 150.367676 71.202637 L 151.694336 71.202637 L 151.694336 71.046875 Q 151.688965 70.327148 151.329102 70.002197 Q 150.969238 69.677246 150.179688 69.677246 Q 149.674805 69.677246 149.159180 69.822266 Q 148.643555 69.967285 148.154785 70.246582 L 148.154785 69.258301 Q 148.702637 69.048828 149.204834 68.944092 Q 149.707031 68.839355 150.179688 68.839355 Q 150.926270 68.839355 151.455322 69.059570 Q 151.984375 69.279785 152.312012 69.720215 Q 152.516113 69.988770 152.602051 70.383545 Q 152.687988 70.778320 152.687988 71.567871 Z " fill="rgb(0, 0, 0)" fill-opacity="1.000000" />
<path d="M 157.297852 67.276367 L 157.297852 68.984375 L 159.542969 68.984375 L 159.542969 69.752441 L 157.297852 69.752441 L 157.297852 73.018066 Q 157.297852 73.684082 157.550293 73.947266 Q 157.802734 74.210449 158.431152 74.210449 L 159.542969 74.210449 L 159.542969 75.000000 L 158.334473 75.000000 Q 157.222656 75.000000 156.766113 74.554199 Q 156.309570 74.108398 156.309570 73.018066 L 156.309570 69.752441 L 154.703613 69.752441 L 154.703613 68.984375 L 156.309570 68.984375 L 156.309570 67.276367 Z " fill="rgb(0, 0, 0)" fill-opacity="1.000000" />
<path d="M 167.015625 71.498047 L 167.015625 71.981445 L 162.734863 71.981445 L 162.734863 72.013672 Q 162.691895 73.243652 163.204834 73.780762 Q 163.717773 74.317871 164.652344 74.317871 Q 165.125000 74.317871 165.640625 74.167480 Q 166.156250 74.017090 166.741699 73.710938 L 166.741699 74.693848 Q 166.177734 74.924805 165.654053 75.040283 Q 165.130371 75.155762 164.641602 75.155762 Q 163.239746 75.155762 162.450195 74.315186 Q 161.660645 73.474609 161.660645 71.997559 Q 161.660645 70.558105 162.434082 69.698730 Q 163.207520 68.839355 164.496582 68.839355 Q 165.645996 68.839355 166.309326 69.618164 Q 166.972656 70.396973 167.015625 71.498047 Z M 166.027344 71.208008 Q 165.962891 70.584961 165.573486 70.131104 Q 165.184082 69.677246 164.453613 69.677246 Q 163.739258 69.677246 163.277344 70.149902 Q 162.815430 70.622559 162.772461 71.213379 Z " fill="rgb(0, 0, 0)" fill-opacity="1.000000" />
<path d="M 173.645020 71.272461 L 173.645020 75.000000 L 172.651367 75.000000 L 172.651367 71.272461 Q 172.651367 70.461426 172.366699 70.080078 Q 172.082031 69.698730 171.475098 69.698730 Q 170.782227 69.698730 170.408936 70.190186 Q 170.035645 70.681641 170.035645 71.600098 L 170.035645 75.000000 L 169.047363 75.000000 L 169.047363 68.984375 L 170.035645 68.984375 L 170.035645 69.886719 Q 170.298828 69.371094 170.750000 69.105225 Q 171.201172 68.839355 171.818848 68.839355 Q 172.737305 68.839355 173.191162 69.443604 Q 173.645020 70.047852 173.645020 71.272461 Z " fill="rgb(0, 0, 0)" fill-opacity="1.000000" />
<path d="M 180.698730 74.693848 Q 180.301270 74.924805 179.879639 75.040283 Q 179.458008 75.155762 179.017578 75.155762 Q 177.621094 75.155762 176.834229 74.317871 Q 176.047363 73.479980 176.047363 71.997559 Q 176.047363 70.515137 176.834229 69.677246 Q 177.621094 68.839355 179.017578 68.839355 Q 179.452637 68.839355 179.866211 68.952148 Q 180.279785 69.064941 180.698730 69.301270 L 180.698730 70.337891 Q 180.306641 69.988770 179.911865 69.833008 Q 179.517090 69.677246 179.017578 69.677246 Q 178.088379 69.677246 177.588867 70.278809 Q 177.089355 70.880371 177.089355 71.997559 Q 177.089355 73.109375 177.591553 73.713623 Q 178.093750 74.317871 179.017578 74.317871 Q 179.533203 74.317871 179.941406 74.159424 Q 180.349609 74.000977 180.698730 73.667969 Z " fill="rgb(0, 0, 0)" fill-opacity="1.000000" />
<path d="M 186.608398 73.066406 Q 186.361328 73.694824 185.979980 74.720703 Q 185.448242 76.138672 185.265625 76.450195 Q 185.018555 76.869141 184.647949 77.078613 Q 184.277344 77.288086 183.783203 77.288086 L 182.988281 77.288086 L 182.988281 76.460938 L 183.573730 76.460938 Q 184.008789 76.460938 184.255859 76.208496 Q 184.502930 75.956055 184.884277 74.903320 L 182.558594 68.984375 L 183.605957 68.984375 L 185.389160 73.689453 L 187.145508 68.984375 L 188.192871 68.984375 Z " fill="rgb(0, 0, 0)" fill-opacity="1.000000" />
<path d="M 191.304199 68.989746 L 192.979980 68.989746 L 192.979980 70.928711 L 191.304199 70.928711 Z M 191.304199 73.044922 L 192.979980 73.044922 L 192.979980 75.000000 L 191.304199 75.000000 Z " fill="rgb(0, 0, 0)" fill-opacity="1.000000" />
<path d="M 205.003418 74.086914 L 208.687988 74.086914 L 208.687988 75.000000 L 203.816406 75.000000 L 203.816406 74.086914 Q 204.820801 73.028809 205.572754 72.217773 Q 206.324707 71.406738 206.609375 71.073730 Q 207.146484 70.418457 207.334473 70.012939 Q 207.522461 69.607422 207.522461 69.183105 Q 207.522461 68.511719 207.127686 68.130371 Q 206.732910 67.749023 206.045410 67.749023 Q 205.556641 67.749023 205.019531 67.926270 Q 204.482422 68.103516 203.880859 68.463379 L 203.880859 67.367676 Q 204.434082 67.104492 204.968506 66.970215 Q 205.502930 66.835938 206.023926 66.835938 Q 207.200195 66.835938 207.917236 67.461670 Q 208.634277 68.087402 208.634277 69.102539 Q 208.634277 69.618164 208.395264 70.133789 Q 208.156250 70.649414 207.619141 71.272461 Q 207.318359 71.621582 206.746338 72.239258 Q 206.174316 72.856934 205.003418 74.086914 Z " fill="rgb(0, 0, 0)" fill-opacity="1.000000" />
<path d="M 213.630859 69.596680 Q 213.813477 69.209961 214.095459 69.024658 Q 214.377441 68.839355 214.774902 68.839355 Q 215.500000 68.839355 215.798096 69.400635 Q 216.096191 69.961914 216.096191 71.514160 L 216.096191 75.000000 L 215.193848 75.000000 L 215.193848 71.557129 Q 215.193848 70.284180 215.051514 69.975342 Q 214.909180 69.666504 214.533203 69.666504 Q 214.103516 69.666504 213.945068 69.996826 Q 213.786621 70.327148 213.786621 71.557129 L 213.786621 75.000000 L 212.884277 75.000000 L 212.884277 71.557129 Q 212.884277 70.268066 212.731201 69.967285 Q 212.578125 69.666504 212.180664 69.666504 Q 211.788574 69.666504 211.635498 69.996826 Q 211.482422 70.327148 211.482422 71.557129 L 211.482422 75.000000 L 210.585449 75.000000 L 210.585449 68.984375 L 211.482422 68.984375 L 211.482422 69.500000 Q 211.659668 69.177734 211.925537 69.008545 Q 212.191406 68.839355 212.529785 68.839355 Q 212.937988 68.839355 213.209229 69.027344 Q 213.480469 69.215332 213.630859 69.596680 Z " fill="rgb(0, 0, 0)" fill-opacity="1.000000" />
<path d="M 222.226074 69.193848 L 222.226074 70.160645 Q 221.801758 69.913574 221.372070 69.790039 Q 220.942383 69.666504 220.496582 69.666504 Q 219.825195 69.666504 219.494873 69.884033 Q 219.164551 70.101562 219.164551 70.547363 Q 219.164551 70.950195 219.411621 71.148926 Q 219.658691 71.347656 220.641602 71.535645 L 221.039062 71.610840 Q 221.774902 71.750488 222.153564 72.169434 Q 222.532227 72.588379 222.532227 73.259766 Q 222.532227 74.151367 221.898438 74.653564 Q 221.264648 75.155762 220.136719 75.155762 Q 219.690918 75.155762 219.202148 75.061768 Q 218.713379 74.967773 218.144043 74.779785 L 218.144043 73.759277 Q 218.697266 74.043945 219.202148 74.186279 Q 219.707031 74.328613 220.158203 74.328613 Q 220.813477 74.328613 221.173340 74.062744 Q 221.533203 73.796875 221.533203 73.318848 Q 221.533203 72.631348 220.217285 72.368164 L 220.174316 72.357422 L 219.803711 72.282227 Q 218.949707 72.115723 218.557617 71.720947 Q 218.165527 71.326172 218.165527 70.644043 Q 218.165527 69.779297 218.750977 69.309326 Q 219.336426 68.839355 220.421387 68.839355 Q 220.904785 68.839355 221.350586 68.927979 Q 221.796387 69.016602 222.226074 69.193848 Z " fill="rgb(0, 0, 0)" fill-opacity="1.000000" />
<path d="M 182.032227 49.418945 L 185.308594 42.866211 L 188.590332 49.418945 Z " fill="rgb(0, 0, 0)" fill-opacity="1.000000" />
<path d="M 184.878906 65.319336 L 184.878906 51.300781 L 185.738281 51.300781 L 185.738281 65.319336 Z " fill="rgb(0, 0, 0)" fill-opacity="1.000000" />
<path d="M 118.892578 33.335938 L 118.892578 32.412109 L 125.729980 32.412109 L 125.729980 33.335938 Z " fill="rgb(0, 0, 0)" fill-opacity="1.000000" />
<path d="M 125.892578 33.335938 L 125.892578 32.412109 L 132.729980 32.412109 L 132.729980 33.335938 Z " fill="rgb(0, 0, 0)" fill-opacity="1.000000" />
<path d="M 132.892578 33.335938 L 132.892578 32.412109 L 139.729980 32.412109 L 139.729980 33.335938 Z " fill="rgb(0, 0, 0)" fill-opacity="1.000000" />
<path d="M 139.892578 33.335938 L 139.892578 32.412109 L 146.729980 32.412109 L 146.729980 33.335938 Z " fill="rgb(0, 0, 0)" fill-opacity="1.000000" />
<path d="M 146.892578 33.335938 L 146.892578 32.412109 L 153.729980 32.412109 L 153.729980 33.335938 Z " fill="rgb(0, 0, 0)" fill-opacity="1.000000" />
<path d="M 153.892578 33.335938 L 153.892578 32.412109 L 160.729980 32.412109 L 160.729980 33.335938 Z " fill="rgb(0, 0, 0)" fill-opacity="1.000000" />
<path d="M 160.892578 33.335938 L 160.892578 32.412109 L 167.729980 32.412109 L 167.729980 33.335938 Z " fill="rgb(0, 0, 0)" fill-opacity="1.000000" />
<path d="M 167.892578 33.335938 L 167.892578 32.412109 L 174.729980 32.412109 L 174.729980 33.335938 Z " fill="rgb(0, 0, 0)" fill-opacity="1.000000" />
<path d="M 174.892578 33.335938 L 174.892578 32.412109 L 181.729980 32.412109 L 181.729980 33.335938 Z " fill="rgb(0, 0, 0)" fill-opacity="1.000000" />
<path d="M 181.892578 33.335938 L 181.892578 32.412109 L 188.729980 32.412109 L 188.729980 33.335938 Z " fill="rgb(0, 0, 0)" fill-opacity="1.000000" />
<path d="M 188.892578 33.335938 L 188.892578 32.412109 L 195.729980 32.412109 L 195.729980 33.335938 Z " fill="rgb(0, 0, 0)" fill-opacity="1.000000" />
<path d="M 195.892578 33.335938 L 195.892578 32.412109 L 202.729980 32.412109 L 202.729980 33.335938 Z " fill="rgb(0, 0, 0)" fill-opacity="1.000000" />
<path d="M 202.892578 33.335938 L 202.892578 32.412109 L 209.729980 32.412109 L 209.729980 33.335938 Z " fill="rgb(0, 0, 0)" fill-opacity="1.000000" />
<path d="M 209.892578 33.335938 L 209.892578 32.412109 L 216.729980 32.412109 L 216.729980 33.335938 Z " fill="rgb(0, 0, 0)" fill-opacity="1.000000" />
<path d="M 216.892578 33.335938 L 216.892578 32.412109 L 223.729980 32.412109 L 223.729980 33.335938 Z " fill="rgb(0, 0, 0)" fill-opacity="1.000000" />
<path d="M 223.892578 33.335938 L 223.892578 32.412109 L 230.729980 32.412109 L 230.729980 33.335938 Z " fill="rgb(0, 0, 0)" fill-opacity="1.000000" />
<path d="M 230.892578 33.335938 L 230.892578 32.412109 L 237.729980 32.412109 L 237.729980 33.335938 Z " fill="rgb(0, 0, 0)" fill-opacity="1.000000" />
<path d="M 237.892578 33.335938 L 237.892578 32.412109 L 244.729980 32.412109 L 244.729980 33.335938 Z " fill="rgb(0, 0, 0)" fill-opacity="1.000000" />
<path d="M 244.892578 33.335938 L 244.892578 32.412109 L 247.878906 32.412109 L 247.878906 25.300781 L 248.738281 25.300781 L 248.738281 33.335938 Z " fill="rgb(0, 0, 0)" fill-opacity="1.000000" />
<path d="M 166.763184 22.715332 Q 166.349609 22.935547 165.914551 23.045654 Q 165.479492 23.155762 164.990723 23.155762 Q 163.449219 23.155762 162.597900 22.065430 Q 161.746582 20.975098 161.746582 18.998535 Q 161.746582 17.032715 162.603271 15.934326 Q 163.459961 14.835938 164.990723 14.835938 Q 165.479492 14.835938 165.914551 14.946045 Q 166.349609 15.056152 166.763184 15.276367 L 166.763184 16.388184 Q 166.365723 16.060547 165.909180 15.888672 Q 165.452637 15.716797 164.990723 15.716797 Q 163.932617 15.716797 163.406250 16.533203 Q 162.879883 17.349609 162.879883 18.998535 Q 162.879883 20.642090 163.406250 21.458496 Q 163.932617 22.274902 164.990723 22.274902 Q 165.463379 22.274902 165.917236 22.103027 Q 166.371094 21.931152 166.763184 21.603516 Z " fill="rgb(0, 0, 0)" fill-opacity="1.000000" />
<path d="M 171.861816 20.824707 Q 171.861816 21.490723 172.106201 21.829102 Q 172.350586 22.167480 172.828613 22.167480 L 173.983398 22.167480 L 173.983398 23.000000 L 172.731934 23.000000 Q 171.845703 23.000000 171.359619 22.433350 Q 170.873535 21.866699 170.873535 20.824707 L 170.873535 15.383789 L 169.289062 15.383789 L 169.289062 14.610352 L 171.861816 14.610352 Z " fill="rgb(0, 0, 0)" fill-opacity="1.000000" />
<path d="M 176.697266 17.005859 L 179.227051 17.005859 L 179.227051 22.231934 L 181.187500 22.231934 L 181.187500 23.000000 L 176.278320 23.000000 L 176.278320 22.231934 L 178.238770 22.231934 L 178.238770 17.773926 L 176.697266 17.773926 Z M 178.238770 14.669434 L 179.227051 14.669434 L 179.227051 15.915527 L 178.238770 15.915527 Z " fill="rgb(0, 0, 0)" fill-opacity="1.000000" />
<path d="M 188.015625 19.498047 L 188.015625 19.981445 L 183.734863 19.981445 L 183.734863 20.013672 Q 183.691895 21.243652 184.204834 21.780762 Q 184.717773 22.317871 185.652344 22.317871 Q 186.125000 22.317871 186.640625 22.167480 Q 187.156250 22.017090 187.741699 21.710938 L 187.741699 22.693848 Q 187.177734 22.924805 186.654053 23.040283 Q 186.130371 23.155762 185.641602 23.155762 Q 184.239746 23.155762 183.450195 22.315186 Q 182.660645 21.474609 182.660645 19.997559 Q 182.660645 18.558105 183.434082 17.698730 Q 184.207520 16.839355 185.496582 16.839355 Q 186.645996 16.839355 187.309326 17.618164 Q 187.972656 18.396973 188.015625 19.498047 Z M 187.027344 19.208008 Q 186.962891 18.584961 186.573486 18.131104 Q 186.184082 17.677246 185.453613 17.677246 Q 184.739258 17.677246 184.277344 18.149902 Q 183.815430 18.622559 183.772461 19.213379 Z " fill="rgb(0, 0, 0)" fill-opacity="1.000000" />
<path d="M 194.645020 19.272461 L 194.645020 23.000000 L 193.651367 23.000000 L 193.651367 19.272461 Q 193.651367 18.461426 193.366699 18.080078 Q 193.082031 17.698730 192.475098 17.698730 Q 191.782227 17.698730 191.408936 18.190186 Q 191.035645 18.681641 191.035645 19.600098 L 191.035645 23.000000 L 190.047363 23.000000 L 190.047363 16.984375 L 191.035645 16.984375 L 191.035645 17.886719 Q 191.298828 17.371094 191.750000 17.105225 Q 192.201172 16.839355 192.818848 16.839355 Q 193.737305 16.839355 194.191162 17.443604 Q 194.645020 18.047852 194.645020 19.272461 Z " fill="rgb(0, 0, 0)" fill-opacity="1.000000" />
<path d="M 199.297852 15.276367 L 199.297852 16.984375 L 201.542969 16.984375 L 201.542969 17.752441 L 199.297852 17.752441 L 199.297852 21.018066 Q 199.297852 21.684082 199.550293 21.947266 Q 199.802734 22.210449 200.431152 22.210449 L 201.542969 22.210449 L 201.542969 23.000000 L 200.334473 23.000000 Q 199.222656 23.000000 198.766113 22.554199 Q 198.309570 22.108398 198.309570 21.018066 L 198.309570 17.752441 L 196.703613 17.752441 L 196.703613 16.984375 L 198.309570 16.984375 L 198.309570 15.276367 Z " fill="rgb(0, 0, 0)" fill-opacity="1.000000" />
<path d="M 247.878906 26.319336 L 247.878906 12.300781 L 248.738281 12.300781 L 248.738281 26.319336 Z " fill="rgb(0, 0, 0)" fill-opacity="1.000000" />
<path d="M 118.892578 7.335938 L 118.892578 6.412109 L 125.729980 6.412109 L 125.729980 7.335938 Z " fill="rgb(0, 0, 0)" fill-opacity="1.000000" />
<path d="M 125.892578 7.335938 L 125.892578 6.412109 L 132.729980 6.412109 L 132.729980 7.335938 Z " fill="rgb(0, 0, 0)" fill-opacity="1.000000" />
<path d="M 132.892578 7.335938 L 132.892578 6.412109 L 139.729980 6.412109 L 139.729980 7.335938 Z " fill="rgb(0, 0, 0)" fill-opacity="1.000000" />
<path d="M 139.892578 7.335938 L 139.892578 6.412109 L 146.729980 6.412109 L 146.729980 7.335938 Z " fill="rgb(0, 0, 0)" fill-opacity="1.000000" />
<path d="M 146.892578 7.335938 L 146.892578 6.412109 L 153.729980 6.412109 L 153.729980 7.335938 Z " fill="rgb(0, 0, 0)" fill-opacity="1.000000" />
<path d="M 153.892578 7.335938 L 153.892578 6.412109 L 160.729980 6.412109 L 160.729980 7.335938 Z " fill="rgb(0, 0, 0)" fill-opacity="1.000000" />
<path d="M 160.892578 7.335938 L 160.892578 6.412109 L 167.729980 6.412109 L 167.729980 7.335938 Z " fill="rgb(0, 0, 0)" fill-opacity="1.000000" />
<path d="M 167.892578 7.335938 L 167.892578 6.412109 L 174.729980 6.412109 L 174.729980 7.335938 Z " fill="rgb(0, 0, 0)" fill-opacity="1.000000" />
<path d="M 174.892578 7.335938 L 174.892578 6.412109 L 181.729980 6.412109 L 181.729980 7.335938 Z " fill="rgb(0, 0, 0)" fill-opacity="1.000000" />
<path d="M 181.892578 7.335938 L 181.892578 6.412109 L 188.729980 6.412109 L 188.729980 7.335938 Z " fill="rgb(0, 0, 0)" fill-opacity="1.000000" />
<path d="M 188.892578 7.335938 L 188.892578 6.412109 L 195.729980 6.412109 L 195.729980 7.335938 Z " fill="rgb(0, 0, 0)" fill-opacity="1.000000" />
<path d="M 195.892578 7.335938 L 195.892578 6.412109 L 202.729980 6.412109 L 202.729980 7.335938 Z " fill="rgb(0, 0, 0)" fill-opacity="1.000000" />
<path d="M 202.892578 7.335938 L 202.892578 6.412109 L 209.729980 6.412109 L 209.729980 7.335938 Z " fill="rgb(0, 0, 0)" fill-opacity="1.000000" />
<path d="M 209.892578 7.335938 L 209.892578 6.412109 L 216.729980 6.412109 L 216.729980 7.335938 Z " fill="rgb(0, 0, 0)" fill-opacity="1.000000" />
<path d="M 216.892578 7.335938 L 216.892578 6.412109 L 223.729980 6.412109 L 223.729980 7.335938 Z " fill="rgb(0, 0, 0)" fill-opacity="1.000000" />
<path d="M 223.892578 7.335938 L 223.892578 6.412109 L 230.729980 6.412109 L 230.729980 7.335938 Z " fill="rgb(0, 0, 0)" fill-opacity="1.000000" />
<path d="M 230.892578 7.335938 L 230.892578 6.412109 L 237.729980 6.412109 L 237.729980 7.335938 Z " fill="rgb(0, 0, 0)" fill-opacity="1.000000" />
<path d="M 237.892578 7.335938 L 237.892578 6.412109 L 244.729980 6.412109 L 244.729980 7.335938 Z " fill="rgb(0, 0, 0)" fill-opacity="1.000000" />
<path d="M 247.878906 13.319336 L 247.878906 7.335938 L 244.892578 7.335938 L 244.892578 6.412109 L 248.738281 6.412109 L 248.738281 13.319336 Z " fill="rgb(0, 0, 0)" fill-opacity="1.000000" />
</svg>